<svg width="154" height="70" viewBox="0 0 154 70" fill="none" xmlns="http://www.w3.org/2000/svg">
<g filter="url(#filter0_i_3538_18)">
<foreignObject x="-12" y="-12" width="178" height="94"><div xmlns="http://www.w3.org/1999/xhtml" style="backdrop-filter:blur(6px);clip-path:url(#bgblur_0_3538_18_clip_path);height:100%;width:100%"></div></foreignObject><g filter="url(#filter1_i_3538_18)" data-figma-bg-blur-radius="12">
<rect x="2" y="2" width="150" height="66" rx="33" fill="white" fill-opacity="0.08"/>
<rect x="1" y="1" width="152" height="68" rx="34" stroke="white" stroke-opacity="0.12" stroke-width="2"/>
</g>
<foreignObject x="-3" y="-3.01172" width="78" height="76.0254"><div xmlns="http://www.w3.org/1999/xhtml" style="backdrop-filter:blur(2.5px);clip-path:url(#bgblur_1_3538_18_clip_path);height:100%;width:100%"></div></foreignObject><g filter="url(#filter2_i_3538_18)" data-figma-bg-blur-radius="5">
<path d="M69 35.0006C69 52.6737 54.5 67.5 36 67.0006C17.5 67.5 3 52.6737 3 35.0006C3 17.3275 17.5 2.50003 36 3.0006C54.5 2.5 69 17.3275 69 35.0006Z" fill="white" fill-opacity="0.08"/>
<path d="M36 2.50098C54.781 2.00019 69.5 17.0569 69.5 35.001C69.4998 52.945 54.7808 67.9996 36 67.5C17.2192 67.9996 2.50021 52.945 2.5 35.001C2.5 17.0569 17.219 2.00021 36 2.50098Z" stroke="white" stroke-opacity="0.09"/>
</g>
<path d="M107.787 28.1465H130.087C131.62 28.1465 132.874 29.3976 132.874 30.9268V44.8286C132.874 46.3578 131.62 47.6089 130.087 47.6089H107.787C106.254 47.6089 105 46.3578 105 44.8286V30.9268C105 29.3976 106.254 28.1465 107.787 28.1465Z" stroke="white" stroke-opacity="0.85" stroke-width="2" stroke-linecap="round" stroke-linejoin="round"/>
<path d="M124.911 27.1486V25.073C124.911 23.3829 123.679 22 122.173 22H116.698C115.192 22 113.96 23.3829 113.96 25.073V27.1484" stroke="white" stroke-opacity="0.85" stroke-width="2" stroke-linejoin="round"/>
</g>
<path d="M22 27.0838V47.419L30.8691 42.3352L41.0052 47.419L49.8743 42.3352V22L41.0052 27.0838L30.8691 22L22 27.0838Z" stroke="white" stroke-opacity="0.85" stroke-width="2" stroke-linecap="round" stroke-linejoin="round"/>
<path d="M30.959 22V42.3352" stroke="white" stroke-opacity="0.85" stroke-width="2" stroke-linecap="round" stroke-linejoin="round"/>
<path d="M40.9141 27.084V47.4192" stroke="white" stroke-opacity="0.85" stroke-width="2" stroke-linecap="round" stroke-linejoin="round"/>
<defs>
<filter id="filter0_i_3538_18" x="-4" y="-4" width="162" height="78" filterUnits="userSpaceOnUse" color-interpolation-filters="sRGB">
<feFlood flood-opacity="0" result="BackgroundImageFix"/>
<feBlend mode="normal" in="SourceGraphic" in2="BackgroundImageFix" result="shape"/>
<feColorMatrix in="SourceAlpha" type="matrix" values="0 0 0 0 0 0 0 0 0 0 0 0 0 0 0 0 0 0 127 0" result="hardAlpha"/>
<feOffset/>
<feGaussianBlur stdDeviation="2.45"/>
<feComposite in2="hardAlpha" operator="arithmetic" k2="-1" k3="1"/>
<feColorMatrix type="matrix" values="0 0 0 0 0 0 0 0 0 0 0 0 0 0 0 0 0 0 0.25 0"/>
<feBlend mode="normal" in2="shape" result="effect1_innerShadow_3538_18"/>
</filter>
<filter id="filter1_i_3538_18" x="-12" y="-12" width="178" height="94" filterUnits="userSpaceOnUse" color-interpolation-filters="sRGB">
<feFlood flood-opacity="0" result="BackgroundImageFix"/>
<feBlend mode="normal" in="SourceGraphic" in2="BackgroundImageFix" result="shape"/>
<feColorMatrix in="SourceAlpha" type="matrix" values="0 0 0 0 0 0 0 0 0 0 0 0 0 0 0 0 0 0 127 0" result="hardAlpha"/>
<feOffset/>
<feGaussianBlur stdDeviation="5"/>
<feComposite in2="hardAlpha" operator="arithmetic" k2="-1" k3="1"/>
<feColorMatrix type="matrix" values="0 0 0 0 0 0 0 0 0 0 0 0 0 0 0 0 0 0 0.08 0"/>
<feBlend mode="normal" in2="shape" result="effect1_innerShadow_3538_18"/>
</filter>
<clipPath id="bgblur_0_3538_18_clip_path" transform="translate(12 12)"><rect x="2" y="2" width="150" height="66" rx="33"/>
</clipPath><filter id="filter2_i_3538_18" x="-3" y="-3.01172" width="78" height="76.0254" filterUnits="userSpaceOnUse" color-interpolation-filters="sRGB">
<feFlood flood-opacity="0" result="BackgroundImageFix"/>
<feBlend mode="normal" in="SourceGraphic" in2="BackgroundImageFix" result="shape"/>
<feColorMatrix in="SourceAlpha" type="matrix" values="0 0 0 0 0 0 0 0 0 0 0 0 0 0 0 0 0 0 127 0" result="hardAlpha"/>
<feOffset/>
<feGaussianBlur stdDeviation="7"/>
<feComposite in2="hardAlpha" operator="arithmetic" k2="-1" k3="1"/>
<feColorMatrix type="matrix" values="0 0 0 0 0 0 0 0 0 0 0 0 0 0 0 0 0 0 0.25 0"/>
<feBlend mode="normal" in2="shape" result="effect1_innerShadow_3538_18"/>
</filter>
<clipPath id="bgblur_1_3538_18_clip_path" transform="translate(3 3.01172)"><path d="M69 35.0006C69 52.6737 54.5 67.5 36 67.0006C17.5 67.5 3 52.6737 3 35.0006C3 17.3275 17.5 2.50003 36 3.0006C54.5 2.5 69 17.3275 69 35.0006Z"/>
</clipPath></defs>
</svg>
