<svg id="dornbirn-wort" xmlns="http://www.w3.org/2000/svg" viewBox="0 0 427.52 65.82" role="img" aria-label="Dornbirn">
  <style>
    #dornbirn-wort path, #dornbirn-wort rect { fill: #ffffff; stroke: none; shape-rendering: geometricPrecision; }
  </style>
  <rect x="294.99" width="11.55" height="51.83"/>
  <g>
    <path d="M155.02,64.75h-11.4l-5.85-17.03h-9.2v17.03h-10.11l-.23-.23V13.15l.52-.24c14.62.99,35.81-5.24,36.56,16.2.2,5.65-1.17,10.65-5.47,14.44-.37.33-1.95,1.28-1.95,1.64l7.11,19.56ZM128.57,38.46h9.65c.32,0,1.41-.35,1.79-.49,6.04-2.25,6.36-12.6.15-14.98-.3-.11-1.41-.49-1.64-.49h-9.95v15.96Z"/>
    <g>
      <path d="M0,65.67h74.93s-2.47-.35-2.47-.35c-13.04-2.11-15.53-12.49-15.92-24.06-.47-14.11,2.19-28.38,19.06-29.26,15.94-.83,21.8,9.06,22.43,23.64.47,10.85-.6,25.6-13.08,29.04l-5.17.99ZM75.81,21.63c-9.28.95-8.97,14.23-8.63,21.16.36,7.43,2.33,13.95,11.17,13.3,7.68-.57,8.55-7.35,8.89-13.6.47-8.49.63-22.09-11.43-20.86Z"/>
      <path d="M0,64.75V12.92l21.2.15c13.68,1.34,16.53,10.08,16.95,22.41.53,15.42-1.48,28.41-19.53,29.27-6.12.29-12.48-.23-18.62,0ZM10.33,55.18h7.98c3.22,0,6.3-2.35,7.55-5.22,1.97-4.52,2.17-17.9.35-22.45-1.14-2.85-4.16-5.02-7.29-5.02h-8.59v32.68Z"/>
    </g>
    <g>
      <path d="M193.93,12.92l13.1,40.79c.15.36.56.25.89.25V12.92h10.33v51.83h-16.57l-13.54-41.03-.9-.02v41.04h-10.33V12.92h17.02Z"/>
      <path d="M240.43,12.92h20.9c6.14.43,12.2,2.96,13.8,9.45.85,3.47.57,9.18-1.35,12.27-.99,1.6-2.35,2.45-3.71,3.66,3.21,1.23,5.17,3.54,5.98,6.87,2.64,10.94-3.47,19.26-14.71,19.59h-20.9V12.92ZM250.77,34.35h8.89c5.51,0,7.28-8.94,2.61-11.43-.3-.16-1.77-.73-2-.73h-9.5v12.16ZM250.77,55.48h9.65c5.12,0,7.31-7.44,3.57-10.72-.79-.69-2.69-1.59-3.73-1.59h-9.5v12.31Z"/>
    </g>
  </g>
  <g>
    <path d="M427.52,64.75l-16.55-.02-13.56-41.01-.9-.02v41.04h-10.33V12.92h17.02l13.1,40.79c.15.36.56.25.89.25V12.92h10.33v51.83Z"/>
    <path d="M329.04,12.92h21.06c12.51.36,17.44,9.56,15.68,21.16-.69,4.52-3.1,8.49-7.07,10.78l-.04.2,7.16,19.69h-11.4l-5.92-17.11-9.13.09v17.02h-10.33V12.92ZM339.37,38.46h9.65c6.6,0,8.98-11.78,2.76-15.07-.45-.24-2.04-.89-2.46-.89h-9.95v15.96Z"/>
  </g>
</svg>
