<?xml version="1.0" encoding="UTF-8"?>
<svg id="Ebene_1" data-name="Ebene 1" xmlns="http://www.w3.org/2000/svg" viewBox="0 0 564.91 222.03">
  <g>
    <path d="M318.15,187.33v33.38c-2.5,1.85-7.61,1.26-10.91,1.16-1.46-.04-7.84-.14-7.84-1.16v-104.25l1.12-1.12h15c.24,2.47-.21,10.52.38,11.25,1.35-.95,1.74-1.93,2.99-3.38,7.25-8.35,16.28-11.07,27.19-8.43,21.86,5.28,22.14,39.76,13.45,55.83-8.29,15.34-25.37,18.27-41.39,16.74ZM318.15,146.46c-.94,7.89.69,17.42,0,25.5,9.45,4.14,21.61,1.65,25.54-8.96,4.15-11.22,3.82-40.37-15.03-33.03-5.61,2.18-9.83,10.8-10.51,16.49Z"/>
    <path d="M238.65,187.33v33.38l-1.12,1.12h-15.75l-1.12-1.12v-104.25l1.12-1.12h15c.32,4.27.02,7.45.38,11.25,7.31-11.52,21.35-15.96,33.98-10.36,18.2,8.07,17.59,41.03,8.79,55.76-8.31,13.91-26.28,17.08-41.27,15.35ZM238.65,172.33c7.51,2.09,16.55,2.57,22.42-3.45,7.12-7.3,8.08-28.24,1.91-36.25-4.93-6.41-14.73-4.09-18.96,1.95-2.49,3.56-5.37,11.39-5.37,15.63v22.12Z"/>
    <path d="M542.03,115.33c.11,1.92-.29,10.9-.39,13.12l1.5.38c2.76-9.58,11.61-16.23,21.77-15l-.75,17.26c-9.56-1.13-15.79,2.73-18.38,11.99-.78,2.8-1.87,8.93-1.87,11.63v31.88h-18v-70.12l1.12-1.12h15Z"/>
    <path d="M107.99,164.99c9.78-.76,15.97,11.24,9.9,18.96-9.39,11.97-27.91-2.31-17.63-14.63,1.99-2.38,4.53-4.09,7.72-4.34Z"/>
    <path d="M508.65,186.58h-17.25l.74-11.25c-5.46,6.83-11.39,11.97-20.58,12.78-25.79,2.28-30.54-27.69-10.34-38.83,8.98-4.96,18.69-5.13,28.6-6.28,2.94-22.28-22.54-15.04-35.17-10.42l-1.2-14.29c17.96-6.32,52.4-10.31,54.47,16.14,1.35,17.22-1.53,34.95.72,52.15ZM489.91,155.08c-7.02-.2-21.45.61-23.65,8.98s4.2,10.67,11.21,9.71c7.95-1.09,13.41-11.14,12.44-18.68Z"/>
    <path d="M437.4,153.58h-43.12l-.81,1.53c-.61,22.19,25.25,21.91,39.82,14.24,1.37.08,2.14,11.81,1.77,13.76-.61,1.81-14.98,4.63-17.61,4.88-23.77,2.29-40.37-6.84-42.27-31.8-1.65-21.67,8.92-41.89,32.58-42.4,23.41-.51,33.18,18.61,29.66,39.79ZM420.15,141.58c.8-19.87-25.59-18.81-26.25,0h26.25Z"/>
    <path d="M203.4,186.58h-17.25l.74-11.25c-5.51,8.59-15.52,13.86-25.87,12.75-19.83-2.11-23.24-25.08-8.55-36.31,9.29-7.1,20.95-7.61,32.1-8.77,3.1-22.42-22.55-15.03-35.16-10.42l-1.2-14.29c18.03-6.26,52.39-10.45,54.47,16.14.99,12.64.36,26.28.75,39,.13,4.37-.16,8.79-.03,13.16ZM184.66,155.08c-7.84-.61-26.04,1.62-23.85,12.95,1.17,6.04,6.88,6.51,12.04,5.63,7.43-1.27,13.29-11.26,11.81-18.57Z"/>
  </g>
  <g>
    <path d="M61.65,115.33v58.5l11.33,1.8.67,10.95H30.9l.67-10.95,11.75-2.5.36-43.05-12.45-2.7-.25-10.47c10.03-2.43,20.42-1.37,30.67-1.58Z"/>
    <g>
      <path d="M99.39,49.7c0,27.45-22.25,49.7-49.7,49.7S0,77.14,0,49.7,22.25,0,49.7,0s49.7,22.25,49.7,49.7ZM81.43,49.65c0-17.53-14.21-31.75-31.75-31.75s-31.75,14.21-31.75,31.75,14.21,31.75,31.75,31.75,31.75-14.21,31.75-31.75Z"/>
      <circle cx="49.73" cy="49.64" r="11.61"/>
    </g>
  </g>
</svg>