<svg id="vorarlberg-final" xmlns="http://www.w3.org/2000/svg" viewBox="0 0 148.57 63.47" style="display: block; width: 100%; height: auto;">
  <style>
    /* Killt den grauen Rand und alle Konturen radikal */
    #vorarlberg-final path, 
    #vorarlberg-final polygon {
      stroke: none !important;
      stroke-width: 0 !important;
      shape-rendering: geometricPrecision;
    }
    .w { fill: #ffffff !important; } /* Weiß */
    .b { fill: #000000 !important; } /* Schwarz */
  </style>
  
  <path class="w" d="M31.92,31.73H.81s0-30.97,0-30.97h31.1s0,30.97,0,30.97Z"></path>
  
  <path class="b" d="M20.9,8.31l-4.45,11.53-4.42-11.58-4.04.02,6.66,16.71h3.5s6.75-16.71,6.75-16.71c-1.51-.03-2.7-.03-3.99.03Z"></path>
  
  <polygon class="w" points="20.86 55.75 16.41 43.98 11.98 55.65 8 55.64 14.73 38.94 18.22 38.91 24.84 55.61 20.86 55.75"></polygon>
  
  <path class="w" d="M51.43,24.07c-3.33,2.21-7.53,2.16-10.78.01-4.53-2.99-5.1-9.56-1.18-13.32,3.59-3.44,9.35-3.48,13.01-.12,4.01,3.7,3.57,10.35-1.05,13.42ZM44.21,22.31c2.61.91,5.2-.11,6.62-2.26s1.2-5.01-.45-6.87c-1.75-1.97-4.54-2.52-6.93-1.33-2.14,1.07-3.37,3.24-3.14,5.62.21,2.13,1.65,4.05,3.91,4.84Z"></path> <path class="w" d="M73.87,25.56l-3.79.08-3.06-5.1-4.35.03-.02,5.04h-3.36s0-17.34,0-17.34h7.61c1.86,0,3.61.64,4.99,1.81,1.22,1.22,1.58,2.84,1.53,4.53-.07,2.28-1.21,4.28-3.32,5.23l3.78,5.72ZM69.41,16.45c1.02-1.12,1.06-2.92.14-4.03-.6-.73-1.73-1.08-2.65-1.09h-4.25s.02,6.13.02,6.13l4.24-.04c.81,0,1.9-.33,2.5-.98Z"></path> <path class="w" d="M53.65,55.52l-3.8.06-3.08-5.08h-4.34s-.03,5.04-.03,5.04h-3.35s0-17.35,0-17.35l7.57.02c1.83,0,3.56.59,4.91,1.74,1.3,1.25,1.71,2.94,1.64,4.71-.1,2.26-1.26,4.16-3.31,5.12l3.79,5.73ZM49.23,46.32c.97-1.11.98-2.89.1-3.96-.66-.8-1.86-1.11-2.87-1.1l-4.05.03v6.12s4.05-.03,4.05-.03c.94,0,2.09-.28,2.76-1.05Z"></path> <polygon class="w" points="69.93 52.47 69.94 55.56 59.3 55.57 59.3 38.22 62.66 38.2 62.67 52.46 69.93 52.47"></polygon> <path class="w" d="M89.13,50.17c.38,3.9-3.15,5.39-6.3,5.39h-7.82s0-17.37,0-17.37h8.01c.91,0,1.89.29,2.73.53,1.57.66,2.59,1.92,2.72,3.47.14,1.7-.5,3.24-2.19,4.15,1.67.73,2.66,2,2.84,3.82ZM85.06,43c-.13-2.57-4.68-1.53-6.67-1.75l.02,3.89c2.33-.21,6.8.89,6.65-2.14ZM85.71,50.21c-.2-2.83-5.24-1.82-7.32-1.97v4.25c2.02-.11,7.53.83,7.32-2.27Z"></path> <polygon class="w" points="106.45 48.36 98.23 48.4 98.24 52.46 107.69 52.47 107.69 55.56 94.86 55.57 94.86 38.2 107.39 38.2 107.4 41.25 98.24 41.25 98.24 45.28 106.42 45.29 106.45 48.36"></polygon> <path class="w" d="M128.16,55.52l-3.8.05-3.06-5.07h-4.35s-.02,5.06-.02,5.06l-3.36-.02v-17.35s7.66.03,7.66.03c1.91,0,3.71.68,5.05,1.96,2.39,2.67,1.83,8-1.9,9.61l3.79,5.74ZM124.47,44.25c.01-3.95-5.05-2.84-7.54-2.99v6.12c2.58-.14,7.53.96,7.54-3.13Z"></path> <path class="w" d="M145.36,51.68v-4.84s3.04-.02,3.04-.02v6.71c-2.76,2.01-6.4,2.88-9.72,1.88s-5.58-3.68-6.14-6.73c-.66-3.54.7-6.93,3.66-8.9,3.85-2.56,8.89-2.1,12.39.94l-1.95,2.51c-1.88-1.69-4.22-2.42-6.57-1.78-2.52.68-4.21,2.87-4.26,5.37s1.5,4.74,3.97,5.6c1.83.64,3.8.25,5.6-.74Z"></path> </svg>