<svg id="i-appear-kranz-v4" xmlns="http://www.w3.org/2000/svg" viewBox="-10 -10 822 685.8" style="width:100%; height:auto; display:block; fill:none; 
            stroke:#FFFFFF; 
            stroke-width:2px; 
            shape-rendering: geometricPrecision;
            opacity: 0.4;"><title>Lorbeerkranz mit Auszeichnungen: Smart city preis dornbirn, Innovation Call Vorarlberg, Innovation im Tourismus, 2025</title>
  <desc>Animierter Lorbeerkranz, der die gewonnenen Preise der i.appear App zeigt.</desc> <g>
        <path d="M800.3,348.1c-.5-.4-1.2-.5-1.8-.4-.7.2-1.3.4-1.9.6h-.3c-1.5.5-2.8.9-4,1.4-20.1,8-36,21.7-48.4,41.9-3.1,5-5.5,10.2-7.4,15.3,3.1-17.4,3.8-24.2,4.4-43.6,0-.8,0-1.6,0-2.5,0-2.2,0-4.4.5-6.3.6-2.3,1.8-4.6,2.9-6.8.3-.6.6-1.3.9-1.8,0-.1.4-.3.5-.3,5.8-.9,10.8-3.3,15.6-7.5,4.8-4.2,8.7-9.3,11.6-15.3,10.6-21.3,15.9-44.8,15.8-69.9,0-2.4-.3-4.8-.6-7.3-.1-1.1-.3-2.3-.4-3.5,0-.7-.5-1.3-1.1-1.6-.6-.3-1.3-.3-1.9,0-.4.2-.7.4-.9.6-.5.3-1,.6-1.3.9-9.1,6.5-17,14.6-23.7,24-10.9,15.4-17.3,32.9-19,52.1-.2-2.1-.3-4.3-.5-6.4v-.8c-.7-8.4-1.4-17.1-2-25.6-.1-2.2-.6-4.3-1-6.3-.8-3.9-1.5-7.6-.3-11.5.3-.9.5-1.8.7-2.6.6-2.2,3.2-5.5,7.3-9.2h.2c1.5-1.4,9.3-8.5,13.7-22.6,4.5-14.3,4.1-29.2,3.9-40.1v-.3c-.3-15-2-26.3-5.3-36.6-.4-1.3-.9-2.6-1.5-4-.3-.7-.6-1.5-.9-2.2-.2-.7-.8-1.1-1.5-1.2h-.3c-.6,0-1.1.2-1.5.7l-3.2,3.9c-15.4,18.8-23,40.8-22.5,65.4,0,4.3.4,8.8,1,13.4-3.9-13.5-8.5-26.6-13.7-39.3-.1-.3-.2-.6-.2-.9v-1.7c0-2.5-.1-5.1,0-7.6,0-.4.3-1.2.9-1.9.8-1.1,1.7-2.1,2.6-3.2,1.6-1.8,3.2-3.7,4.5-5.9,4.2-7,6.1-15.2,6.1-25.9,0-12.6-1.9-25.9-6.1-41.7-2.3-8.7-5.8-19.9-12.3-30.1-.4-.7-.9-1.3-1.5-2-.2-.3-.5-.6-.7-1-.4-.5-.9-.8-1.7-.8-.7,0-1.2.4-1.6,1-8.2,14.7-12.2,30.5-12.4,48.1-.2,14.7,2.1,27.4,5,37.4-7.3-13.4-15.5-26.3-24.3-38.6l-.2-.3c-.2-.3-.3-.4-.3-.3-.6-4-.9-7.2-1.2-9.9,0,0,0-.3.5-1,.6-1,1.2-2,1.9-3,1.4-2.1,2.8-4.2,3.7-6.6,2.7-7.3,3.3-15.5,1.9-25.1-3.2-21.4-12.6-40.6-28.8-58.8-1.7-1.9-3.5-3.5-5.4-5.3l-.5-.5c-.8-.7-1.5-1.4-2.3-2.1-.5-.5-1.2-.7-1.9-.5-.7.2-1.2.8-1.3,1.4l-.4,1.5c-.2,1-.4,1.8-.6,2.7-2.2,13-2,26.9.5,42.5,2.5,15.5,7.4,28.8,15,40.5-11.4-13.4-22.5-24.7-34-34.7,0,0-.1-.3-.1-.3.9-7.8-1-15.1-5.9-22.4-6.4-9.6-15.3-16.9-26.4-21.8-6.6-2.9-13.5-5.4-20.3-7.9-3.2-1.2-6.5-2.4-9.8-3.7-3.3-1.3-4.8-1.6-5.5-.8-1,.9-.8,1.7-.3,3.2v.5c4.2,13.7,9.6,24.6,16.7,33.2,13,15.8,28.1,23.9,46.3,24.6.6,0,1.1.2,1.3.4,2.6,1.9,4.4,3.5,6.1,5,5.3,4.8,10.5,9.9,15.5,15.4-7.6-4.7-16.8-6.8-27.2-6.3-5.7.3-11.3,1.1-16.8,1.9h-.2c-1.6.3-3.2.5-4.8.7-3.5.5-7,1.1-10.2,1.6-1.3.2-4.3.9-5,2.4-.2.5-.2,1.1,0,1.6.2.4.5.8.8,1.2,9,11.7,19.3,19.4,31.4,23.6,14.8,5.1,28.4,4.7,40.6-1.3,1.9-1,4.1-1.6,6.7-1.6s3.4.3,3.9.4c.7.1,1.7.5,1.9.8,7.6,10,14.8,20.7,21.5,31.9-5.7-5.5-13.1-9.3-23.2-11.7-8.9-2.1-17.9-2.6-26.7-3h-2.9c-2.7-.3-5.5-.5-8.3-.6l-4.7-.3c-.6,0-1.2.3-1.6.8-.4.5-.5,1.2-.3,1.8.2.5.5,1.4.7,1.7,9.2,15.5,20.1,26.1,33.2,32.7,12.8,6.4,24.3,8.1,36,5.3,1.3-.3,2.9-.5,4.5-.5,5,0,8.4,1.5,9.1,2.9,6.4,13.2,12.1,27,17.1,41-5.2-7.1-12.4-12.9-21.6-17.3-9.1-4.3-18.6-8.2-27.9-12.1-4-1.7-8-3.3-12-5-.6-.3-1.3-.2-1.9.2-.5.4-.9,1-.9,1.6,0,1.3,13.3,38.1,32.6,52.7,7.9,5.9,17.6,12,29.8,12.3,3.7,0,7.4.6,10.3,3.8.4.5,1,.9,1.6,1.1,1,.3,1.2.9,1.7,3,4,16.6,6.8,33.8,8.6,51.2-.5-1.8-1.2-3.6-1.9-5.4-4.3-11-11.6-20.5-22.9-30.2-5.8-5-11.9-9.8-17.8-14.5l-.3-.2c-2.7-2.1-5.4-4.2-8-6.4-.6-.4-1.1-.9-1.7-1.4l-1.7-1.4c-.6-.5-1.5-.6-2.1-.3-.7.4-1.1,1.1-1.1,1.9,0,1.2.1,2.3.2,3.4v.5c.2,2.2.3,4.3.5,6.3,2.1,20,8,36.6,18.1,50.9,6.3,8.8,15.2,19.7,29.3,24.8,3.4,1.3,5.9,3.1,8.5,6.5,2.5,3.2,3,6.1,2.9,9.8-.2,15.3-1.3,30.6-3.3,45.5-.5-4.1-1.4-8.4-2.9-12.9-3-9.2-7.8-18.1-14.5-27.3-5.8-8-11.8-15.9-17.6-23.7l-.4-.5c-2.3-3.1-4.6-6.1-6.9-9.1-.4-.6-1-.8-1.4-1-.5-.2-1.1-.3-1.6,0-.5.2-.9.7-1.1,1.2v.2c-.2.3-.2.5-.3.8-4,23.9-1.6,45.3,7.5,65.5,4.4,9.9,10.4,21,20.8,29.1,4.8,3.7,8.6,8.8,10.6,14.5.4,1.2.4,1.8.4,2-4.4,18.4-10.2,36.1-17.3,52.8,1.8-8.8,1.7-18.1-.4-27.7-2.9-13.6-8-26.8-12.5-38.1l-1.3-3.4c-2.1-5.3-4.2-10.6-6.4-16.2-.3-.7-1-1.2-1.8-1.2-.7,0-1.4.4-1.7,1.1l-.7,1.3c-.3.6-.6,1.1-.9,1.7-9.1,20.4-12.1,41.4-9.1,62.3,2.2,14.9,5.8,25.6,11.9,34.7,3.1,4.7,6.1,9.9,6.7,16.3.1,1.5,0,2.6-.6,3.7-7.6,13.4-16.2,26-25.6,37.8,0,0,0-.1.1-.2,6.8-12.3,7-25.7,6.3-37.1-.6-9.8-1.7-19.6-2.8-29v-.5c-.5-3.8-.9-7.6-1.3-11.4-.2-2.2-.5-4.3-.7-6.5l-.3-3c0-.7-.5-1.2-1-1.5-1.1-.6-2.8.3-4.7,2.5-12.8,15.2-20.8,32.3-23.6,50.9-3,19.3-1.4,35.8,4.9,50.5.2.4.2,1.2.2,1.5l-.3,8.4c0,.6-.4,1.3-.6,1.5-12.8,12.3-26.9,23-42,32,7.2-6.5,12.3-14.9,15.6-25.6,3.7-11.9,5.6-24.2,7.4-36.2l.2-1.1c.7-4.2,1.3-8.4,2-12.7l.8-4.8c.1-.7-.2-1.4-.7-1.8-.5-.4-1.3-.5-2-.3l-.7.3c-.7.3-1.4.6-2,.9-28.6,14.3-47.4,47.6-44.7,79.2.4,4.9,0,9.6-1.4,14.2-.1.4-.5.9-.7,1-13.6,5.7-26.5,9.9-39.5,12.8-.7.2-1.2.6-1.4,1.3-.2.6,0,1.4.4,1.9,1.4,1.7,2.6,3.5,3.7,5.4.4.8,1.4,1.2,2.1,1,10.6-2.4,20.9-5.5,30.6-9.3.8-.3,1.4-.5,2-.4,2.2.3,4.5.7,7,1.4.5.1,1,.4,1,.3,5.6,11.1,15.1,18.1,29.2,21.6,3.1.7,6.2,1.3,9.4,1.6,3.3.4,7,.5,11,.5s9.4-.3,9.5-.3c12.2-1.4,22.7-4.1,31.9-8.4,3.8-1.8,8.1-4.1,11.4-8.4.6-.8.5-2-.2-2.7-9.4-8.3-19-14.3-29.2-18.4-15.2-6.1-29.1-7.7-42.7-5.1-2,.4-4,.9-5.9,1.5,12.7-7.6,24.9-16.5,36.4-26.7.2-.2.6-.4.9-.4,1.9-.3,4.4-.7,6.9-.9.2,0,.5.1.6.1,6.9,7.8,15.9,11.5,27.3,11.5s1.2,0,1.8,0c12.4-.4,25-3.8,37.2-10.2,8.9-4.6,18.2-10,25.7-18.1,1.7-1.8,3.2-3.8,4.5-5.6v-.2c.7-.8,1.3-1.6,1.9-2.4.3-.4.5-1,.4-1.5,0-.5-.4-1-.9-1.3-.1,0-3.3-1.8-6.2-2.9-19.5-7.5-39.1-8.3-57.8-2.2-6.1,2-11.9,4.9-17.5,9,10.4-12.1,20-25.3,28.8-39.6,0-.2.3-.6.4-.6.8-.5,1.5-.9,2.3-1.4,1.4-.8,2.8-1.7,4.2-2.7,1.1-.9,1.5-.9,2.6-.1,1.6,1.1,3.5,1.6,5.2,2.1,9.7,2.5,19.5,1.2,30.4-3.8,9.9-4.6,17.5-12,24.3-19.2,9.8-10.6,16.3-20.1,20.2-30,.8-2.1,1.4-4.2,2-6.5.3-.9.5-1.9.8-2.8.3-1-.2-2-1.2-2.4h-.8c-4,0-39.8.5-60.7,20.8-4.5,4.4-8.6,9.1-12.4,14.2,8.3-17.5,15.3-36,20.9-55.2v-.3c.2-.2.3-.6.3-.7l5.5-7.5c.2-.3.2-.3.5-.3s.3,0,.5,0h1.2c4.1.3,6.5.3,8.4,0,7.8-1.2,14.8-5.2,21.5-12,15.6-16,26.3-36,32.8-61,.7-2.7.9-5.4,1.1-8.3,0-1.3.2-2.6.3-4,0-.7-.2-1.3-.7-1.7Z"></path>
        <path d="M270.9,639.5c-13-2.9-25.9-7-39.5-12.8-.2,0-.6-.5-.7-.9-1.4-4.6-1.8-9.3-1.4-14.2,2.7-31.6-16.2-64.9-44.7-79.2-.6-.3-1.2-.6-2-.9l-.7-.3c-.6-.3-1.4-.2-1.9.3-.6.4-.8,1.1-.7,1.8l.8,4.8c.7,4.3,1.4,8.5,2,12.7l.2,1.1c1.8,11.9,3.7,24.3,7.4,36.1,3.3,10.7,8.5,19.1,15.6,25.6-15.1-8.9-29.2-19.6-42-32-.3-.3-.6-.9-.6-1.5l-.3-8.5c0-.3,0-1.1.2-1.5,6.3-14.7,7.9-31.2,4.9-50.5-2.9-18.6-10.8-35.8-23.6-50.9-1.5-1.8-2.8-2.7-3.9-2.7s-.5,0-.7.2c-.6.3-1,0.9-1.1,1.5l-.3,2.9c-.3,2.2-.5,4.3-.7,6.5-.4,3.8-.8,7.6-1.3,11.4v.5c-1.1,9.5-2.3,19.2-2.9,29-.7,11.4-.5,24.8,6.3,37.1,0,0,0,.1.1.2-9.4-11.7-18-24.4-25.6-37.8-.7-1.2-.7-2.2-.6-3.8.5-6.4,3.5-11.6,6.7-16.3,6.1-9,9.7-19.7,11.9-34.7,3-20.9,0-41.8-9.1-62.3-.2-.6-.5-1.1-.9-1.7l-.7-1.3c-.3-.7-1.1-1.1-1.8-1-.8,0-1.4.5-1.7,1.2-2.2,5.5-4.3,10.9-6.4,16.2l-1.3,3.4c-4.5,11.3-9.6,24.5-12.5,38.1-2.1,9.6-2.2,18.9-.4,27.7-7-16.8-12.8-34.5-17.3-52.8,0-.2,0-.7.4-2,2.1-5.7,5.8-10.8,10.6-14.5,10.5-8,16.4-19.2,20.8-29.1,9.1-20.2,11.5-41.6,7.5-65.5,0-.3-.1-.5-.2-.8v-.2c-.2-.5-.6-1-1.2-1.2-.5-.2-1.2-.2-1.6,0-.4.1-1,.4-1.4.9-2.3,3-4.6,6.1-6.9,9.1l-.4.5c-5.8,7.7-11.8,15.7-17.6,23.7-6.7,9.2-11.4,18.1-14.5,27.3-1.5,4.4-2.4,8.7-2.9,12.9-1.9-14.9-3-30.1-3.3-45.5,0-3.7.4-6.6,2.9-9.8,2.6-3.4,5.1-5.3,8.5-6.5,14-5.1,23-15.9,29.3-24.8,10.1-14.3,16-31,18.1-50.9.2-2.1.3-4.1.5-6.3v-.5c0-1.1.2-2.2.2-3.4,0-.8-.4-1.5-1.1-1.9-.7-.3-1.5-.2-2.1.3l-1.7,1.4c-.6.5-1.2,1-1.7,1.4-2.7,2.1-5.3,4.3-8,6.4l-.3.2c-5.9,4.7-12,9.5-17.8,14.5-11.3,9.6-18.6,19.2-22.9,30.2-.7,1.8-1.3,3.6-1.9,5.4,1.8-17.4,4.7-34.6,8.6-51.2.5-2,.7-2.6,1.7-3,.6-.2,1.2-.6,1.6-1.1,2.9-3.3,6.7-3.8,10.3-3.9,12.2-.3,21.9-6.4,29.8-12.3,19.3-14.5,32.6-51.4,32.6-52.7s-.3-1.3-.9-1.6c-.5-.4-1.3-.4-1.8-.2-4,1.7-8,3.4-12.2,5.1-9.2,3.8-18.6,7.7-27.7,12-9.2,4.3-16.4,10.1-21.6,17.3,4.9-14,10.6-27.7,17-40.9.7-1.4,4.2-2.9,9.1-2.9s3.2.2,4.5.5c11.6,2.8,23.2,1.1,36-5.3,13.1-6.5,23.9-17.2,33.2-32.7.2-.3.5-1.2.7-1.7.2-.6.1-1.3-.2-1.8-.4-.5-.9-.8-1.7-.8h0l-4.6.3c-2.8.2-5.6.4-8.3.5h-2.9c-8.8.6-17.8,1-26.7,3.2-10.1,2.4-17.5,6.2-23.2,11.7,6.7-11.2,13.9-21.9,21.5-31.9.2-.3,1.2-.7,2-.8.4,0,1.9-.4,3.8-.4s4.8.5,6.7,1.6c12.1,5.9,25.8,6.4,40.6,1.3,12.1-4.1,22.4-11.9,31.4-23.6.3-.4.6-.8.8-1.2.3-.5.3-1,0-1.6-.7-1.5-3.7-2.2-5-2.4-3.1-.5-6.7-1.2-10.2-1.6-1.6-.2-3.2-.5-4.8-.7h-.2c-5.5-.8-11.1-1.7-16.8-2-10.4-.5-19.6,1.6-27.2,6.3,5.1-5.4,10.3-10.5,15.5-15.4,1.7-1.5,3.6-3.1,6.1-5,.2-.2.7-.3,1.3-.4,18.2-.7,33.4-8.7,46.3-24.6,7.1-8.6,12.5-19.5,16.5-33.2v-.5c.6-1.4.8-2.2-.2-3.2-.8-.7-2.1-.5-5.7.9-3.2,1.2-6.4,2.4-9.8,3.7-6.7,2.5-13.5,5-20.2,7.9-11.1,4.8-20,12.1-26.4,21.8-4.9,7.3-6.8,14.6-5.9,22.4,0,0,0,.3,0,.3-11.6,10-22.7,21.3-34.1,34.7,7.6-11.6,12.5-25,15-40.5,2.5-15.6,2.7-29.5.5-42.5-.1-.8-.3-1.6-.6-2.6l-.4-1.6c-.2-.7-.7-1.2-1.3-1.4-.7-.2-1.4,0-1.9.4-.8.7-1.6,1.5-2.3,2.1l-.5.5c-1.9,1.8-3.8,3.4-5.4,5.3-16.2,18.2-25.6,37.5-28.8,58.8-1.5,9.7-.9,17.9,1.9,25.1.9,2.4,2.3,4.5,3.7,6.7.6,1,1.3,1.9,1.9,3,.4.7.5.9.5.9-.3,2.9-.6,6-1.2,9.9,0,0,0,.2-.3.5l-.2.3c-8.8,12.3-17,25.2-24.3,38.6,2.9-10,5.2-22.7,5-37.4-.2-17.7-4.3-33.4-12.4-48.1-.3-.6-.9-.9-1.7-1-.6,0-1.2.3-1.5.8-.2.3-.5.7-.7,1-.5.7-1,1.3-1.5,2-6.5,10.2-10,21.4-12.3,30.1-4.2,15.9-6.2,29.1-6.1,41.7,0,10.7,2,18.9,6.1,25.9,1.3,2.2,2.9,4.1,4.6,6,.9,1,1.8,2.1,2.6,3.1.6.7.8,1.5.9,1.9.1,2.5,0,5.1,0,7.6v1.7c0,.3-.1.6-.2.9-5.2,12.7-9.8,25.8-13.7,39.3.6-4.6.9-9,1-13.4.5-24.7-7.1-46.7-22.5-65.4l-3.2-3.9c-.4-.5-.9-.7-1.5-.7h-.3c-.7.1-1.3.6-1.5,1.3-.3.8-.6,1.5-.9,2.2-.5,1.4-1,2.7-1.5,4-3.3,10.3-4.9,21.6-5.3,36.6v.3c-.3,10.9-.6,25.8,3.9,40.1,4.4,14.1,12.2,21.2,13.7,22.5h.2c4.1,3.8,6.8,7.2,7.3,9.3.2.9.4,1.8.7,2.6,1.2,3.9.4,7.6-.4,11.5-.4,2-.8,4.1-.9,6.2-.6,8.5-1.3,17.2-1.9,25.6v.8c-.2,2.1-.4,4.3-.6,6.4-1.7-19.2-8.1-36.6-19-52.1-6.7-9.4-14.7-17.5-23.7-24-.4-.3-.8-.5-1.4-.9-.3-.2-.6-.3-1-.6-.6-.3-1.3-.4-1.9,0-.6.3-1,.9-1.1,1.6-.1,1.2-.3,2.4-.4,3.6-.3,2.5-.6,4.9-.6,7.3-.1,25.1,5.2,48.6,15.8,69.9,3,5.9,6.9,11.1,11.6,15.3,4.7,4.1,9.8,6.6,15.5,7.5.1,0,.4.2.5.2.3.6.6,1.2,1,1.9,1.1,2.2,2.3,4.5,2.9,6.8.5,1.9.5,4.1.5,6.3s0,1.7,0,2.5c.6,19.5,1.3,26.2,4.4,43.6-1.9-5.2-4.3-10.3-7.4-15.3-12.5-20.2-28.3-33.9-48.4-41.9-1.3-.5-2.6-.9-4.1-1.3h-.3c-.6-.3-1.2-.5-1.9-.7-.6-.2-1.3,0-1.8.4-.5.4-.8,1.1-.7,1.7.1,1.4.3,2.7.3,4,.2,2.9.4,5.6,1.1,8.3,6.5,25.1,17.2,45,32.8,61,6.7,6.8,13.7,10.8,21.5,12,2,.3,4.4.3,8.4,0h1.2c.2,0,.3,0,.5,0,.3,0,.3,0,.6.3l5.4,7.5c0,0,.2.5.2.7v.3c5.7,19.2,12.8,37.6,21,55.2-3.7-5.1-7.8-9.8-12.4-14.2-20.9-20.3-56.7-20.9-60.7-20.9h-.5s-.3,0-.3,0c-1,.3-1.5,1.4-1.2,2.4.3.9.5,1.9.8,3,.6,2.1,1.2,4.2,2,6.3,4,9.9,10.4,19.4,20.2,30,6.8,7.2,14.4,14.6,24.3,19.2,10.8,5.1,20.6,6.3,30.4,3.8,1.7-.4,3.6-1,5.2-2,1.2-.7,1.5-.7,2.6.1,1.4,1,2.8,1.9,4.2,2.7.8.5,1.6.9,2.3,1.4.1,0,.4.5.5.7,8.7,14.3,18.4,27.5,28.8,39.6-5.6-4.1-11.4-7.1-17.5-9-18.7-6-38.4-5.3-57.8,2.3-2.9,1.1-6.1,2.8-6.3,2.9-.4.3-.8.8-.8,1.3,0,.5,0,1.1.4,1.5.6.8,1.2,1.6,1.8,2.4v.2c1.4,1.8,2.9,3.8,4.6,5.6,7.5,8.1,16.8,13.5,25.7,18.1,12.2,6.3,24.7,9.8,37.2,10.2.6,0,1.2,0,1.8,0,11.4,0,20.4-3.8,27.3-11.5,0,0,.4-.2.5-.2,2.6.2,5.1.6,7,.9.3,0,.7.2.9.4,11.5,10.2,23.7,19.1,36.4,26.7-1.9-.6-3.9-1.1-5.9-1.5-13.6-2.6-27.5-1-42.7,5.1-10.3,4.1-19.8,10.1-29.2,18.4-.8.7-.9,1.8-.2,2.7,3.3,4.2,7.6,6.6,11.4,8.4,9.2,4.3,19.7,7,31.9,8.4,0,0,4,.3,9.5.3s7.7-.2,11-.5c3.2-.3,6.3-.9,9.4-1.6,14.1-3.4,23.7-10.5,29.1-21.4,0,0,.5-.3,1.1-.5,2.5-.6,4.8-1.1,7-1.4.5,0,1.2,0,2,.4,9.7,3.8,20,6.9,30.6,9.3.1,0,.3,0,.5,0,.7,0,1.4-.4,1.7-1,1-1.9,2.2-3.7,3.7-5.4.4-.5.6-1.2.4-1.9-.2-.6-.7-1.1-1.4-1.3Z"></path>
    </g>
</svg>