<svg xmlns="http://www.w3.org/2000/svg" viewBox="0 0 49.68 93.27" width="100%" height="100%">
  <defs>
    <style>
      .iappear-logo {
        fill: #ffffff;
        
        /* SKALIERUNG: Ändere die Zahl bei scale (z.B. 0.5 für halb so groß, 1.2 für größer) */
        transform: scale(1); 
        
        /* Sorgt dafür, dass von der Mitte aus skaliert wird */
        transform-origin: center;
        transform-box: fill-box;
      }
    </style>
  </defs>
  <g class="iappear-logo">
    <path d="M30.82,57.65v29.24l5.66.9.34,5.47H15.45l.34-5.47,5.87-1.25.18-21.52-6.23-1.35-.12-5.23c5.01-1.22,10.21-.68,15.33-.79Z"></path>
    <g>
      <path d="M49.68,24.84c0,13.72-11.12,24.84-24.84,24.84S0,38.56,0,24.84,11.12,0,24.84,0s24.84,11.12,24.84,24.84ZM40.7,24.82c0-8.76-7.11-15.87-15.87-15.87s-15.87,7.11-15.87,15.87,7.11,15.87,15.87,15.87,15.87-7.11,15.87-15.87Z"></path>
      <circle cx="24.86" cy="24.81" r="5.8"></circle>
    </g>
  </g>
</svg>