<?xml version="1.0" encoding="UTF-8"?>
<svg id="Ebene_1" data-name="Ebene 1" xmlns="http://www.w3.org/2000/svg" xmlns:xlink="http://www.w3.org/1999/xlink" viewBox="0 0 395.82 86.93">
  <defs>
    <clipPath id="clippath">
      <polygon points="-18.01 -16.75 414.83 -16.75 414.83 99.05 -18.01 99.05 -18.01 -16.75 -18.01 -16.75" clip-rule="evenodd" fill="none"/>
    </clipPath>
  </defs>
  <g clip-path="url(#clippath)">
    <g>
      <polygon points="27.5 7.08 2.69 7.09 0 1.17 27.48 1.16 27.5 7.08"/>
      <polygon points="27.5 18.87 8.18 18.88 5.47 12.97 27.49 12.95 27.5 18.87"/>
      <path d="M58.41,13.34c.26,2.83-1.64,5.15-4.46,5.4-2.19.2-4.38.12-6.7.1V1.37c3.61.08,8.68-.83,9.95,3.05.64,1.95.24,3.85-1.49,5.14,1.56.69,2.53,1.92,2.7,3.79ZM52.75,8.85c1.69-.03,2.63-1.41,2.6-2.77s-1.06-2.63-2.65-2.65l-3.33-.04v5.51s3.38-.06,3.38-.06ZM53.62,16.75c1.83-.14,2.79-1.64,2.68-3.17-.1-1.36-1.22-2.63-2.85-2.65l-4.07-.05v5.93c1.38.03,2.76.06,4.24-.06Z"/>
      <path d="M263.49,18.84l-.06-7.65c0-1.29-1.1-2.14-2.19-2.2-.82-.05-2.49.58-2.57,1.79-.2,2.69-.1,5.26-.14,8.04l-2.1.02V7.38s1.85-.11,1.85-.11l.26,1.36c.9-1.2,2.07-1.71,3.42-1.62s2.41.71,3.26,1.98c1.01-1.7,2.82-2.3,4.61-1.84s2.8,2.1,2.8,4.05v7.62s-2.12,0-2.12,0v-7.26c0-1.34-.86-2.38-2.03-2.54-.9-.12-2.68.49-2.77,1.78-.19,2.66-.1,5.11-.12,8.01l-2.1.05Z"/>
      <path d="M100.25,17.49c-1.92,2.09-5.16,2.27-7.38.23-2.6-2.4-2.67-6.69-.12-9.16,2.07-2.01,5.07-2.14,7.42-.07l.07-8.49,2.11.04v18.68s-1.85.17-1.85.17l-.24-1.4ZM100.12,14.85c.17-1.25.18-2.81-.01-3.8-.69-1.84-2.91-2.39-4.52-1.86s-2.6,2.18-2.56,3.99c.04,1.91,1.15,3.53,2.94,3.91,1.48.31,3.89-.34,4.15-2.24Z"/>
      <path d="M142.14,18.84l-.08-7.79c-.01-1.26-1.22-2.03-2.27-2.06-.81-.02-2.43.65-2.5,1.82-.15,2.67-.09,5.08-.11,7.99h-2.11s0-11.42,0-11.42l1.88-.11.2,1.33c.86-1.03,2.03-1.69,3.4-1.6s2.51.72,3.3,2c1.07-1.72,2.81-2.28,4.55-1.87s2.89,2.09,2.89,4.07v7.6s-2.1.05-2.1.05l-.06-7.64c-.01-1.27-1.03-2.1-2.12-2.21-.87-.09-2.64.56-2.66,1.8l-.11,7.99-2.1.05Z"/>
      <path d="M218.32,15.53l1.29,1.35c-1.86,2.24-4.82,2.82-7.32,1.75-2.64-1.14-3.9-4.03-3.36-6.92.61-3.22,3.49-5.1,6.56-4.65s5.07,3.39,4.66,6.78l-9.28.02c.27,1.8,1.58,2.86,3.03,3.2,1.69.4,3.18-.25,4.42-1.54ZM218.14,12.03c-.42-2.28-2.04-3.1-3.83-3.03-1.59.06-3.16,1.19-3.29,3.07l7.12-.04Z"/>
      <path d="M115.99,15.69c.52.03,1.17.71,1.42,1.26-2.02,2.34-5.4,2.9-8.03,1.27-1.91-1.19-2.81-3.29-2.71-5.53.11-2.45,1.54-4.54,3.64-5.3,2.28-.83,4.84-.34,6.38,1.56,1.13,1.4,1.55,3.2,1.29,4.88l-9.22.05c.2,1.75,1.5,2.76,2.78,3.13,1.63.47,3.14-.01,4.45-1.32ZM115.99,12.03c-.41-2.28-2.04-3.06-3.69-3.04s-3.21,1.08-3.45,3.07l7.14-.02Z"/>
      <path d="M208.98,72.21c.15,5.04-3.42,9-8.36,9.02l-5.1.02v-17.48s5.39.03,5.39.03c4.61.02,7.93,3.74,8.07,8.41ZM207.61,72.47c-.01-4.08-2.67-7.37-6.72-7.43l-4.02-.06v15.02c1.47.03,2.83.05,4.16-.04,4.01-.27,6.59-3.42,6.58-7.48Z"/>
      <path d="M319.19,79.47c-1.08,1.28-2.56,2.09-4.01,2.08-1.81,0-3.39-.69-4.47-2.09-1.72-2.21-1.74-5.37-.15-7.65.97-1.39,2.51-2.07,3.93-2.23,1.86-.21,3.18.51,4.68,1.88l.05-9.02,1.29.04v18.66s-1.12.1-1.12.1l-.19-1.77ZM319.09,77.23c.16-1.14.21-2.67-.03-3.6-.56-2.16-3.07-3.1-4.94-2.68-2.08.47-3.36,2.42-3.34,4.63s1.37,4.24,3.63,4.6c1.75.28,4.35-.72,4.67-2.95Z"/>
      <path d="M168.37,8.99c-4.36.32-2.22,6.27-2.77,9.84l-2.09-.02V7.35s1.88-.05,1.88-.05l.21,1.33c1.27-1.42,2.92-1.93,4.71-1.45,1.54.42,3.03,1.89,3.04,3.78l.04,7.87h-2.12s0-7.15,0-7.15c0-1.61-1.16-2.82-2.88-2.69Z"/>
      <path d="M50.46,41.12l9.01,8.82c-.65.1-1.4.13-1.85.03l-8.68-8.35-.09,8.28c-.25.11-.83.13-1.3.08v-17.28c.39-.03.95-.04,1.3-.02l.14,8.11,7.42-7.97c.3-.33,1.24-.29,1.76-.06l-7.72,8.37Z"/>
      <path d="M72.46,7.32v11.52s-1.88.02-1.88.02l-.2-1.41c-1.03,1.13-2.12,1.74-3.7,1.72-2.19-.03-4.27-1.62-4.29-3.97l-.05-7.84,2.11-.05.05,7.36c0,1.32.9,2.27,2.26,2.48,1.23.19,3.48-.51,3.5-2.03l.1-7.76,2.1-.04Z"/>
      <path d="M129.29,18.44c-2.74,1.37-6.01.74-8.03-1.61.38-.49.87-.98,1.4-1.41,1.42,1.55,3.22,2.15,5.16,1.57.48-.14,1.07-.77,1.08-1.18,0-.44-.53-1.21-.96-1.34l-4.1-1.2c-1.13-.33-1.91-1.54-2.02-2.56s.43-2.33,1.48-2.9c2.39-1.32,5.2-1.03,7.27.91l-1.33,1.45c-1.61-1.37-3.84-1.92-5.29-.07-.32.4.64,1.32,1.13,1.47l3.64,1.09c1.19.36,2.07,1.48,2.22,2.45.22,1.36-.29,2.66-1.65,3.34Z"/>
      <path d="M79.39,10.94c-.19,2.71-.1,5.04-.12,7.85l-2.11.04V7.39s1.88-.11,1.88-.11l.23,1.44c1.08-1.52,2.79-1.99,4.59-1.57,1.58.37,3.11,1.85,3.12,3.78l.04,7.9h-2.11s-.04-7.37-.04-7.37c0-1.49-1.16-2.51-2.74-2.47-.85.02-2.66.74-2.74,1.95Z"/>
      <path d="M249.64,7.34l2.1-.02.02,11.46-1.87.12-.22-1.5c-1.25,1.56-2.9,2.06-4.68,1.59-1.57-.4-3.06-1.88-3.07-3.79l-.03-7.88,2.11.04.04,7.4c0,1.15.82,2.07,1.98,2.35s3.38-.43,3.51-1.94c.21-2.62.09-5.02.12-7.84Z"/>
      <path d="M349.08,86.88v-16.97s1.1-.08,1.1-.08l.21,1.75c1.77-1.79,4.13-2.54,6.42-1.66s3.62,3.11,3.61,5.67-1.32,4.64-3.43,5.52c-2.29.95-4.62.3-6.56-1.51l-.06,7.24c-.26.11-.84.12-1.3.04ZM356.82,79.7c1.37-.76,2.21-2.37,2.22-4.11.01-1.84-.88-3.52-2.34-4.27-3.22-1.64-6.26,1.47-6.27,2.22l-.02,3.86c0,1.02,3.27,4.05,6.41,2.3Z"/>
      <path d="M192.81,18.51c-2.75,1.31-5.85.58-7.69-1.78l1.45-1.33c1.4,1.67,3.13,2.27,5.12,1.5.35-.13.82-.74.84-1.08.03-.39-.48-1.18-.88-1.3l-3.71-1.12c-1.22-.37-2.1-1.56-2.22-2.6-.16-1.29.49-2.48,1.67-3.12,2.23-1.21,4.86-.77,6.82,1.04l-1.35,1.44c-1.28-1.07-2.67-1.58-4.24-.96-.34.13-.83.78-.85,1.13-.02.4.56,1.13.95,1.25l3.69,1.1c1.27.38,2.1,1.57,2.2,2.67.13,1.29-.47,2.52-1.81,3.16Z"/>
      <path d="M134.32,41.12l9,8.8c-.59.08-1.27.11-1.79.08l-8.72-8.39-.08,8.32-1.29.08v-17.35s1.28-.02,1.28-.02l.1,8.18,7.5-8.05c.26-.28,1.22-.18,1.7.01l-7.69,8.34Z"/>
      <path d="M157.34,81.17l-.04-7.47c0-1.45-1-2.54-2.46-2.8-1.64-.29-4,.79-4.13,2.7-.17,2.52-.07,4.91-.11,7.54-.31.06-.83.06-1.33,0v-18.49c.1-.31,1-.33,1.32-.17l.05,8.92c1.22-1.25,2.37-1.93,4.05-1.84,2.17.12,3.93,1.78,3.94,4.04l.02,7.63-1.32-.06Z"/>
      <path d="M205.08,16.84l.74,1.52c-1.02.82-2.43,1-3.73.54-1.11-.39-2.1-1.57-2.11-2.97l-.04-6.67-2.24-.12.1-1.82,2.14-.08.05-3.44h2.06s.06,3.46.06,3.46l3.51.05.03,1.88-3.57.04.03,6.74c0,.41.68,1.11,1.07,1.14.48.04,1.04-.08,1.89-.29Z"/>
      <path d="M84.3,79.92c3.49,1.35,5.45-1.74,5.74-1.45l.62.61c.42.41-3.33,3.81-7.2,1.89-2.22-1.1-3.52-3.5-3.25-6.13.2-1.95,1.26-3.67,2.72-4.5,1.8-1.03,3.87-1.07,5.58-.05,2,1.19,2.98,3.35,2.8,5.77l-9.78.03c.13,1.86,1.33,3.28,2.77,3.83ZM89.95,74.86c-.32-2.7-2.23-4.17-4.58-4-1.93.14-3.69,1.75-3.77,4.01h8.35Z"/>
      <path d="M341.95,80.89c-3.02,1.58-6.66.26-8.12-2.78.16-.34.85-.76,1.12-.7.73,1.27,1.74,2.3,2.89,2.63,1.51.42,3.04.19,4.19-.82.87-.76,1.18-1.95.93-3.12-.76-3.52-8.93-3.17-8.53-8.56.11-1.47,1.02-2.88,2.51-3.57,2.51-1.17,5.47-.27,7.01,1.94-.07.31-.73.76-1.05.66-1.44-1.76-4.13-2.51-6.1-.99-.82.64-1.2,1.8-1,2.86.14.73.84,1.77,1.72,2.22l4.3,2.19c1.57.8,2.52,2.3,2.55,3.86.04,1.78-.8,3.33-2.43,4.19Z"/>
      <path d="M223.51,79.88c3.33,1.38,5.43-1.46,5.75-1.41.22.03.58.43.7.63.29.48-3.43,3.89-7.43,1.75-2.11-1.13-3.32-3.57-3.02-6.11.38-3.25,3.04-5.54,6.24-5.15,3.01.37,5.19,3.24,4.81,6.48l-9.74.02c.09,1.8,1.27,3.22,2.67,3.8ZM229.24,74.85c-.29-2.67-2.2-4.11-4.44-3.99-2.01.11-3.74,1.65-3.94,4.03l8.38-.04Z"/>
      <path d="M166.78,79.87c3.18,1.32,5.07-1.05,5.76-1.4.21-.11.63.43.72.64.26.54-3.47,3.84-7.4,1.75-2.18-1.16-3.4-3.68-3.02-6.29.45-3.17,3.08-5.35,6.2-4.98s5.21,3.22,4.84,6.47l-9.75.02c.13,1.81,1.29,3.22,2.65,3.78ZM172.54,74.87c-.17-2.45-2.07-4.08-4.26-4.03s-3.93,1.7-4.11,4.04h8.37Z"/>
      <path d="M57.81,75.21c.18,3.59-2.4,6.29-5.71,6.35s-5.88-2.54-5.89-5.96,2.32-5.83,5.39-6.03c3.25-.21,6.03,2.12,6.21,5.65ZM56.45,75.21c-.16-2.78-2.19-4.47-4.63-4.37s-4.24,2.13-4.23,4.75c.02,2.81,1.99,4.79,4.71,4.66,2.51-.12,4.32-2.21,4.15-5.04Z"/>
      <path d="M375.19,75.46c.05,3.49-2.53,6.05-5.71,6.09s-5.88-2.53-5.9-5.96,2.45-5.99,5.65-6.05,5.91,2.38,5.96,5.92ZM373.81,75.23c-.15-2.82-2.23-4.57-4.82-4.37-2.42.18-4.05,2.19-4.04,4.73.02,2.73,1.91,4.72,4.53,4.68s4.48-2.15,4.33-5.03Z"/>
      <path d="M290.56,69.91v11.19s-1.1.16-1.1.16l-.18-1.77c-1.1,1.46-2.57,2.22-4.41,2.02-2.04-.22-3.65-1.83-3.66-3.96l-.03-7.64h1.33s.02,7.45.02,7.45c0,.79.51,1.9,1.17,2.31,2.12,1.32,4.75.22,5.53-2.06v-7.69s1.33-.03,1.33-.03Z"/>
      <path d="M236.29,73.31c-.55,2.69.02,5.27-.27,7.89l-1.27-.03v-11.21s1.13-.13,1.13-.13l.19,1.72c1.08-1.4,2.59-2.05,4.34-1.99,2.19.07,3.95,1.79,3.95,4.02v7.63s-1.29-.09-1.29-.09l-.04-7.45c0-.99-.59-2-1.53-2.47-1.7-.84-4.76-.14-5.21,2.1Z"/>
      <path d="M297.34,73.51c-.18,2.64-.09,5.01-.12,7.64l-1.3.06v-11.26s1.11-.06,1.11-.06l.18,1.72c1.11-1.48,2.55-2.25,4.43-2.02s3.59,1.79,3.6,3.87l.05,7.63c-.31.1-.89.13-1.32.1l-.04-7.34c-.01-1.77-1.27-2.99-3.13-2.99-1.3,0-3.34,1-3.46,2.66Z"/>
      <path d="M156.12,38.77v11.13s-1.08.17-1.08.17l-.23-1.68c-1.69,2.23-4.8,2.73-6.91.74-.64-.61-1.14-1.86-1.14-2.75v-7.64s1.31,0,1.31,0l.03,7.45c0,.82.51,1.84,1.17,2.32.86.63,2.35.7,3.32.29.78-.34,2.15-1.28,2.16-2.41l.08-7.5c.18-.22.93-.23,1.29-.11Z"/>
      <path d="M256.54,80.66c-2.57,1.68-5.98.92-7.82-1.38.11-.34.56-.76.94-.97,1.47,1.85,3.78,2.5,5.93,1.41.47-.24.87-1.02.86-1.53s-.63-1.27-1.21-1.44l-3.85-1.15c-1.15-.34-2.02-1.43-2.14-2.49s.45-2.25,1.52-2.89c2.02-1.21,4.68-.77,6.47.82-.06.31-.49.82-.78.98-1.45-1.06-3.07-1.58-4.76-.84-.58.25-1.09.99-1.11,1.54-.02.66.58,1.45,1.28,1.65l3.87,1.12c1,.29,1.87,1.25,2.03,2.07.23,1.16-.11,2.36-1.22,3.09Z"/>
      <path d="M99.13,49.47c-2.56,1.68-6.02.9-7.8-1.39.04-.38.64-.88,1.01-.88,1.42,1.75,3.72,2.4,5.79,1.36.51-.25.92-1,.92-1.55s-.64-1.29-1.25-1.47l-3.72-1.09c-1.08-.32-2.02-1.39-2.18-2.2-.26-1.37.32-2.51,1.47-3.22,1.95-1.2,4.72-.74,6.41.79.06.33-.47.93-.79.98-1.39-1.02-3.08-1.55-4.74-.79-.56.25-1.05.98-1.08,1.53-.03.61.57,1.44,1.23,1.64l3.87,1.12c1,.29,1.9,1.25,2.06,2.04.24,1.21-.08,2.4-1.21,3.14Z"/>
      <path d="M96.9,73.51c-.17,2.63-.08,5-.11,7.63l-1.32.07v-11.28s1.12-.05,1.12-.05l.2,1.68c1.06-1.38,2.39-2.14,4.19-2.01,2.07.15,3.82,1.75,3.83,3.94l.05,7.58c-.3.1-.88.13-1.32.1l-.05-7.35c-.01-1.75-1.27-3-3.1-2.99-1.32,0-3.38,1-3.49,2.67Z"/>
      <path d="M72.53,38.74l-.03,11.05c0,.31-1.1.34-1.14.06l-.2-1.53c-1.01,1.5-2.44,2.11-4.23,2.03-2.16-.1-4-1.68-4.01-3.97l-.04-7.7h1.32s.04,7.43.04,7.43c0,1.66,1.19,2.79,2.75,2.93,1.91.18,3.6-.81,4.21-2.64v-7.74s1.32.08,1.32.08Z"/>
      <path d="M189.01,38.73v11.09c-.17.22-1.08.33-1.11.08l-.2-1.52c-1.63,2.12-4.08,2.47-6.37,1.28-1.13-.59-1.91-1.88-1.91-3.28l-.03-7.71h1.32c.05,2.71-.1,5.24.15,7.85.16,1.66,2.06,2.6,3.41,2.51,1.45-.09,3.37-1.17,3.39-2.9l.06-7.23c.02-.22.65-.25,1.3-.18Z"/>
      <path d="M78.94,42.28l-.02,7.75-1.31-.11v-11.22s1.13-.05,1.13-.05l.17,1.73c1.61-2.14,4.33-2.71,6.51-1.15.91.65,1.56,1.98,1.57,3.15l.02,7.64-1.34-.04-.02-7.35c0-.96-.55-2.07-1.36-2.52-2.1-1.14-4.48-.09-5.35,2.17Z"/>
      <path d="M64.48,71.1l-.02,10c-.26.17-1.04.15-1.3-.04l-.02-9.94-2.38-.11.03-1.15,2.35-.06v-4.48c.02-1.07.58-2.2,1.31-2.69,1.33-.9,4.8-.78,4.01.65-.47.84-1.57-.4-3.07.33-.51.25-.91,1.28-.9,1.94v4.27s3.12.02,3.12.02l.1,1.16-3.22.08Z"/>
      <path d="M135.84,75.21c-.13,2.19,1.03,4.02,2.83,4.72s3.97.14,5.34-1.45c.28.03.85.54.87.86-1.49,1.96-4.28,2.73-6.61,1.86s-3.81-2.99-3.83-5.61,1.46-4.74,3.6-5.59c2.34-.93,5.04-.4,6.68,1.59.21.25-.69.96-.97.71-1.31-1.21-3.14-1.82-4.92-1.2-1.55.55-2.87,2.04-2.99,4.12Z"/>
      <path d="M74.32,71.07l-.02,10.05-1.3.09-.02-10.1-2.36-.09c-.03-.16-.03-.96.02-1.13l2.34-.06v-4.5c0-1.04.55-2.16,1.23-2.63,1.11-.78,2.9-.85,3.91-.1.15.11-.05.62-.14.78-.4.71-1.54-.5-2.82.28-.39.24-.84,1.07-.84,1.57v4.62s2.92.04,2.92.04l-.03,1.16-2.89.04Z"/>
      <path d="M392.58,79.97c1.68,1.04,3.02-1.19,3.24.75.05.46-2.1,1.3-3.87.44-.78-.38-1.52-1.53-1.53-2.61l-.03-7.44-2.38-.09-.02-1.14,2.39-.06.04-3.5c.22-.05.92-.09,1.27-.08l.09,3.61,3.55.03c.35,0,.36,1.15-.01,1.16l-3.57.07v7.29c0,.5.46,1.36.83,1.59Z"/>
      <path d="M115.25,80.15l1.02-.26c.22-.06.43.6.43.83,0,.48-2.13,1.31-3.92.4-.74-.38-1.46-1.54-1.47-2.62l-.03-7.4-2.36-.08-.03-1.15,2.38-.05.05-3.52,1.27-.11.08,3.63,3.68.06c.25.13.15,1.16-.15,1.16l-3.55.03v7.29c0,.48.45,1.34.81,1.57.38.24,1.31.33,1.8.2Z"/>
      <path d="M267.44,80.15l1-.26c.22-.06.47.61.46.84-.03.5-2.18,1.3-3.93.39-.77-.4-1.46-1.58-1.46-2.67l-.03-7.35-2.36-.08-.03-1.15,2.38-.04.04-3.52,1.28-.11.07,3.64,3.6.02c.32,0,.31,1.17,0,1.17l-3.62.06v7.29c0,.49.45,1.34.81,1.58s1.32.33,1.8.2Z"/>
      <path d="M226.21,18.82h-2.11s-.01-11.42-.01-11.42l1.89-.11.25,1.4c1.21-1.45,2.71-2.13,4.7-1.36l-.82,1.89c-1.54-.67-3.79.26-3.81,1.97l-.09,7.64Z"/>
      <path d="M108.23,48.74c1.69,1.13,2.98-1.17,3.3.77.07.43-2.16,1.38-3.96.41-.85-.46-1.45-1.62-1.45-2.77l-.03-7.24-2.39-.09-.02-1.14,2.41-.07.05-3.48c.2-.13,1.07-.14,1.26-.02l.05,3.52,3.77.02.08,1.16-3.87.07.02,7.26c0,.49.43,1.34.79,1.58Z"/>
      <path d="M173.77,48.95l.99-.26c.23-.06.55.63.46.85-.3.72-2.49,1.15-3.93.37-.85-.45-1.46-1.62-1.46-2.76l-.03-7.26-2.38-.07-.03-1.13,2.4-.1.05-3.46c.21-.13,1.09-.14,1.28-.01l.04,3.52,3.77.02.08,1.16-3.87.07v7.26c.01.5.43,1.34.8,1.59s1.36.33,1.82.21Z"/>
      <path d="M122.6,80.99c-.25.28-.84.29-1.34.12l.05-18.47c.02-.28,1.07-.3,1.27-.16v18.52Z"/>
      <polygon points="180.56 18.79 178.43 18.84 178.43 7.32 180.55 7.34 180.56 18.79"/>
      <polygon points="236.59 18.81 234.47 18.82 234.47 7.33 236.58 7.33 236.59 18.81"/>
      <path d="M162.96,49.85c-.32.19-.92.2-1.33.08l.06-18.7,1.27-.03v18.65Z"/>
      <polygon points="158.46 18.85 156.33 18.84 156.31 7.37 158.45 7.3 158.46 18.85"/>
      <path d="M380.61,80.99c0,.32-1.17.35-1.28.04v-10.93c.09-.2,1.04-.39,1.07-.18l.26,1.41c1.05-1.56,2.94-2.22,4.78-1.49.11.28-.23,1.07-.6,1.19-1.58-.58-4.11.32-4.13,2.32l-.1,7.64Z"/>
      <path d="M195.41,49.83c-.08.31-1.11.28-1.3-.02v-10.84c-.01-.29,1.04-.48,1.08-.23l.27,1.4c1.12-1.6,2.93-2.27,4.88-1.44l-.56,1.22c-1.68-.76-4.25.2-4.27,2.24l-.11,7.69Z"/>
      <path d="M179.34,81.02c-.01.31-1.06.29-1.28,0v-11.05c.35-.11,1.09-.22,1.12,0l.17,1.29c1.24-1.5,3.12-2.13,5.12-1.44.01.32-.26.94-.56,1.23-1.63-.56-4.2.08-4.42,2.1-.27,2.49-.05,5.07-.16,7.85Z"/>
      <path d="M215.02,80.98c0,.29-.97.31-1.3.17v-11.05c.22-.26.91-.27,1.32-.13l-.02,11Z"/>
      <path d="M130.01,81.04c-.21.25-1.11.29-1.31,0l-.02-11.13,1.32-.03v11.17Z"/>
      <path d="M115.94,53.84c-.11.31-1.04.02-1.22-.25l2-5.69c.39.1.87.29,1.22.46l-2,5.48Z"/>
      <path d="M202.24,54.04c-.39-.1-.88-.29-1.17-.44l1.97-5.56c.24-.19,1.08.08,1.21.41l-2.01,5.59Z"/>
      <path d="M156.68,2.4c.82-.44,1.7-.05,2.01.62.27.58,0,1.5-.53,1.8-.7.4-1.57.18-1.99-.46-.35-.53-.24-1.56.51-1.96Z"/>
      <path d="M179,2.28c.66-.23,1.54.16,1.76.69.31.74,0,1.64-.6,1.9-.77.34-1.68.01-1.94-.59-.34-.77-.09-1.71.78-2Z"/>
      <path d="M234.89,2.36c.74-.34,1.64.03,1.89.59.32.7.07,1.62-.59,1.94s-1.47.1-1.86-.47-.31-1.65.56-2.05Z"/>
      <path d="M49.53,65.19c.44-.09,1.09.27,1.18.6.12.44-.16,1.21-.61,1.32-.49.11-1.13-.17-1.31-.66-.14-.38.21-1.15.73-1.26Z"/>
      <path d="M54.03,65.19c.44-.11,1.11.25,1.21.58.13.46-.13,1.19-.64,1.34-.41.12-1.1-.21-1.29-.7-.14-.36.22-1.1.72-1.23Z"/>
      <path d="M128.99,65.21c.45-.1,1.13.16,1.25.48.15.43,0,1.17-.36,1.32-.47.2-1.29.02-1.42-.34-.19-.49,0-1.34.54-1.47Z"/>
      <path d="M213.98,65.23c.42-.15,1.14.14,1.27.45.17.4,0,1.19-.36,1.35-.46.21-1.26,0-1.44-.39s.03-1.23.52-1.41Z"/>
      <path d="M218.14,12.03l-7.12.04" fill="#fff"/>
      <path d="M89.95,74.86h-8.35" fill="#fff"/>
    </g>
  </g>
</svg>