<?xml version="1.0" encoding="UTF-8"?>
<svg id="Ebene_1" data-name="Ebene 1" xmlns="http://www.w3.org/2000/svg" xmlns:xlink="http://www.w3.org/1999/xlink" viewBox="0 0 308.9 87.29">
  <defs>
    <clipPath id="clippath">
      <polygon points="-17.76 -16.51 327.84 -16.51 327.84 99.29 -17.76 99.29 -17.76 -16.51 -17.76 -16.51" clip-rule="evenodd" fill="none"/>
    </clipPath>
  </defs>
  <g clip-path="url(#clippath)">
    <polygon points="27.22 7.07 2.69 7.08 0 1.17 27.2 1.17 27.22 7.07"/>
    <polygon points="27.22 18.85 8.18 18.87 5.47 12.97 27.21 12.96 27.22 18.85"/>
    <path d="M58.11,13.32c.27,2.82-1.6,5.12-4.38,5.4-2.21.22-4.42.13-6.78.12V1.4c3.2.07,8.62-.91,9.93,2.96.67,1.99.27,3.9-1.48,5.2,1.56.69,2.53,1.89,2.71,3.77ZM52.42,8.85c1.79-.03,2.77-1.52,2.64-3.01-.13-1.4-1.29-2.44-2.89-2.44h-3.09s.01,5.52.01,5.52l3.33-.06ZM53.49,16.72c1.76-.2,2.61-1.68,2.51-3.14-.09-1.35-1.22-2.63-2.84-2.65l-4.08-.06v5.94c1.52.04,2.91.08,4.41-.09Z"/>
    <path d="M141.29,18.82l-.07-7.74c-.01-1.27-1.24-2.09-2.27-2.11-.83-.02-2.5.65-2.52,1.83l-.13,8.03-2.07-.02V7.37s1.86-.07,1.86-.07l.29,1.18c1-1.08,2.07-1.59,3.53-1.46,1.18.11,2.31.77,3.08,1.97,1.06-1.65,2.72-2.28,4.57-1.85,1.49.35,2.82,1.81,2.83,3.67l.04,7.99-2.13.04v-7.15c0-1.34-.71-2.47-1.95-2.69-.88-.16-2.69.38-2.84,1.67-.3,2.63-.11,5.16-.16,8.09l-2.07.05Z"/>
    <path d="M262.06,18.82l-.06-7.64c0-1.28-1.2-2.16-2.2-2.21-.84-.05-2.5.6-2.58,1.78-.18,2.71-.1,5.29-.14,8.06h-2.1s0-11.43,0-11.43l1.87-.11.22,1.38c.87-1.15,2.01-1.74,3.46-1.64,1.31.09,2.44.78,3.27,1.98,1.04-1.74,2.82-2.26,4.56-1.84s2.82,2.08,2.82,4.05v7.61s-2.08.03-2.08.03l-.02-7.24c0-1.36-.83-2.44-2.1-2.6-.89-.11-2.65.53-2.73,1.81-.17,2.66-.09,5.09-.11,7.99l-2.08.03Z"/>
    <path d="M166.42,46.74l4.98-14.02c.38-.12.92-.14,1.42-.08l-6.4,17.85-5.21-15.52-5.18,15.49-6.39-17.75c.36-.19,1.31-.24,1.45.14l4.99,13.76,4.44-13.96,1.37-.03,4.53,14.12Z"/>
    <path d="M99.67,17.49c-1.83,1.99-4.88,2.28-7.12.44-2.98-2.44-2.99-7.26,0-9.7,2.1-1.71,4.82-1.67,7.04.26l.07-8.49,2.09.04v18.7s-1.84.14-1.84.14l-.24-1.39ZM99.55,14.85c.18-1.25.18-2.83-.01-3.83-.7-1.83-2.92-2.37-4.51-1.85s-2.61,2.19-2.58,3.98c.03,1.91,1.13,3.55,2.94,3.93,1.48.31,3.88-.32,4.15-2.24Z"/>
    <path d="M115.58,15.54l1.3,1.31c-1.76,2.25-4.85,2.88-7.37,1.75s-3.83-3.99-3.3-6.86c.61-3.25,3.5-5.17,6.7-4.64,3.03.51,4.94,3.49,4.5,6.72l-9.23.05c.22,1.81,1.55,2.86,2.99,3.2,1.68.4,3.21-.24,4.41-1.53ZM115.42,12.03c-.43-2.3-2.07-3.07-3.7-3.04s-3.21,1.09-3.46,3.08l7.16-.03Z"/>
    <path d="M209.77,13.85c.14,1.81,1.58,2.91,3.01,3.22,1.65.37,3.11-.21,4.35-1.53l1.31,1.3c-1.71,2.19-4.66,2.84-7.15,1.84s-3.93-3.67-3.59-6.5c.28-2.26,1.7-4.12,3.6-4.79,2.26-.8,4.72-.35,6.26,1.44,1.21,1.4,1.63,3.21,1.41,5l-9.21.02ZM217,12.04c-.41-2.25-2.03-3.07-3.65-3.05-1.73.02-3.28,1.08-3.5,3.09l7.16-.03Z"/>
    <path d="M57.78,45.07c.14,2.69-1.77,4.79-4.44,4.92-2.04.1-4.03.08-6.22.06v-17.47s5.19.02,5.19.02c2.02,0,3.8,1.28,4.3,2.98.59,2.02.06,4.1-1.74,5.24,1.87.83,2.82,2.27,2.92,4.26ZM55.46,37.26c.06-1.79-1.1-3.25-2.84-3.39-1.38-.12-2.77-.1-4.2-.07v6.66s4-.03,4-.03c1.74-.01,2.99-1.31,3.05-3.16ZM56.4,45.02c-.13-1.89-1.48-3.31-3.29-3.33l-4.69-.03v7.17c1.7,0,3.2,0,4.79-.07,1.96-.1,3.33-1.69,3.2-3.74Z"/>
    <path d="M120.24,53.86c.1-.32.52-.76.83-.94,1.69,1.7,4.02,2.38,6.28,1.48s2.49-3.72,2.18-6.04c-2.07,2.6-5.86,2.66-8.13.16-2-2.2-2.03-5.68-.27-8.05,1.02-1.37,2.58-2.01,4.08-2.11,1.76-.11,3.2.61,4.44,2.05l.19-1.78,1.12.15-.05,12.22c-.01,2.32-1.63,4.25-3.75,4.83-2.5.69-5.08-.08-6.91-1.98ZM129.55,46.04c.15-1.16.2-2.65-.03-3.59-.51-2.17-3.05-3.1-4.93-2.7-2.11.45-3.38,2.42-3.36,4.64s1.37,4.29,3.68,4.62c1.72.24,4.35-.73,4.63-2.97Z"/>
    <path d="M206.99,85.08c.13-.4.56-.84.9-.92,1.63,1.63,3.94,2.31,6.14,1.47,2.44-.93,2.56-3.89,2.27-6.03-2.26,2.65-6.12,2.57-8.31-.08-1.82-2.2-1.8-5.52-.15-7.8,1.05-1.45,2.65-2.1,4.25-2.17,1.72-.07,3.12.68,4.31,2.05l.19-1.71,1.12.04-.03,12.14c0,2.14-1.37,4.12-3.31,4.8-2.63.93-5.27.24-7.39-1.79ZM216.33,77.22c.15-1.13.19-2.59-.02-3.52-.49-2.21-3.09-3.18-5.01-2.74-2.07.48-3.32,2.43-3.29,4.62s1.31,4.23,3.59,4.61c1.76.29,4.43-.7,4.73-2.97Z"/>
    <path d="M84.43,79.43c-2.07,2.7-5.93,2.84-8.24.28-2.04-2.26-2.07-6-.04-8.28,2.26-2.55,5.89-2.49,8.26.05l.08-8.85c.02-.3.98-.3,1.26-.14v18.59c-.19.15-1.06.26-1.1-.02l-.22-1.62ZM84.35,77.23c.16-1.14.21-2.66-.02-3.57-.55-2.17-3.06-3.12-4.94-2.7-2.09.46-3.38,2.42-3.35,4.64s1.38,4.27,3.67,4.61c1.71.25,4.32-.75,4.64-2.97Z"/>
    <path d="M167.51,8.98c-4.39.3-2.22,6.25-2.78,9.85l-2.09-.03V7.36s1.86-.06,1.86-.06l.21,1.35c1.27-1.44,2.91-1.96,4.76-1.46,1.48.4,2.99,1.85,2.99,3.75l.04,7.89-2.12-.02-.03-7.38c0-1.53-1.32-2.56-2.84-2.45Z"/>
    <path d="M248.21,7.33l2.11.02v11.44s-1.87.07-1.87.07l-.21-1.47c-1.31,1.61-3.07,2.1-4.92,1.52-1.73-.54-2.87-2.2-2.87-4.21v-7.35s2.11,0,2.11,0l.04,7.36c0,1.23.79,2.14,2.03,2.42s3.37-.46,3.46-1.96c.17-2.63.08-5,.11-7.83Z"/>
    <path d="M69.79,7.36l2.12-.06v11.52s-1.87.01-1.87.01l-.23-1.43c-1.26,1.53-2.96,2.07-4.79,1.53-1.74-.51-2.97-2.12-2.97-4.11v-7.47s2.11-.06,2.11-.06l.02,7.37c0,.63.46,1.63.96,1.97,1.73,1.17,3.82.36,4.64-1.43v-7.85Z"/>
    <path d="M85.01,48.35c-2.06,2.55-5.8,2.71-8.11.2-2.17-2.36-2.1-6.35.19-8.6s5.98-2.08,8.02.48l.04-9.07c.22-.13.8-.18,1.27-.15v18.75s-1.08.04-1.08.04l-.33-1.65ZM85.03,46.04c.17-1.14.21-2.67-.02-3.59-.55-2.2-3.14-3.15-5.05-2.67-2.06.51-3.26,2.46-3.24,4.61s1.3,4.18,3.55,4.59c1.74.32,4.43-.68,4.76-2.94Z"/>
    <path d="M78.82,10.92c-.18,2.75-.1,5.04-.12,7.87l-2.1.03V7.36s1.85-.05,1.85-.05l.29,1.22c1.31-1.31,2.81-1.81,4.59-1.36,1.41.36,3.03,1.7,3.05,3.52l.08,8.09-2.11.04-.04-7.33c0-1.6-1.31-2.66-2.98-2.5-.78.08-2.45.86-2.52,1.92Z"/>
    <path d="M128.47,18.42c-2.71,1.42-5.81.74-7.8-1.62.4-.45.87-.92,1.4-1.4,1.41,1.67,3.21,2.31,5.19,1.46.33-.14.77-.72.8-1.05.02-.38-.49-1.17-.86-1.29l-3.81-1.16c-1.21-.37-2.03-1.57-2.15-2.6-.15-1.3.54-2.51,1.77-3.14,2.24-1.15,4.96-.63,6.69,1.14l-1.33,1.4c-1.29-1.1-2.7-1.57-4.24-.96-.35.14-.83.79-.85,1.14-.02.39.52,1.12.93,1.24l3.7,1.1c1.17.35,2.02,1.49,2.17,2.4.23,1.4-.28,2.64-1.61,3.34Z"/>
    <path d="M191.69,18.49c-2.72,1.33-5.87.6-7.69-1.77l1.42-1.34c1.36,1.67,3.12,2.27,5.06,1.55.37-.14.89-.76.91-1.11.03-.41-.5-1.2-.92-1.32l-3.69-1.11c-1.21-.37-2.08-1.57-2.2-2.58-.16-1.35.55-2.57,1.79-3.19,2.21-1.11,4.75-.65,6.68,1.11l-1.34,1.44c-1.31-1.07-2.6-1.58-4.23-.97-.34.12-.83.8-.85,1.15-.03.41.54,1.13.99,1.26l3.66,1.09c1.26.38,2.07,1.59,2.18,2.63.14,1.33-.44,2.52-1.77,3.17Z"/>
    <path d="M211.84,48.72c3.26,1.26,5.2-1.35,5.69-1.45.21-.04.51.43.68.67.27.4-3.28,3.72-7.22,1.8-2.2-1.07-3.49-3.51-3.23-6.1.33-3.24,2.91-5.56,6.08-5.26s5.33,3.16,4.98,6.47l-9.76.05c.16,1.85,1.33,3.26,2.77,3.82ZM217.51,43.67c-.22-2.46-2.06-4.04-4.18-4.03-2.23.01-4.07,1.66-4.18,4.03h8.36Z"/>
    <path d="M272.1,49.96l-.04-7.38c0-.99-.54-1.99-1.43-2.51-1.86-1.08-4.93-.01-5.16,2.33-.26,2.51-.06,4.9-.13,7.54l-1.3.03v-18.71s1.3-.03,1.3-.03l.04,8.99c1.28-1.36,2.54-2.03,4.31-1.85,2.05.22,3.68,1.85,3.68,4l.02,7.63-1.29-.06Z"/>
    <path d="M280.52,50.08c-1.71-.59-2.65-2.02-2.65-3.57,0-1.67,1.11-3.05,2.81-3.58s3.61-.23,5.38.66c.5-1.79-.54-3.68-2.51-3.88-1.58-.17-2.92.26-4.45.95l-.45-1.15c1.75-.94,3.56-1.36,5.5-1.01s3.34,1.79,3.34,3.79v7.46c0,.35-1.06.41-1.09.12l-.18-1.52c-1.54,1.59-3.53,2.48-5.69,1.74ZM286.08,46.77c.23-.43.09-1.48-.01-2.02-1.6-.75-3.23-1.08-4.86-.61-1.19.34-1.96,1.3-1.96,2.37,0,1.15.75,2.06,2,2.39,1.83.49,3.9-.36,4.84-2.14Z"/>
    <path d="M203.92,16.81l.74,1.6c-1.16.73-2.4.95-3.75.47-1.03-.37-2.06-1.54-2.07-2.95l-.05-6.67-2.23-.09.08-1.84,2.14-.1.06-3.42h2.05s.05,3.45.05,3.45l3.54.04v1.88s-3.55.05-3.55.05l-.02,6.23c0,.54.42,1.41.86,1.56.61.21,1.12.1,2.14-.23Z"/>
    <path d="M108.76,71.68c.22.17.25.92.13,1.19l-7.64.04-.02,8.26h-1.3s0-17.4,0-17.4l9.43-.02.11,1.26-8.22.03.02,6.62,7.5.02Z"/>
    <path d="M172.3,81.17l-.06-7.52c-.01-1.65-1.36-2.78-3.02-2.81-1.47-.03-3.58,1.07-3.6,2.8l-.11,7.39c-.04.3-1.23.27-1.28-.03v-18.56s1.3-.06,1.3-.06l.03,9.07c1.23-1.34,2.48-2.03,4.24-1.88,2.1.18,3.76,1.82,3.76,4.01l.02,7.62-1.28-.03Z"/>
    <path d="M124.09,75.46c.04,3.56-2.59,6.11-5.86,6.09-3.21-.02-5.71-2.63-5.73-5.96s2.34-5.89,5.48-6.03c3.31-.15,6.07,2.31,6.11,5.9ZM122.72,75.2c-.15-2.8-2.2-4.5-4.74-4.36s-4.14,2.15-4.13,4.74c.01,2.77,1.98,4.76,4.59,4.67s4.42-2.2,4.27-5.06Z"/>
    <path d="M56.06,69.92v11.16s-1.11.16-1.11.16l-.2-1.67c-1.11,1.36-2.51,2.13-4.35,1.94-2.01-.21-3.67-1.8-3.68-3.94l-.04-7.66,1.32.02.02,7.17c0,.99.39,2.04,1.26,2.62,1.83,1.22,5.05.24,5.32-2.14.3-2.58.05-5.04.15-7.65h1.31Z"/>
    <path d="M194.42,73.46v7.68s-1.32.04-1.32.04v-11.22s1.12-.13,1.12-.13l.18,1.75c1.12-1.49,2.56-2.2,4.37-2,2.06.22,3.66,1.86,3.67,4.01l.02,7.62-1.31-.06-.03-7.31c0-1.72-1.23-2.92-2.91-3s-3.15.93-3.79,2.62Z"/>
    <path d="M101.25,38.76v11.03c-.14.28-1.09.37-1.12.09l-.18-1.5c-1.11,1.35-2.51,2.14-4.35,1.94-2.02-.21-3.68-1.79-3.69-3.94l-.04-7.66,1.32.02.03,7.42c0,.87.49,1.86,1.24,2.36,1.84,1.22,5.04.24,5.33-2.14.31-2.58.04-5.04.15-7.66l1.3.04Z"/>
    <path d="M224.39,42.26v7.68s-1.32.04-1.32.04v-11.22s1.12-.13,1.12-.13l.18,1.75c1.12-1.49,2.56-2.19,4.36-2,2.06.22,3.67,1.86,3.67,4.01l.03,7.62-1.32-.04-.05-7.58c0-1.34-1.03-2.37-2.24-2.64-1.92-.43-3.71.6-4.44,2.52Z"/>
    <path d="M244.3,49.62c-2.55,1.45-5.83.68-7.55-1.53.07-.37.57-.83.93-.96,1.49,1.87,3.92,2.53,6.05,1.3.44-.25.79-1.13.72-1.6-.07-.44-.7-1.14-1.18-1.28l-3.87-1.16c-1.13-.34-2.03-1.46-2.13-2.41-.14-1.21.44-2.37,1.54-2.99,2.06-1.16,4.64-.75,6.44.85-.13.28-.51.74-.79.97-1.46-1.06-3.01-1.56-4.7-.88-.62.25-1.16.99-1.18,1.59-.02.7.61,1.47,1.35,1.69l3.67,1.05c1.15.33,2.05,1.33,2.18,2.31.16,1.21-.3,2.37-1.49,3.04Z"/>
    <path d="M190.11,49.62c-2.55,1.44-5.82.68-7.55-1.53.07-.36.57-.83.93-.96,1.47,1.84,3.79,2.5,5.94,1.39.44-.23.86-1.04.86-1.49,0-.55-.63-1.3-1.21-1.47l-3.86-1.16c-1.13-.34-2.02-1.45-2.13-2.4-.14-1.21.44-2.36,1.54-2.99,2.05-1.17,4.64-.74,6.44.84-.11.29-.51.76-.79.97-1.44-1.05-3.01-1.55-4.7-.87-.62.25-1.16.99-1.18,1.58-.02.7.61,1.47,1.35,1.68l3.67,1.05c1.15.33,2.06,1.32,2.19,2.31.16,1.21-.29,2.37-1.49,3.05Z"/>
    <path d="M202.96,49.5c-2.61,1.59-5.97.91-7.8-1.49.21-.3.67-.69,1-.87,1.49,1.89,3.82,2.48,5.95,1.37.42-.22.85-1.05.84-1.47-.02-.5-.64-1.31-1.17-1.47l-3.87-1.15c-1.14-.34-2.05-1.46-2.16-2.4-.14-1.26.45-2.41,1.57-3.03,2.07-1.14,4.64-.72,6.44.9l-.79.96c-1.5-1.09-3.09-1.6-4.83-.85-.62.26-1.13,1.09-1.08,1.74.04.56.74,1.31,1.36,1.49l3.74,1.07c1.02.29,1.89,1.26,2.05,2.01.25,1.23-.1,2.49-1.25,3.19Z"/>
    <path d="M144.74,80.65c-2.54,1.69-6.03.9-7.79-1.37.02-.38.65-.91,1-.87,1.41,1.75,3.74,2.39,5.8,1.34.5-.26.91-1,.9-1.54s-.63-1.29-1.24-1.47l-3.88-1.17c-1.11-.33-1.96-1.45-2.07-2.42-.13-1.14.43-2.27,1.48-2.91,2.01-1.22,4.7-.79,6.48.79-.03.31-.5.84-.79.97-1.42-1.05-3.07-1.56-4.75-.82-.57.25-1.08.99-1.1,1.53-.02.64.58,1.47,1.25,1.66l3.89,1.13c.99.29,1.86,1.26,2.01,2.02.24,1.22-.08,2.39-1.2,3.13Z"/>
    <path d="M188.03,69.94l-.02,11.04c0,.3-1.08.37-1.11.09l-.18-1.54c-1.06,1.41-2.42,2.13-4.23,1.99-2.01-.15-3.77-1.71-3.78-3.85l-.05-7.73,1.32-.04.03,7.45c0,.95.5,1.93,1.36,2.44,1.85,1.11,4.97.1,5.23-2.24.29-2.58.05-5.01.14-7.69l1.3.07Z"/>
    <path d="M62.55,73.51c-.16,2.62-.09,5-.11,7.6l-1.28.1-.02-11.3h1.12s.2,1.74.2,1.74c1-1.48,2.41-2.21,4.23-2.07,2.05.16,3.77,1.77,3.78,3.92l.04,7.59-1.31.14-.04-7.39c-.01-1.82-1.38-3.1-3.31-2.99-1.23.07-3.19,1.08-3.29,2.67Z"/>
    <path d="M107.74,42.32c-.16,2.62-.09,5-.11,7.6l-1.28.1-.02-11.3h1.12s.19,1.74.19,1.74c1-1.48,2.41-2.21,4.23-2.07,2.05.16,3.77,1.77,3.78,3.92l.05,7.59-1.31.14-.05-7.39c-.01-1.82-1.38-3.1-3.31-2.99-1.24.07-3.19,1.08-3.29,2.67Z"/>
    <path d="M250.67,43.77c-.24,2.25.91,4.23,2.8,4.96s3.95.21,5.39-1.48c.27.18.68.58.88.86-1.55,1.93-3.97,2.67-6.37,1.97-2.2-.64-3.89-2.69-4.09-5.21s1.16-4.98,3.31-5.95c2.48-1.12,5.27-.56,7.04,1.53l-.88.83c-1.37-1.43-3.08-1.96-4.93-1.44-1.6.45-2.94,1.92-3.15,3.93Z"/>
    <path d="M150.83,75.48c-.03,2.14,1.22,3.91,2.97,4.51,1.87.64,3.83.09,5.23-1.51.25.1.7.51.91.8-1.57,2.04-4.17,2.76-6.61,1.93-2.27-.78-3.87-3.02-3.88-5.61s1.41-4.67,3.47-5.54c2.45-1.03,5.12-.45,6.88,1.56-.21.29-.64.68-.91.83-1.4-1.48-3.29-1.98-5.15-1.32-1.65.59-2.89,2.26-2.91,4.35Z"/>
    <path d="M295.13,39.91l-.02,9.96c-.24.22-1.04.2-1.29-.02l-.02-9.91-2.4-.15c-.04-.28.02-1.04.14-1.13l2.25-.06v-4.48c.02-.98.51-2.06,1.13-2.55,1.13-.89,2.86-.93,4.02-.17.19.12-.13.65-.3.91-.29.47-1.46-.7-2.75.17-.38.26-.77,1.12-.77,1.64v4.51s2.83.03,2.83.03c.04.15.1.88.1,1.15l-2.94.09Z"/>
    <path d="M225.05,18.79l-2.11.06V7.36s1.86-.06,1.86-.06l.23,1.41c1.23-1.53,2.87-2.18,4.73-1.36l-.82,1.85c-1.56-.68-3.79.24-3.81,1.96l-.09,7.62Z"/>
    <path d="M305.63,48.74c1.76,1.19,2.98-1.3,3.27.87.03.21-1.96,1.32-3.92.3-.74-.38-1.44-1.54-1.45-2.61l-.04-7.4-2.36-.09-.04-1.15,2.38-.04.05-3.52,1.25-.1.08,3.62,3.66.06c.25.13.15,1.16-.13,1.17l-3.56.03v7.27c0,.46.44,1.34.79,1.58Z"/>
    <path d="M70.77,49.93l-1.32.05.05-18.7c.4-.03.88-.04,1.27-.02v18.67Z"/>
    <polygon points="235.43 18.81 233.3 18.81 233.3 7.34 235.41 7.32 235.43 18.81"/>
    <polygon points="179.66 18.79 177.55 18.83 177.55 7.32 179.65 7.34 179.66 18.79"/>
    <polygon points="157.59 18.79 155.47 18.77 155.48 7.33 157.58 7.34 157.59 18.79"/>
    <path d="M129.55,80.99c0,.29-.94.29-1.26.11v-10.93c-.02-.31,1.01-.48,1.06-.24l.29,1.41c1.02-1.6,2.95-2.22,4.75-1.5.14.22-.24,1.18-.57,1.14-1.65-.48-4.13.33-4.15,2.37l-.11,7.64Z"/>
    <path d="M177.88,49.76c-.04.3-.96.33-1.31.19v-11.03c.18-.3.99-.32,1.31-.11v10.95Z"/>
    <path d="M63.63,49.89c-.32.09-.85.1-1.32.07v-11.21s1.31-.04,1.31-.04v11.18Z"/>
    <path d="M136.27,53.85c-.11.3-1.04.02-1.21-.24l2.01-5.74,1.2.49-2,5.48Z"/>
    <path d="M155.79,2.42c.84-.45,1.71-.08,2.02.59.27.58.02,1.5-.53,1.81-.67.38-1.56.18-1.98-.46-.34-.51-.23-1.56.48-1.94Z"/>
    <path d="M178.08,2.31c.77-.29,1.63.13,1.85.82s-.07,1.49-.79,1.81c-.59.27-1.49-.04-1.86-.78-.27-.54-.01-1.55.8-1.85Z"/>
    <path d="M233.78,2.33c.76-.3,1.61.05,1.9.77.24.6-.13,1.54-.78,1.84-.52.24-1.41-.02-1.74-.53-.45-.71-.21-1.74.61-2.07Z"/>
    <path d="M62.47,34.09c.44-.19,1.18,0,1.33.3.21.41.08,1.18-.32,1.44-.32.21-1.16,0-1.4-.38-.2-.33-.01-1.18.39-1.36Z"/>
    <path d="M176.82,34.05c.48-.12,1.14.08,1.27.39.18.43.01,1.22-.34,1.38-.44.19-1.26,0-1.41-.36-.19-.44.01-1.3.48-1.42Z"/>
  </g>
</svg>