<?xml version="1.0" encoding="UTF-8"?>
<svg id="Ebene_1" data-name="Ebene 1" xmlns="http://www.w3.org/2000/svg" viewBox="0 0 1553.44 379.69">
  <path d="M1461.42,192.5c12.93,33.8,2.26,70.72-31.33,86.23-22.29,10.29-48.16,10.11-70.46-.02-21.13-9.59-35.23-28.8-36.77-51.99-.28-4.23,1.12-9.41,4.23-12.29l80.94-74.81c4.95-4.57,6.39-11.16,4.44-17.45-1.55-5.02-6.33-9.66-12.52-10.87-13.85-2.72-26.39,5.71-29.22,19.8l-24.21.15c3.56-28.3,29.39-46.74,57.69-41.65,14.32,2.58,25.89,12.01,30.55,24.75,5.25,14.34,2.19,30.17-8.94,40.85l-73.95,70.99c-3.18,3.05-4.06,7.48-2.45,11.45,10.87,26.85,47.11,30.15,69.85,20.92,16.31-6.62,25.15-23.45,23.61-40.88-.77-8.66-3.54-16.39-5.8-25.02l24.35-.14Z"/>
  <path d="M1103.06,223.78l-42.65.05-34.66-103.82c-.35-1.04-2.65-2.23-2.66-.74l-.13,104.36-26.7.21V90.24s43.74.04,43.74.04l35.21,106.89c2.48-36.05.16-70.58,1.25-106.85l26.59.06v133.4Z"/>
  <path d="M563.04,223.78l-42.68-.04-34.5-103.31c-.49-1.46-2.79-2.66-2.79-1.15l-.14,104.41-26.67.17V90.24s43.73.04,43.73.04l35.22,106.91c2.51-36.07.16-70.61,1.27-106.88l26.55.06v133.41Z"/>
  <path d="M696.83,155.35c7.89,4.13,13.41,9.54,15.08,17.77,3.74,18.37.71,36.61-17.23,45.96-6.83,2.65-13.92,4.81-21.42,4.81l-52.89-.03V90.28s51.87-.07,51.87-.07c7.27,0,14.26,2.03,20.84,4.48,17.29,8.35,19.9,26.16,16.43,43.22-1.51,7.44-5.76,12.64-12.69,17.44ZM683.48,129.21c.04-8.42-5.36-15.08-13.5-15.11l-23.26-.11v31.43s22.44-.06,22.44-.06c8.71-.02,14.28-7.22,14.32-16.15ZM685.79,184.92c.31-8.75-5.62-16.14-14.6-16.23l-24.46-.23.02,31.73,23.69-.15c8.73-.06,15.04-6.2,15.35-15.12Z"/>
  <path d="M399.65,223.72l-29.03.26-15.37-44.18-23.81.17-.08,43.92-26.28-.06V90.25s51.15,0,51.15,0c9.83,0,19.09,2.24,27.48,6.82,7.75,5.01,12.48,12.58,14.84,21.46,3.99,20.36,2.43,42.4-17.31,54.34l18.42,50.84ZM373.09,135.26c.04-12.22-8.26-20.53-19.81-20.44l-21.85.16-.03,41.14,22.46.07c11.41.04,19.19-9.23,19.23-20.94Z"/>
  <path d="M943.47,223.5l-29.08.33-15.22-44.02-23.88.14-.06,43.94-26.26-.06V90.25s51.24.01,51.24.01c10.1,0,19.58,2.36,28.12,7.27,7.46,5.35,12.37,12.93,14.23,21.99,4.02,19.54,1.77,42.07-17.48,53.3l18.39,50.67ZM916.92,135.31c.08-12.08-8.04-20.57-19.64-20.49l-21.99.15-.04,41.19,22.61.03c11.41.02,18.99-9.32,19.06-20.87Z"/>
  <path d="M94.89,123.27c4.9,24.3,7.92,79.65-19.18,93.85-8.91,4.13-18.36,6.53-28.46,6.57L0,223.89V90.28s44.25-.07,44.25-.07c7.47-.01,14.63,1.11,21.85,2.56,14.97,3.84,25.65,14.95,28.78,30.5ZM68.25,180.01c3.15-15.67,2.89-31.43.56-46.8-3.31-21.85-26.29-18.14-42.49-18.23l.02,84.24,20.04-.19c11.04-.11,19.55-7.48,21.87-19.01Z"/>
  <path d="M220.17,223.09c-14.19,4.18-28.52,4.05-42.26.02-28.09-8.23-32.26-39.23-32.47-64.41-.21-25.5,4.17-58.31,32.29-67.45,13.87-4.51,28.92-4.53,42.77.02,25.39,8.35,31.04,35.87,31.98,59.44,1.05,26.46-1.56,63.31-32.31,72.37ZM214.73,196.75c14-10.61,11.06-49.33,7.95-64.37-1.3-6.29-4.44-12.84-9.93-16.25-8.17-5.08-19.82-5.05-27.85.3-15.3,10.2-12.78,48.92-9.99,64.65,1.06,5.99,3.81,12.56,8.86,16.07,8.85,6.17,22.06,6.35,30.97-.4Z"/>
  <path d="M1549.7,201.98c-10.5,27.43-41.96,26.32-66.05,21.27l.1-21.67c13.55.45,34.74,6.02,40.51-8.59,2.64-6.67,2.52-14.25-.86-20.67-5.69-10.81-29.27-5.74-39.18-3.39l-15.87-3.58,3.42-68.88,77.73-.15.14,23.2-56.91.09-3.28,27.45c22.72-8.62,57.24-6.45,62.78,21.97,2.14,10.96,1.49,22.43-2.54,32.94Z"/>
  <polygon points="1280.57 223.99 1280.43 126.71 1252.92 144.21 1240.73 124.41 1282.98 96.28 1307.13 96.5 1307.13 223.85 1280.57 223.99"/>
  <polygon points="790.84 190.47 760.8 190.53 760.78 56.91 790.84 56.79 790.84 190.47"/>
  <path d="M280.07,358.67c-3.81,11.63-12.92,19.65-24.91,19.69l-33.12.11v-85.34s32.4,0,32.4,0c12.19,0,21.86,7.14,25.77,18.78,4.43,15.08,4.36,31.09-.14,46.76ZM272.68,314.49c-2.66-9.03-10.43-14.51-19.47-14.5l-23.57.03-.02,71.64h24.77c23.34,0,23.52-39.39,18.29-57.16Z"/>
  <path d="M506.55,377.96l-8.17.4-16.69-33.5-26.09-.11-.18,33.18c-2.06.56-5.27.58-7.54-.04l.03-84.82,36.27.36c7.92.08,14.93,4.23,18.73,10.82,5.42,13.45,4.04,34.43-13.57,39.04l17.19,34.67ZM496.93,326.05c1.19-5.16,1.13-10.3.02-14.93-3.93-16.41-27.81-10.1-41.43-11.29v38.16s25.77-.08,25.77-.08c7.26-.02,13.89-4.27,15.64-11.86Z"/>
  <path d="M663.9,377.94l-7.37.4-.07-39.27-46.28-.08-.08,39.15-7.6.1v-84.6c2.21-.46,4.59-.52,7.57-.4l.1,39.05,46.24.06.14-39.15,7.32.13.02,84.59Z"/>
  <path d="M1177.03,313.64c-1.52.6-2.89.67-4.76.47V0s4.76.26,4.76.26v313.38Z"/>
  <path d="M413.54,354.76l-37.95.03-6.81,23.6-7.5-.24,24.44-84.99,17.78-.13,24.28,84.87c-2.41.31-4.8.43-7.3.42l-6.95-23.57ZM411.66,347.88l-13.69-47.89-6.77-.12-13.71,48.15,34.17-.15Z"/>
  <path d="M187.7,354.75l-38.02.06-6.76,23.58-7.51-.29,24.39-84.91,17.81-.2,24.31,84.94c-2.55.29-4.94.41-7.38.4l-6.85-23.58ZM185.73,347.86l-13.61-47.84-6.82-.16-13.76,48.18,34.19-.18Z"/>
  <path d="M52.14,368.02c-8.04,16.99-35.76,10.34-49.95,9.15.09-2.5.4-5.13.85-6.4,9.85.96,18.88,1.95,28.06,1.8,10.22-.17,15.92-7.37,16.38-16.8.38-7.82-2.64-13.63-10.72-15.57l-20.03-4.8c-10.49-2.51-15.51-10.45-15.66-20.67-.19-12.42,7.15-21.3,19.98-22.54,10.48-1.01,21,.31,32,1.84-.05,2.1-.34,4.7-.76,6.41-10.38-1.03-19.85-2.38-29.67-1.53-8.86.77-14.19,7.34-13.76,15.81.34,6.73,3.7,12.08,10.55,13.74l21.02,5.1c5.35,1.3,10.89,4.98,12.87,10.14,2.92,7.63,2.52,16.56-1.15,24.31Z"/>
  <path d="M775.71,293.59c2.71-.51,5.25-.52,7.77-.11l-22.68,84.89-18.63.03-22.82-84.92,7.77-.28,20.62,78.13,7.44.22,20.53-77.96Z"/>
  <path d="M536.09,356.84c3.85,21.53,28.53,15.7,44.01,13.78l.33,6.53c-18.75,3.46-46.45,7.46-51.71-18.19-3.18-15.5-3.18-31.84.22-47.26,5.35-24.26,32.14-20.9,50.47-17.43,1.33,1.37,1.28,5.77-.02,6.5-15.32-1.83-39.25-7.34-43.2,13.81-2.58,13.86-2.58,28.34-.09,42.25Z"/>
  <path d="M1439.85,29.33c2.5,23.16-18.06,43.19-41.63,40.63-1.05-23.11,16.87-41.86,41.63-40.63Z"/>
  <path d="M329.61,377.51c-1.91,1.05-4.66,1.04-7.56.66l-.03-78.1-26.8-.31c-.1-2.16-.05-4.67.14-6.74h60.71s.21,6.8.21,6.8l-26.6.13-.06,77.55Z"/>
  <path d="M103.6,377.5c-1.88,1.12-4.71,1.07-7.46.61l-.02-78.03-26.92-.29.14-6.77,61.02.04-.08,6.79-26.62.12-.06,77.54Z"/>
  <polygon points="699.22 378.14 691.57 378.28 691.57 293.23 699.18 293.19 699.22 378.14"/>
  <path d="M1436.39,357.59l-4.81-12.41-5.81-.19-.31,12.47-7.57-.34.05-37.61,14.33.02c6.76,0,11.05,4.63,11.15,11.19.07,4.84-.71,9.23-4.7,12.51l5.28,13.98-7.6.37ZM1434.74,337.62c.45-4.62.5-6.26.14-10.66l-9.18-.9v12.2s9.04-.64,9.04-.64Z"/>
  <path d="M1402.42,356.79c-1.87.44-4.52.6-7.43.68l-.39-16.02-11.4-.2-.31,16.09-7.51-.18.04-37.49,7.54-.11.14,15.15,11.57-.08.22-14.44c1.52-.76,5.03-.82,7.46-.34l.07,36.92Z"/>
  <path d="M1353.73,350.98l-10.98-.02-1.97,6.39-7.29-.14,7.81-37.65,13.62.02,7.51,37.61c-2.99.22-5.87.44-7.02-.13s-1.1-3.19-1.67-6.08ZM1352.35,343.96l-4.29-17.76-4.22,17.97,8.51-.21Z"/>
  <polygon points="1476.98 341.72 1465.63 341.88 1465.42 350.63 1480.31 350.74 1480.03 357.46 1457.71 357.48 1457.67 319.52 1479.8 319.44 1480.28 326.03 1465.57 326.29 1465.57 335.04 1476.87 335.22 1476.98 341.72"/>
  <path d="M1320.87,352.86c0,2.04-1.13,5.53-2.48,6.59s-5.46,1.85-7.38,1.76c-1.24-.06-1.99-3.57-1.6-4.85.34-1.11,1.83-2.04,3.62-3.18l.17-33.45,7.62-.08.05,33.23Z"/>
</svg>