<?xml version="1.0" encoding="UTF-8"?>
<svg id="Ebene_1" data-name="Ebene 1" xmlns="http://www.w3.org/2000/svg" xmlns:xlink="http://www.w3.org/1999/xlink" viewBox="0 0 319.56 88.56">
  <defs>
    <clipPath id="clippath">
      <polygon points="0 0 319.56 0 319.56 88.56 0 88.56 0 0 0 0" clip-rule="evenodd" fill="none"/>
    </clipPath>
  </defs>
  <g clip-path="url(#clippath)">
    <g>
      <path d="M319.56,57.3v11.94l-18.27-.02.23-11.16c.1-4.92,4.88-7.94,9.28-7.82s7.52,2.77,8.76,7.07Z"/>
      <path d="M291.87,0c.6,2.79.67,5.48.65,9.06l-9.19.03.31-9.09h8.23Z"/>
      <path d="M301.41,69.38l.17,17.69h-36.18s-.04-35.52-.04-35.52c6.12.28,11.31.32,17.99-.05l.14,17.72,17.91.16Z"/>
      <path d="M85.72,86.9c-4.42.27-8.22.17-12.75.14l.03-28.99,10.87-.06c7.97-.05,14.2,5.69,14.92,13.19s-4.53,15.2-13.07,15.73ZM80.84,80.41c6.6,1,10.24-3.38,9.94-8.39s-4.62-8.49-10.01-7.25l.06,15.64Z"/>
      <polygon points="120.82 71.84 133.21 86.88 123.36 87.12 113.83 75.16 113.49 87.05 105.63 86.94 105.64 58.13 113.39 57.99 113.88 69.28 122.74 57.94 132.01 58.3 120.82 71.84"/>
      <path d="M170.03,87.24l-7.02-10.29-.3,9.94-7.76.08v-28.93s12.68-.01,12.68-.01c4.73,0,8.39,3.1,8.95,7.14.63,4.51-1.05,8.47-6.04,10.17l8.75,11.49-9.26.39ZM163.08,70.49c.6.94,3.92.06,4.73-.84s.73-3.49-.06-4.5-4.12-1.74-4.58-.62c-.58,1.42-.54,4.49-.09,5.96Z"/>
      <polygon points="240.5 86.98 232.81 87.01 232.73 75.25 221.84 75.28 221.69 87.1 214.06 86.92 214.08 58.11 221.65 58.01 221.86 69.09 232.72 69.15 232.83 58.07 240.44 58.07 240.5 86.98"/>
      <path d="M301.4,41.67c-12.25.79-23.5.51-36.24.33l18.18-26.8,18.06,26.47Z"/>
      <polygon points="41.57 75.69 33.22 75.94 33.12 80.42 42.02 80.55 42.02 87.08 25.45 87.07 25.39 58.06 41.97 57.99 42.05 64.36 33.31 64.52 33.17 68.99 41.56 69.34 41.57 75.69"/>
      <path d="M205.83,67.16c-4.18-2.94-8.51-3.62-11.9-.4-2.96,2.81-3.38,8.21-.4,11.23,3.32,3.36,8.02,3.14,12.36-.2l.16,8.69c-7.31,3.05-15.69,1.13-20.21-5.56-3.92-5.81-3-13.7,1.51-18.59s12.17-6.7,18.7-3.62l-.22,8.44Z"/>
      <polygon points="16.65 69.2 16.64 75.76 8.62 75.92 8.44 87.04 .77 87.12 .76 58.03 17.8 58.04 17.7 64.34 8.7 64.51 8.63 69.13 16.65 69.2"/>
      <polygon points="67.06 80.49 67.1 87.04 50.1 87.08 50.14 58.11 57.89 58.06 58.05 80.51 67.06 80.49"/>
      <path d="M211.01,44.13c-3.62.94-7.43.76-11.18.57v-27.59c4.05-.26,8.18-.42,11.82.68,6,1.81,9.14,7.32,9.17,13.08s-3.38,11.59-9.81,13.25ZM203.16,41.63c6.7.78,10.72-1.27,13.08-5.59,2.1-3.85,1.57-8.69-1.17-12.17s-7.79-4.56-12.07-3.41l.15,21.17Z"/>
      <polygon points="146.67 86.94 138.85 87 138.82 58.24 146.63 58.05 146.67 86.94"/>
      <path d="M187,37.06l-11.88-.15-3.32,7.34c-.35.78-3.26.49-3.46-.19l12.63-28.18c4.45,9.41,8.31,18.27,12.33,28.08.37.91-3.39.81-3.73-.09l-2.57-6.81ZM185.45,33.71l-4.46-10.3-4.5,10.42c3.68.14,5.41.12,8.95-.12Z"/>
      <path d="M144,32.67c3.22,5.06-.14,10.2-4.28,12.04-4.89,2.18-10.72-1.04-11.76-5.76-.18-.82,2.3-1.95,2.8-1.69,1.07,3.79,4.04,5.87,7.5,4.64,2.76-.98,5.29-4.9,2.49-7.86-3.35-3.53-12.62-3.95-11.67-11.02.51-3.82,3.15-6.12,7.29-6.58,2.76-.31,6.81,1.92,7.41,4.01.14.5-1.57,2.14-1.96,1.79l-1.91-1.69c-1.03-.91-3.49-1.32-4.96-.7-1.28.53-2.59,2.54-2.51,4.27.2,3.96,8.72,4.09,11.56,8.55Z"/>
      <path d="M160.51,43.92c0,.89-3.24,1.04-3.24.19l-.1-23.89-6.33-.26-.27-2.97,14.84-.11c.54,0,1.88.83,1.93,1.34.07.68-1.04,1.76-1.79,1.81l-4.99.29-.04,23.59Z"/>
      <path d="M235.81,44.22c0,.77-3.15.49-3.15-.37l-.03-23.65-6-.15c-.66-.02-.96-2.97-.28-2.98l15.36-.14c.84,0,1,3,.17,3.03l-5.86.18-.22,24.08Z"/>
      <polygon points="301.79 18.13 292.44 18.17 292.27 8.94 301.7 8.92 301.79 18.13"/>
      <path d="M302.05,23.25c-.42-.91-.6-3.51-.05-4.47s3.93-1.4,4.14-.31c.16.82.16,3.19.02,3.92-.16.83-1.37.61-4.1.86Z"/>
    </g>
  </g>
</svg>