<?xml version="1.0" encoding="utf-8"?>
<!-- Generator: Adobe Illustrator 26.0.2, SVG Export Plug-In . SVG Version: 6.00 Build 0)  -->
<svg version="1.1" id="Ebene_1" xmlns="http://www.w3.org/2000/svg" xmlns:xlink="http://www.w3.org/1999/xlink" x="0px" y="0px"
	 viewBox="0 0 1309.6 317.5" style="enable-background:new 0 0 1309.6 317.5;" xml:space="preserve">
<polygon points="291.6,5.6 291.6,292 5.2,292 5.2,220.4 220,220.4 220,148.8 5.2,148.8 5.2,77.2 220,77.2 220,5.6 "/>
<polygon points="409,5.8 399.1,5.8 399.1,77.1 413.6,77.1 413.6,49.6 445.2,49.6 445.2,37 413.6,37 413.6,18.4 448.2,18.4 
	448.2,5.8 "/>
<polygon points="513.2,37 479.6,37 479.6,5.8 465.1,5.8 465.1,77.1 479.6,77.1 479.6,49.6 513.2,49.6 513.2,77.1 527.5,77.1 
	527.5,5.8 513.2,5.8 "/>
<polygon points="594.8,5.8 575.2,62.3 555.8,5.8 539.8,5.8 566.2,77.1 583.5,77.1 610,5.8 "/>
<path d="M401,114.3l21.3,59.7l21.3-59.7h9l-25.2,70h-10.5l-25.2-70H401z"/>
<path d="M455,172.4c-4.3-8.6-4.3-18.6,0-27.2c2.1-3.9,5.2-7.1,9-9.2c8.2-4.4,18.1-4.4,26.3,0c3.8,2.1,6.9,5.3,9,9.2
	c4.3,8.6,4.3,18.6,0,27.2c-2.1,3.9-5.2,7-9,9.2c-8.2,4.4-18.1,4.4-26.3,0C460.2,179.4,457.1,176.2,455,172.4z M491.9,168.5
	c2.8-6.2,2.8-13.2,0-19.4c-1.3-2.8-3.4-5.1-6-6.7c-5.5-3.2-12.2-3.2-17.7,0c-2.6,1.6-4.6,3.9-6,6.7c-2.8,6.2-2.8,13.2,0,19.4
	c1.3,2.8,3.4,5.1,6,6.7c5.5,3.2,12.2,3.2,17.7,0C488.5,173.5,490.6,171.2,491.9,168.5L491.9,168.5z"/>
<path d="M537.7,141.3h-4.1c-4.9,0-8.3,1.6-10.4,4.9c-2.2,3.6-3.3,7.8-3.2,12.1v26h-8.2v-51h7.1l1.1,7.7c1.4-2.3,3.4-4.2,5.7-5.6
	c2.3-1.4,5.6-2.1,9.7-2.1h2.3L537.7,141.3z"/>
<path d="M590.5,184.2H586c-3.3,0-5.6-0.7-7-2c-1.5-1.6-2.3-3.7-2.2-5.9c-3.9,5.7-9.6,8.5-17.1,8.5c-5.7,0-10.2-1.3-13.7-4
	c-3.4-2.6-5.3-6.6-5.2-10.9c0-5.1,1.8-9.1,5.2-11.8c3.5-2.7,8.6-4.1,15.2-4.1h15v-3.5c0.2-3-1.1-5.9-3.3-7.8
	c-2.2-1.9-5.3-2.8-9.3-2.8c-3.1-0.1-6.1,0.7-8.8,2.4c-2.2,1.4-3.7,3.7-4.2,6.2h-8.2c0.4-4.7,2.8-8.9,6.7-11.7
	c3.8-2.8,8.8-4.2,15-4.2c6.5,0,11.6,1.6,15.1,4.8c3.6,3.2,5.4,7.7,5.3,13.6v22c0,2.5,1.1,3.7,3.4,3.7h2.5L590.5,184.2z M560.6,161
	c-7.6,0-11.4,2.8-11.4,8.5c-0.1,2.4,1.1,4.7,3,6.1c2.4,1.6,5.2,2.5,8.1,2.3c5,0,8.9-1.3,11.8-4c2.9-2.7,4.5-6.5,4.3-10.4V161H560.6z
	"/>
<path d="M622.7,141.3h-4.1c-4.9,0-8.3,1.6-10.5,4.9c-2.2,3.6-3.3,7.8-3.2,12.1v26h-8.2v-51h7.1l1.1,7.7c1.4-2.3,3.4-4.2,5.7-5.6
	c2.3-1.4,5.6-2.1,9.7-2.1h2.3L622.7,141.3z"/>
<path d="M638.4,114.3v70h-8.2v-70H638.4z"/>
<path d="M696.6,144.8c2.2,4.3,3.3,9.1,3.2,14c0.1,4.7-1,9.4-3.2,13.6c-2,3.8-5,7-8.8,9.2s-8.2,3.4-12.6,3.3
	c-3.7,0.1-7.3-0.7-10.6-2.2c-2.8-1.4-5.2-3.5-6.9-6.1l-1.1,7.8h-7.1v-70h8.2v27.2c4-5.7,10.6-9,17.5-8.8c4.4-0.1,8.8,1,12.6,3.1
	C691.6,137.8,694.6,141,696.6,144.8z M691.3,158.8c0-5.5-1.5-10-4.7-13.5c-3.1-3.5-7.6-5.4-12.2-5.2c-3.1-0.1-6.1,0.8-8.8,2.4
	c-2.6,1.6-4.7,3.9-6,6.6c-1.4,3-2.2,6.3-2.1,9.6c-0.1,3.4,0.7,6.8,2.1,9.9c1.3,2.8,3.4,5.1,6,6.8c2.6,1.6,5.7,2.5,8.8,2.4
	c4.7,0.2,9.2-1.8,12.2-5.2C689.8,168.8,691.3,164.3,691.3,158.8L691.3,158.8z"/>
<path d="M718.9,135.9c3.8-2.2,8.2-3.3,12.6-3.2c4.3-0.1,8.6,0.9,12.4,2.9c3.6,1.9,6.5,4.8,8.5,8.4c2.1,4,3.3,8.4,3.3,12.9
	c0,0.7-0.1,1.9-0.2,3.5h-39.6v0.7c0.1,5,1.7,9,4.6,12c3,3,7.2,4.7,11.5,4.5c3.3,0.1,6.6-0.9,9.3-2.8c2.6-1.8,4.4-4.6,5.2-7.6h8.3
	c-0.9,5-3.6,9.5-7.5,12.8c-4.1,3.4-9.4,5.1-14.7,5c-4.6,0.1-9.2-1-13.3-3.2c-3.8-2.1-6.9-5.3-8.8-9.2c-2.2-4.2-3.2-8.9-3.2-13.6
	c-0.1-4.7,0.9-9.4,3-13.7C712.3,141.3,715.2,138.1,718.9,135.9z M742.4,143.5c-3-2.5-6.8-3.7-10.7-3.6c-3.8,0-7.4,1.3-10.2,3.8
	c-2.9,2.5-4.7,6.1-5,9.9h30.8C746.8,149.2,745.2,145.9,742.4,143.5z"/>
<path d="M791,141.3h-4.1c-4.9,0-8.3,1.6-10.5,4.9c-2.2,3.6-3.3,7.8-3.2,12.1v26H765v-51h7.1l1.1,7.7c1.4-2.3,3.4-4.2,5.7-5.6
	c2.3-1.4,5.6-2.1,9.7-2.1h2.3v8H791z"/>
<path d="M844,181.8c0,15.4-8.4,23.1-25.3,23.1c-6.6,0-12-1.5-16.2-4.5s-6.8-7.7-7.2-12.8h8.4c0.6,3.1,2.4,5.8,5.1,7.4
	c3.2,1.9,6.8,2.8,10.5,2.6c11,0,16.5-5.4,16.5-16.1v-6c-3.7,6.3-9.5,9.4-17.5,9.4c-4.4,0.1-8.8-1-12.7-3.1c-3.7-2.1-6.7-5.2-8.7-9
	c-2.2-4.3-3.3-9.1-3.2-14c-0.1-4.7,1-9.4,3.2-13.6c2-3.8,5-7,8.8-9.2s8.2-3.4,12.6-3.3c3.7-0.1,7.3,0.7,10.6,2.4
	c2.9,1.6,5.3,4,6.9,6.9l1.1-8.8h7.1L844,181.8L844,181.8z M833.8,168.6c1.4-3,2.2-6.3,2.1-9.6c0.1-3.4-0.7-6.8-2.1-9.9
	c-1.3-2.8-3.4-5.1-5.9-6.7c-2.6-1.6-5.7-2.4-8.8-2.4c-4.7-0.2-9.2,1.8-12.2,5.2c-3.1,3.5-4.7,8-4.7,13.5s1.5,10,4.7,13.6
	c3.1,3.5,7.6,5.4,12.2,5.2c3.1,0,6.1-0.8,8.8-2.4C830.4,173.6,832.5,171.3,833.8,168.6z"/>
<path d="M890.9,154.9c0,14.7,6,22,17.9,22c12.1,0,18.1-7.3,18.1-22v-40.6h8.7v40.1c0,10-2.3,17.6-6.8,22.8
	c-4.6,5.2-11.2,7.8-19.9,7.8s-15.3-2.6-19.8-7.8s-6.8-12.8-6.8-22.8v-40.1h8.7L890.9,154.9z"/>
<path d="M993.2,155.9v28.4H985v-27.9c0-5.3-1.2-9.3-3.5-12c-2.4-2.7-5.8-4.1-10.2-4.1c-4.8,0-8.6,1.7-11.3,5s-4.1,7.9-4.1,13.6v25.5
	h-8.2v-51h7.1l1.1,6.9c3.9-5,9.5-7.5,16.8-7.5c6.2,0,11.2,1.9,15,5.6S993.2,147.9,993.2,155.9z"/>
<path d="M1012.9,118.9c-0.1,2.8-2.5,5.1-5.3,5s-5-2.5-5-5.3c0.1-2.8,2.5-5.1,5.3-5c1.3,0,2.5,0.6,3.5,1.5
	C1012.4,116.1,1013,117.5,1012.9,118.9z M1011.7,133.3v51h-8.2v-51H1011.7z"/>
<path d="M1026.6,133.3L1042,175l15.3-41.7h8.6l-19.1,51h-9.9l-19.1-51H1026.6z"/>
<path d="M1079.8,135.9c3.8-2.2,8.2-3.3,12.6-3.2c4.3-0.1,8.6,0.9,12.4,2.9c3.6,1.9,6.5,4.8,8.5,8.4c2.1,4,3.3,8.4,3.3,12.9
	c0,0.7-0.1,1.9-0.2,3.5h-39.6v0.7c0.1,5,1.7,9,4.6,12c3,3,7.2,4.7,11.5,4.5c3.3,0.1,6.6-0.9,9.3-2.8c2.6-1.9,4.4-4.6,5.2-7.6h8.3
	c-0.9,5-3.6,9.5-7.5,12.8c-4.1,3.4-9.4,5.1-14.7,5c-4.6,0.1-9.2-1-13.3-3.2c-3.8-2.1-6.9-5.3-8.8-9.2c-2.2-4.2-3.2-8.9-3.2-13.6
	c-0.1-4.7,0.9-9.4,3-13.7C1073.1,141.3,1076.1,138.1,1079.8,135.9z M1103.3,143.5c-3-2.5-6.8-3.7-10.8-3.6c-3.8,0-7.4,1.3-10.2,3.8
	c-2.9,2.5-4.7,6.1-5,9.9h30.8C1107.9,149.7,1106.2,146,1103.3,143.5L1103.3,143.5z"/>
<path d="M1151.9,141.3h-4.1c-4.9,0-8.3,1.6-10.4,4.9c-2.2,3.6-3.3,7.8-3.2,12.1v26h-8.2v-51h7.1l1.1,7.7c1.4-2.3,3.4-4.2,5.7-5.6
	c2.3-1.4,5.6-2.1,9.7-2.1h2.3V141.3z"/>
<path d="M1167.9,175c5.6,3.6,12.8,3.9,18.7,0.8c2.1-1.1,3.3-3.3,3.3-5.6c0.1-1.7-0.5-3.3-1.6-4.6c-1.1-1.1-2.6-1.9-4.2-2.2
	c-1.7-0.4-4.1-0.8-7.2-1.2c-3.7-0.4-7.3-1.1-10.8-2.1c-2.6-0.7-4.9-2.2-6.8-4.1c-1.7-1.9-2.6-4.5-2.6-7.9c0-2.9,0.9-5.7,2.6-8
	c1.8-2.4,4.2-4.3,7-5.4c3.1-1.4,6.5-2,9.9-2c6,0,10.9,1.4,14.7,4.2s5.8,6.8,6.2,12h-8.2c-0.3-2.6-1.7-5-3.9-6.6
	c-2.5-1.8-5.5-2.7-8.5-2.6c-2.9-0.1-5.9,0.6-8.4,2.1c-2,1.2-3.2,3.3-3.2,5.6c-0.1,1.5,0.4,2.9,1.5,4c1.1,1,2.4,1.6,3.8,1.9
	c1.6,0.3,3.9,0.7,7.1,1.1c3.7,0.4,7.4,1.1,11,2.2c2.7,0.8,5.1,2.4,7,4.5c1.9,2.4,2.8,5.4,2.7,8.4c0,2.9-0.9,5.8-2.7,8.1
	c-1.9,2.4-4.4,4.3-7.3,5.4c-3.2,1.3-6.7,1.9-10.2,1.9c-6.7,0-12-1.5-16-4.6s-6.1-7.3-6.2-12.8h8.2
	C1164,170.5,1165.5,173.3,1167.9,175z"/>
<path d="M1218.7,118.9c-0.1,2.8-2.5,5.1-5.3,5s-5.1-2.5-5-5.3s2.5-5.1,5.3-5c1.3,0,2.5,0.6,3.5,1.5
	C1218.2,116.1,1218.7,117.5,1218.7,118.9z M1217.5,133.3v51h-8.2v-51H1217.5z"/>
<path d="M1222.9,140.8v-7.5h9.2V119h8.2v14.3h12.9v7.5h-12.9v30.1c0,2.1,0.4,3.6,1.2,4.6s2.3,1.4,4.3,1.4h8.9v7.5h-9.4
	c-4.8,0-8.2-1.1-10.2-3.2c-2-2.1-3-5.5-3-10.1v-30.2h-9.2V140.8z"/>
<path d="M1281.8,174.9l15.2-41.6h8.7l-23.5,59.6c-0.9,2.4-1.9,4.7-3.2,6.9c-0.8,1.4-2,2.6-3.5,3.4c-1.8,0.8-3.7,1.2-5.6,1.1h-9.8
	v-7.5h7.3c1.2,0.1,2.4-0.1,3.6-0.5c0.8-0.3,1.5-0.9,2-1.6c0.7-1.2,1.3-2.5,1.8-3.9l2.6-6.1l-20-51.4h8.7L1281.8,174.9z"/>
<path d="M397.9,279.9c-4.3-8.6-4.3-18.6,0-27.2c2-3.9,5.2-7,9-9.2c8.2-4.4,18.1-4.4,26.3,0c3.8,2.2,6.9,5.3,9,9.2
	c4.3,8.6,4.3,18.6,0,27.2c-2.1,3.9-5.2,7-9,9.2c-8.2,4.4-18.1,4.4-26.3,0C403,286.9,399.9,283.8,397.9,279.9z M434.7,276
	c2.8-6.2,2.8-13.2,0-19.4c-1.3-2.8-3.4-5.1-6-6.7c-5.5-3.2-12.2-3.2-17.7,0c-2.6,1.6-4.7,3.9-6,6.7c-2.8,6.2-2.8,13.2,0,19.4
	c1.3,2.8,3.4,5.1,6,6.7c5.5,3.2,12.2,3.2,17.7,0C431.4,281.1,433.4,278.8,434.7,276z"/>
<path d="M457.4,235.1c0-4.5,1-7.9,3.1-10s5.5-3.2,10.1-3.2h9.4v7.5h-8.9c-2,0-3.4,0.4-4.3,1.3s-1.3,2.3-1.3,4.3v5.9H480v7.5h-14.4
	v43.4h-8.2v-43.5h-9.2v-7.5h9.2V235.1z"/>
<path d="M533.9,221.8h10.3l26.6,70h-9.3l-7.4-18.9h-30.5l-7.4,18.9h-9L533.9,221.8z M551.5,265l-12.7-33.7L526.2,265H551.5z"/>
<path d="M624.5,252.3c2.2,4.3,3.3,9.1,3.2,14c0.1,4.7-1,9.4-3.2,13.6c-2,3.8-5,7-8.8,9.2s-8.2,3.4-12.6,3.3
	c-3.7,0.1-7.3-0.7-10.6-2.2c-2.8-1.4-5.2-3.5-6.9-6.1v27.8h-8.2v-71h7.1l1.1,8.2c4-5.7,10.6-9,17.5-8.8c4.4-0.1,8.8,1,12.6,3.1
	C619.5,245.4,622.6,248.5,624.5,252.3z M619.3,266.3c0-5.5-1.5-10.1-4.7-13.6c-3.1-3.5-7.6-5.4-12.2-5.2c-3.1-0.1-6.1,0.8-8.8,2.4
	c-2.6,1.6-4.7,3.9-6,6.6c-1.4,3-2.2,6.3-2.1,9.6c-0.1,3.4,0.7,6.8,2.1,9.8c1.3,2.8,3.4,5.1,6,6.8c2.6,1.6,5.7,2.4,8.8,2.4
	c4.7,0.2,9.2-1.8,12.2-5.2C617.7,276.4,619.3,271.8,619.3,266.3z"/>
<path d="M684.1,252.3c2.2,4.3,3.3,9.1,3.2,14c0.1,4.7-1,9.4-3.2,13.6c-2,3.8-5,7-8.8,9.2s-8.2,3.4-12.6,3.3
	c-3.7,0.1-7.3-0.7-10.6-2.2c-2.8-1.4-5.2-3.5-6.9-6.1v27.8H637v-71h7.1l1.1,8.2c4-5.7,10.6-9,17.5-8.8c4.4-0.1,8.8,1,12.6,3.1
	C679.1,245.4,682.1,248.5,684.1,252.3z M678.8,266.3c0-5.5-1.5-10.1-4.7-13.6c-3.1-3.5-7.6-5.4-12.2-5.2c-3.1-0.1-6.1,0.8-8.8,2.4
	c-2.6,1.6-4.7,3.9-6,6.6c-1.4,3-2.2,6.3-2.1,9.6c-0.1,3.4,0.7,6.8,2.1,9.8c1.3,2.8,3.4,5.1,6,6.8c2.6,1.6,5.7,2.4,8.8,2.4
	c4.7,0.2,9.2-1.8,12.2-5.2C677.3,276.4,678.8,271.8,678.8,266.3z"/>
<path d="M704.8,221.8v70h-8.2v-70L704.8,221.8L704.8,221.8z"/>
<path d="M725.4,226.4c-0.1,2.8-2.5,5.1-5.3,5s-5-2.5-5-5.3s2.5-5.1,5.3-5c1.3,0,2.5,0.6,3.5,1.5C724.9,223.6,725.5,225,725.4,226.4z
	 M724.2,240.8v51H716v-51L724.2,240.8L724.2,240.8z"/>
<path d="M745.2,243.5c3.8-2.2,8.2-3.3,12.6-3.2c4.3-0.1,8.6,0.9,12.4,2.9c3.6,1.9,6.5,4.8,8.5,8.4c2.1,4,3.3,8.4,3.3,12.9
	c0,0.7-0.1,1.9-0.2,3.5h-39.6v0.7c0.1,5,1.7,9,4.6,12c3,3,7.2,4.7,11.5,4.5c3.3,0.1,6.6-0.9,9.3-2.8c2.6-1.8,4.4-4.6,5.2-7.6h8.3
	c-0.9,5-3.6,9.5-7.5,12.8c-4.2,3.4-9.4,5.1-14.7,5c-4.6,0.1-9.2-1-13.3-3.2c-3.8-2.1-6.8-5.3-8.8-9.2c-2.2-4.2-3.2-8.9-3.2-13.6
	c-0.1-4.7,0.9-9.4,3-13.7C738.6,248.8,741.5,245.6,745.2,243.5z M768.7,251c-3-2.5-6.8-3.7-10.8-3.6c-3.8,0-7.4,1.3-10.2,3.8
	c-2.9,2.5-4.7,6.1-5,9.9h30.8C773.3,257.2,771.6,253.6,768.7,251z"/>
<path d="M839.8,291.8h-7.1l-1.1-8.2c-4,5.7-10.6,9-17.5,8.8c-4.4,0.1-8.8-1-12.6-3.1c-3.7-2.1-6.7-5.2-8.7-9
	c-2.2-4.3-3.3-9.1-3.2-14c-0.1-4.7,1-9.4,3.2-13.6c2-3.8,5-7,8.8-9.2s8.2-3.4,12.6-3.3c3.7-0.1,7.3,0.7,10.6,2.2
	c2.8,1.4,5.2,3.5,6.9,6.1v-26.8h8.2L839.8,291.8z M829.6,276.1c1.4-3,2.2-6.3,2.1-9.6c0.1-3.4-0.7-6.8-2.1-9.9
	c-1.3-2.8-3.4-5.1-6-6.8c-2.6-1.6-5.7-2.4-8.8-2.4c-4.7-0.2-9.2,1.8-12.2,5.2c-3.1,3.5-4.6,8-4.6,13.6s1.5,10.1,4.7,13.5
	c3.1,3.5,7.6,5.4,12.2,5.2c3.1,0.1,6.1-0.8,8.8-2.4C826.2,281.2,828.3,278.9,829.6,276.1z"/>
<path d="M890.1,280.2c3.5,2.8,7.9,4.3,13.2,4.2c4.8,0,8.7-1.1,11.7-3.1c2.9-2,4.6-5.3,4.5-8.8c0.1-2.4-0.8-4.8-2.5-6.5
	c-1.8-1.7-3.9-2.9-6.3-3.5c-3.4-1-6.9-1.7-10.5-2.2c-7-1.2-12.6-3.2-16.7-5.9c-4.1-2.7-6.2-7.2-6.2-13.3c-0.1-3.7,1-7.3,3-10.4
	c2.1-3.1,5-5.5,8.5-7c3.9-1.7,8.2-2.6,12.4-2.5c4.5-0.1,9,0.8,13.1,2.7c7.4,3.3,12.3,10.5,12.7,18.6h-8.6c-0.4-3.9-2.4-7.4-5.5-9.8
	c-3.4-2.5-7.5-3.8-11.7-3.7c-4.7,0-8.4,1-11.1,3c-2.7,2-4.3,5.2-4.1,8.5c-0.1,2.3,0.7,4.6,2.4,6.2c1.8,1.6,3.9,2.8,6.2,3.4
	c3.4,1,6.9,1.7,10.4,2.2c7,1.2,12.6,3.2,16.8,6c4.2,2.8,6.3,7.2,6.3,13.4c0.1,3.8-1,7.5-3.2,10.7s-5.2,5.7-8.8,7.3
	c-4.1,1.8-8.5,2.7-13,2.6c-4.9,0.1-9.8-0.9-14.3-3c-3.9-1.8-7.2-4.7-9.5-8.3c-2.3-3.7-3.5-7.9-3.7-12.2h8.6
	C884.5,273.3,886.6,277.5,890.1,280.2z"/>
<path d="M960.8,292.4c-4.6,0.1-9-1-13-3.3c-3.7-2.2-6.7-5.4-8.7-9.2c-2.1-4.2-3.2-8.9-3.1-13.6c-0.1-4.7,1-9.4,3.2-13.6
	c2-3.8,5.1-7,8.8-9.1c4-2.2,8.5-3.3,13.1-3.2c6,0,11,1.6,14.8,4.8c4,3.3,6.6,8,7.3,13.2H975c-0.7-3.1-2.5-5.9-5-7.8
	c-2.7-2-5.9-3-9.2-2.9c-4.5-0.1-8.9,1.8-11.8,5.2c-3,3.5-4.5,8-4.5,13.5s1.5,10.1,4.5,13.6c5.5,6,14.6,7,21.2,2.4
	c2.6-2,4.3-4.8,4.9-8h8.2c-0.8,5.2-3.5,9.9-7.5,13.4C972,290.8,967,292.4,960.8,292.4z"/>
<path d="M1002.2,226.4c-0.1,2.8-2.5,5.1-5.3,5s-5-2.5-5-5.3s2.5-5.1,5.3-5c1.3,0,2.5,0.6,3.5,1.5
	C1001.7,223.6,1002.3,225,1002.2,226.4z M1001,240.8v51h-8.2v-51L1001,240.8L1001,240.8z"/>
<path d="M1022,243.5c3.8-2.2,8.2-3.3,12.6-3.2c4.3-0.1,8.6,0.9,12.4,2.9c3.6,1.9,6.5,4.8,8.5,8.4c2.1,4,3.3,8.4,3.3,12.9
	c0,0.7-0.1,1.9-0.2,3.5H1019v0.7c0.1,5,1.7,9,4.6,12c3,3,7.2,4.7,11.5,4.5c3.3,0.1,6.6-0.9,9.3-2.8c2.6-1.8,4.4-4.6,5.2-7.6h8.3
	c-0.9,5-3.6,9.5-7.5,12.8c-4.2,3.4-9.4,5.1-14.7,5c-4.6,0.1-9.2-1-13.3-3.2c-3.8-2.1-6.9-5.3-8.8-9.2c-2.2-4.2-3.2-8.9-3.2-13.6
	c-0.1-4.7,0.9-9.4,3-13.7C1015.4,248.8,1018.3,245.6,1022,243.5z M1045.4,251c-3-2.5-6.8-3.8-10.8-3.6c-3.8,0-7.4,1.3-10.2,3.8
	c-2.9,2.5-4.7,6.1-5,9.9h30.8C1050.1,257.2,1048.4,253.6,1045.4,251L1045.4,251z"/>
<path d="M1113.8,263.4v28.4h-8.2v-27.9c0-5.3-1.2-9.3-3.6-12.1s-5.8-4.1-10.2-4.1c-4.8,0-8.6,1.7-11.3,5c-2.7,3.3-4.1,7.9-4.1,13.6
	v25.5h-8.2v-51h7.1l1.1,6.9c3.9-5,9.5-7.5,16.8-7.5c6.2,0,11.2,1.9,15,5.6C1112,249.5,1113.9,255.4,1113.8,263.4z"/>
<path d="M1147.3,292.4c-4.6,0.1-9-1-13-3.3c-3.7-2.2-6.7-5.4-8.7-9.2c-2.1-4.2-3.2-8.9-3.1-13.6c-0.1-4.7,1-9.4,3.2-13.6
	c2-3.8,5.1-7,8.8-9.1c4-2.2,8.5-3.3,13.1-3.2c6,0,10.9,1.6,14.8,4.8c4,3.3,6.6,8,7.3,13.2h-8.3c-0.7-3.1-2.5-5.9-5-7.8
	c-2.7-2-5.9-3-9.2-2.9c-4.5-0.1-8.9,1.8-11.8,5.2c-3,3.5-4.6,8-4.6,13.5s1.5,10.1,4.6,13.6c5.5,6,14.6,7,21.2,2.4
	c2.6-2,4.3-4.8,4.9-8h8.2c-0.8,5.2-3.5,9.9-7.5,13.4C1158.3,290.8,1153.3,292.4,1147.3,292.4z"/>
<path d="M1188,243.5c3.8-2.2,8.2-3.3,12.6-3.2c4.3-0.1,8.6,0.9,12.4,2.9c3.6,1.9,6.5,4.8,8.5,8.4c2.1,4,3.3,8.4,3.3,12.9
	c0,0.7-0.1,1.9-0.2,3.5H1185v0.7c0.1,5,1.7,9,4.6,12c3,3,7.2,4.7,11.5,4.5c3.3,0.1,6.6-0.9,9.3-2.8c2.6-1.8,4.4-4.6,5.2-7.6h8.3
	c-0.9,5-3.6,9.5-7.5,12.8c-4.1,3.4-9.4,5.1-14.7,5c-4.6,0.1-9.2-1-13.3-3.2c-3.8-2.1-6.9-5.3-8.8-9.2c-2.2-4.2-3.2-8.9-3.2-13.6
	c-0.1-4.7,0.9-9.4,3.1-13.7C1181.4,248.8,1184.3,245.6,1188,243.5z M1211.4,251c-3-2.5-6.8-3.7-10.7-3.6c-3.8,0-7.4,1.3-10.2,3.8
	c-2.9,2.5-4.7,6.1-5,9.9h30.8C1215.9,256.8,1214.2,253.4,1211.4,251L1211.4,251z"/>
<path d="M1244.4,282.5c5.6,3.6,12.8,3.9,18.7,0.8c2.1-1.1,3.3-3.3,3.3-5.6c0.1-1.7-0.5-3.3-1.6-4.6c-1.2-1.1-2.6-1.9-4.2-2.2
	c-2.4-0.5-4.8-0.9-7.2-1.2c-3.7-0.4-7.3-1.1-10.8-2.1c-2.6-0.7-4.9-2.2-6.8-4.1c-1.7-1.9-2.6-4.5-2.6-7.9c0-2.9,0.8-5.7,2.5-8
	c1.8-2.4,4.2-4.3,7-5.4c3.1-1.3,6.5-2,9.9-1.9c6,0,10.9,1.4,14.7,4.2c3.8,2.8,5.8,6.8,6.2,12h-8.2c-0.3-2.6-1.7-5-3.9-6.6
	c-2.5-1.8-5.5-2.7-8.5-2.6c-3-0.1-5.9,0.6-8.4,2.1c-2,1.2-3.2,3.3-3.2,5.6c-0.1,1.5,0.5,2.9,1.5,4c1.1,1,2.4,1.6,3.8,1.9
	c1.6,0.3,4,0.7,7.2,1.1c3.7,0.4,7.4,1.1,11.1,2.2c2.7,0.8,5.1,2.4,7,4.5c1.8,2.1,2.7,4.9,2.7,8.4c0,2.9-0.9,5.8-2.7,8.1
	c-1.9,2.4-4.4,4.3-7.3,5.4c-3.2,1.3-6.7,1.9-10.2,1.9c-6.7,0-12-1.5-16-4.6s-6-7.3-6.2-12.8h8.2C1240.5,278,1242,280.7,1244.4,282.5
	z"/>
</svg>
