<?xml version="1.0" encoding="UTF-8"?>
<svg id="Ebene_1" data-name="Ebene 1" xmlns="http://www.w3.org/2000/svg" viewBox="0 0 299.36 104.03">
  <path d="M17,0l.53,32.39,8.15-.14c.17-11.21.21-21.58.32-32.25h16.54c.25.85.2,2.85.19,4.06l-.49,80.94h-16.45l-.44-37.2c-2.26-.31-5.08-.41-7.88-.33l-.39,37.54H0V0h17Z"/>
  <path d="M197,0c2.4-.24,13.59,6.56,15.22,15.12,1.93,10.1,1.39,21.09-6.21,28.92l7.17,37.08c.17.89.1,3.13.07,3.88h-16.42c-2.53-12.07-3.63-24.15-7.18-37-1.07,12.92-.57,24.87-.75,37h-16.83L172,0h25ZM195.23,16.46c-.36-2.36-3.87-3.95-6.2-3.13v22.37c9.04,2.57,6.92-14.48,6.2-19.25Z"/>
  <path d="M299.07,46.96c.29,9.46-.88,19.84-5.74,28.09-4.15,7.04-8.1,7.69-12.5,8.99-2.13.63-4.33.97-6.54.97h-16.5s-.43-79.99-.43-79.99c0-1.68-.03-3.72,0-4.94l23.64-.07c15.81,3.16,19.14,21.38,18.22,36.16M280.7,18.22c-.12-1.05-1.49-3.41-2.26-4.06s-2.83-.44-4.12-.03l.03,56.66c11.5,7.37,6.81-48.31,6.34-52.57Z"/>
  <path d="M116,0c5.1,28.18,9.69,56.61,13.22,85h-15.54c-.92-5.05-1.53-10.08-2.3-16.24-1.69-.59-6.25-.59-8.11-.03l-2.13,16.27h-16.16L98,0h18ZM104.29,53.69l5.68-.15-3.15-30.53c-.15,1.66-.46,2.81-.49,4.84l-2.03,25.84Z"/>
  <g>
    <path d="M3.77,100.68l-1.05,3.18h-1.35l3.44-10.11h1.57l3.45,10.11h-1.4l-1.08-3.18h-3.58ZM7.09,99.66l-.99-2.91c-.22-.66-.38-1.26-.52-1.85h-.03c-.15.6-.31,1.22-.51,1.83l-.99,2.92h3.04Z"/>
    <path d="M39.28,99.42c-.08-1.41-.17-3.11-.15-4.37h-.04c-.35,1.18-.77,2.45-1.28,3.84l-1.78,4.91h-.99l-1.63-4.82c-.48-1.42-.88-2.73-1.17-3.93h-.03c-.03,1.26-.1,2.96-.2,4.47l-.27,4.33h-1.24l.7-10.11h1.67l1.73,4.89c.42,1.25.77,2.35,1.02,3.41h.04c.25-1.02.61-2.13,1.06-3.41l1.8-4.89h1.67l.63,10.11h-1.27l-.25-4.44Z"/>
    <path d="M85,93.89c.57-.12,1.47-.21,2.38-.21,1.3,0,2.15.22,2.77.74.52.39.84.99.84,1.78,0,.98-.65,1.83-1.71,2.22v.03c.96.24,2.08,1.04,2.08,2.54,0,.87-.34,1.53-.85,2.03-.71.64-1.84.94-3.49.94-.9,0-1.59-.06-2.02-.12v-9.94ZM86.3,98.03h1.19c1.38,0,2.19-.72,2.19-1.69,0-1.19-.9-1.65-2.22-1.65-.6,0-.94.04-1.15.09v3.25ZM86.3,102.87c.25.04.63.06,1.1.06,1.35,0,2.59-.5,2.59-1.96,0-1.38-1.19-1.95-2.61-1.95h-1.08v3.85Z"/>
    <path d="M121.27,98.7c0,3.48-2.12,5.33-4.69,5.33s-4.54-2.07-4.54-5.13c0-3.21,1.99-5.31,4.69-5.31s4.54,2.11,4.54,5.11ZM113.42,98.87c0,2.16,1.17,4.09,3.22,4.09s3.24-1.9,3.24-4.2c0-2.01-1.05-4.11-3.22-4.11s-3.24,2-3.24,4.21Z"/>
    <path d="M142.46,93.89c.79-.12,1.74-.21,2.77-.21,1.87,0,3.21.43,4.09,1.26.9.83,1.42,2,1.42,3.63s-.51,3-1.46,3.93c-.94.95-2.5,1.46-4.47,1.46-.93,0-1.71-.04-2.37-.12v-9.94ZM143.77,102.83c.33.06.81.08,1.32.08,2.79,0,4.31-1.56,4.31-4.29.01-2.38-1.33-3.9-4.1-3.9-.67,0-1.18.06-1.53.13v7.98Z"/>
    <path d="M177.19,99.12h-3.93v3.65h4.38v1.09h-5.68v-10.11h5.46v1.09h-4.15v3.2h3.93v1.08Z"/>
    <path d="M198.83,103.86v-10.11h1.42l3.24,5.11c.75,1.19,1.33,2.25,1.82,3.29h.03c-.12-1.37-.15-2.59-.15-4.17v-4.23h1.23v10.11h-1.32l-3.21-5.13c-.71-1.12-1.38-2.28-1.89-3.38l-.04.02c.08,1.27.11,2.49.11,4.17v4.32h-1.23Z"/>
    <path d="M228.02,102.27c.58.36,1.44.66,2.34.66,1.33,0,2.12-.71,2.12-1.73,0-.94-.54-1.48-1.91-2.01-1.65-.58-2.67-1.44-2.67-2.86,0-1.58,1.3-2.75,3.27-2.75,1.04,0,1.79.24,2.24.5l-.36,1.06c-.33-.18-1-.48-1.92-.48-1.38,0-1.9.82-1.9,1.51,0,.95.61,1.41,2.01,1.95,1.71.66,2.58,1.48,2.58,2.97,0,1.56-1.16,2.91-3.54,2.91-.97,0-2.04-.29-2.58-.65l.33-1.09Z"/>
    <path d="M260.33,99.12h-3.93v3.65h4.38v1.09h-5.69v-10.11h5.46v1.09h-4.15v3.2h3.93v1.08Z"/>
    <path d="M287.21,99.12h-3.93v3.65h4.38v1.09h-5.69v-10.11h5.46v1.09h-4.15v3.2h3.93v1.08Z"/>
  </g>
</svg>