<?xml version="1.0" encoding="UTF-8"?>
<svg id="Ebene_1" data-name="Ebene 1" xmlns="http://www.w3.org/2000/svg" viewBox="0 0 1369.25 439.53">
  <path d="M1360.19,300.12c3.23-1.04,6.38-2.85,9.06-.02-124.29,49.69-285.61,94.2-416.89,113.59l-22.13,3.27-13.16,1.84-25.57,3.29-12.42,1.56-23.08,2.43-20.08,1.95-30.23,1.9-11.09,1.12-35.97.84c-17.85.42-35.36.44-53.2,0l-33.19-.8-11.72-1.24-26.41-1.81-20.98-2.13-25.69-3.23c-82-10.32-185.69-39.5-255.95-87.79-1.85,4.84-2.53,9.59-3.53,14.86-7.91,41.63-39.91,74.62-80.68,85.95-4.34,1.2-9.28,2.87-13.63,3.2-11.24.84-22.18.83-33.53.04-4.07-.29-9.09-2.01-13.33-3.18-39.63-11-70.98-42.41-80.14-82.55-.65-2.85-2.33-7.15-2.47-9.91l-.11-185.64-18.32-23.1C52.79,92.99,24.34,48.75,0,0c5.7,1.32,7.56,7.65,10.61,11.9l25.53,35.55c19.84,27.64,42.81,51.96,65.83,77,2.1,1.66,4.33,2.85,7.27,2.85l220.94.04.06,176.13c24.81,18.37,51.7,33.09,79.92,45.92,31.36,14.39,63.25,24.72,96.65,33.54,34.27,8.72,68.24,15.24,103.44,19.25l17.03,1.94,34.72,3.22,21.98,1.01,13.16.94,25.35.88c16.12.56,31.99.5,48.11.01l28.31-.85,12.21-.98,21.98-.91,22.02-1.99,15.74-1.23,18.12-1.91,23.07-2.43,13.44-1.62,24.63-3.24,13.26-1.82,15.23-2.16,11.11-1.81,21.77-3.47c101.56-16.21,201.68-38.24,299.62-69.82l49.09-15.83ZM301.26,394.94c6.93-8.86,14.37-21.56,17.65-31.41l2.76-8.31c.54-3.82,1.03-7.01,3.05-10.82v-211.5s-214.89,0-214.89,0l-.08,209.4,2.16,9.58c8.53,39.28,41.35,71.43,80.78,79.72,2.05.43,4.89,1.63,7.34,1.71,12.53.39,24.59,1.27,37.02-.7,23.41-3.72,49.47-18.83,64.22-37.68Z"/>
  <path d="M1181.19,300.28c8.39-5.59,9.61-15.78,9.35-24.67l-.46-15.97c-7.05,8.72-13.67,12.7-23.27,14.73-8.26,1.74-19.79-1.36-25.88-6.59-7.47-6.41-11.32-14.62-13.29-24.03-5.4-25.81,4.56-54.36,32.43-61.14,8.45-2.06,17.17-2.01,25.97-1.32,7.26.57,13.98.3,20.87,3.35l-.59,95.54c-.07,11.09-8.92,20.44-17.2,26.26-16.11,11.34-36.28,13.9-54.68,7.97-1.04-4.32.07-11.04,3.18-12.83l12.02,2.68c10.41,2.32,21.94,2.41,31.57-3.99ZM1173.54,261.47c8.68-3.48,14.82-12.13,15.96-21.66,1.77-14.76.29-29.71.78-45.42-8.47-4.6-17.66-6.38-27.12-3.68-8.55,2.44-15.32,9.54-17.54,18.73-3.46,14.27-4.77,43.65,12.85,51.6,4.16,1.88,10.18,2.39,15.07.43Z"/>
  <path d="M909.57,273.57c-11.02,1.4-30.46.25-39.78-3.73-.57-1.41-1.53-3.99-1.53-5.42l-.03-115.4-9.37-1.5c-1.37-.22-3.52-2.24-3.68-3.48s1.73-3.89,3.08-3.99l8.83-.64c4.88-.35,10.66-.94,15.68-.45,1.32.13,2.03,4.05,2.03,5.79l-.07,52.15c6.22-9.48,15.3-15.58,26.09-16.3,13.75-.92,25.91,4.63,32.2,16.91,5.64,11.51,7.07,24.6,5.14,37.13-3.16,20.61-17.2,36.23-38.61,38.94ZM918.37,262c8.44-5.73,12.53-15.36,13.06-25.35,2.07-13.46.42-33.33-12.29-41.22-9.06-5.62-19.88-3.74-26.63,4.78-3.29,4.15-7.23,10.64-7.28,16.52l-.41,43.71c7.6,5.84,26.17,6.59,33.56,1.56Z"/>
  <path d="M433.95,149.77l29.16-.07c1.36,0,4.25,2.33,3.65,3.59-1.83,3.8-5.26,5.45-9.67,6.68l-40.96,108.78c-1.06,2.81-2.81,5.34-4.7,5.67-2.94.52-7.22.15-8.35-2.87l-40.71-109.15c-1-2.69-5.83-3.99-7.7-5.33l-3.33-2.38c-.9-.65.14-4.78,1.24-4.78l38.32-.17c1,0,2.46,2.52,2.27,3.43-.23,1.1-1.76,2.61-3,3.17l-10.28,4.58,32.53,88.81c2.32-3.59,3.29-6.18,4.41-9.74l25.09-79.29c-3.73-1.69-13.48-5.29-11.09-9.2.42-.69,2.29-1.72,3.12-1.72Z"/>
  <path d="M692.48,273.17l-1.06-12.96c-8.8,10.51-20.24,16.45-33.95,14.02-25.85-4.57-31.32-31.34-28.53-53.76,2.03-16.29,12.16-30.34,27.43-36.11,10.73-4.05,21.46-3.87,32.6-3,6.63.52,12.76.23,18.9,3.35v75.86c7.08,6.31,10.9,1.49,13.46,6.95,3.36,7.19-25.32,5.86-28.85,5.64ZM692.01,233.48v-38.83c-10.29-6.2-23.5-7.45-33.69-.94-19.8,12.65-18.36,65.4,6.72,68.68,17.37,2.27,26.97-14.28,26.97-28.9Z"/>
  <path d="M547.13,225.59c.84,28.06-18.97,49.03-46.18,49.52-5.31.1-11.83-1.53-16.51-3.08-21.98-7.27-28.53-32.31-25.35-52.41,3.7-23.41,23.16-39.65,46.96-39.14,12.45.27,23.99,4.2,31.92,14,7.33,9.06,8.82,19.58,9.16,31.11ZM528.41,244c2.28-10.08,2.53-18.96.08-28.64-2.7-10.66-8.69-20.82-20.71-22.72-4.01-.63-10.39-.78-14.41.18-8.56,2.04-14.11,9.89-16.02,18.16-3.99,17.26-1.97,44.8,18.03,51.22,15.26,4.9,29.51-2.61,33.04-18.21Z"/>
  <path d="M1005.45,261.87c26.27,2.76,32.08-13.43,34.24-.63-17.88,17.55-56.56,20.49-69.1-5.42-7.56-15.62-7.83-34.43-2.16-50.78,5.92-17.08,21.29-25.33,38.57-24.56,16.25.73,28.86,9.55,32.15,26.07.94,4.71,1.66,11.22,1.11,16.42-.14,1.34-3.74,2.49-5.52,2.49l-52.32.05c-1.66,16.02,4.69,34.43,23.03,36.36ZM1021.61,216.64c1.67-8.76-1.04-17.04-6.83-22.99-4.54-4.67-11.63-5.3-17.95-3.33-9.06,2.83-16.36,18.67-13.06,26.35l37.84-.03Z"/>
  <path d="M809.69,273.39c-2.04.01-4.21-1.54-4.39-2.58-.21-1.21,1.4-3.64,2.54-4.1l10.47-4.15-.06-111.99c-1.53-3.53-13.26-1.24-13.01-6.57.11-2.28,2.44-4.13,4.64-4.2,8.71-.27,21.62-2.51,24.97.37l.06,121.9,10.05,4.62c.96.44,2.33,1.81,2.93,2.51s-.47,3.96-1.68,3.96l-36.52.22Z"/>
  <path d="M774.06,273.31l-38.08.03c-1.24,0-2.73-3.99-1.8-4.75,6.86-5.64,13.02-2.76,13.02-9.03l-.03-65.87c-5.39-4.93-13.53-2.44-13.3-6.58.34-6.17,23.15-5.79,28.73-5.14l.3,16.03c7.19-12.4,13.3-19.64,29.35-16.63,2.26.42,6.18,1.38,6.07,4.19-.18,4.63-1.31,8.87-2.92,13.06l-13.37-3.36c-12.22.25-18.89,20.74-18.94,28.29l-.21,36.95c-.03,4.51,17.75,5.38,14.02,11.33-.41.65-1.91,1.48-2.82,1.48Z"/>
  <path d="M1095.6,273.32h-38.37c-1.37,0-2.62-3.21-2.2-4.24s2.02-2.58,3.12-2.98l10.07-3.68.03-69.32-12.1-3.74c-.89-.43-1-3.39-.69-4.88,8.89-2.7,18.97-3.9,28.17-2.03l.87,12.92c5.3-5.53,7.35-11.1,13.78-13.38s13.69-1.44,20.17.91c.64,3.73-.08,12.72-1.92,14.57-3.74,3.78-12.39-7.81-22.75,2.11-5.97,5.71-9.44,14.67-9.52,23.41l-.34,36.47c-.07,7.74,10.44,3.1,14.1,10.56.39.8-1.23,3.3-2.43,3.3Z"/>
  <path d="M587.84,258.61c-.09,8.12,8.97,3.86,13.99,10.65.55.75-.39,3.99-1.68,3.99l-39.04.09c-.96,0-2.42-2.49-2.24-3.4.22-1.09,1.78-2.97,2.9-3.37l10.32-3.6.1-69.6c-5.33-4.3-13.45-2.09-13.28-6.3.09-2.25,1.66-3.15,3.9-3.62,8.3-1.74,16.25-2.3,24.73-1.52.33,5.38.34,9.26,1.29,14.89,6.07-13,15.86-18.22,28.62-15.5,2.89.62,6.4,1.85,5.74,5.64l-1.99,11.34c-3.54-.22-7.61-1.42-11.48-2.6-12.61-3.83-21.38,17.06-21.52,29.07l-.37,33.83Z"/>
  <path d="M933.62,350.32l-1-2.69c-.18-.48-2.06.98-2.41,1.5-3.27,4.79-13.26,7.22-17.27,1.45-5.85-8.43-2.77-20.26,3.23-27.69,7.56-9.35,17.84-4.08,21.41-6.33,2.22-1.4.71-19.58,7.12-16.18.92.49,1.28,2.41,1.06,3.62l-2.01,11.21-2.7,16.34-3.29,20.61-2.4.9c-.65.25-1.23-1.35-1.74-2.74ZM926.94,346.91c7.32-6.3,10.15-15.18,9.35-24.41-3.95-.91-9.15-1.79-12.33.2-7.88,4.94-9.99,16.07-6.24,24.33,1.48,3.26,6.77,1.99,9.22-.11Z"/>
  <path d="M846.58,353.29l-2.74-5.29c-1.57-3.02-4.19,4.35-12.65,5.52-2.52.35-6.45-1.41-8.04-4.14-5.03-8.62-2.04-28.05,10.98-32.02,5.84-1.78,13.24-1.22,18.95,1.06.15,6.4-1.52,12.47-2.37,18.32s-1.45,11.02-4.12,16.57ZM846.44,328.86c.25-1.79.87-6-.61-6.93-4.2-2.62-10.45-1.68-13.83,1.69-6.06,6.04-7.89,19.33-2.39,24.04,4.72,4.04,14.8-4.39,16.83-18.8Z"/>
  <path d="M639.88,322.08c-13.71,13.38-6.03,28.26-13.39,28.83-1.28.1-2.55-2.38-2.31-3.77l2.11-12.15,2.95-17.02c.07-.4.96-1.82,1.32-1.65,3.67,1.67,2.24,4.5,4.04,4.2,3.06-.51,12.4-11.68,19.92-2.59,4.36,5.28,2.38,11.14,1.41,17.28l-2.17,13.84c-.16,1-2.29,2.55-3.22,2.41-6.79-1.02,3.39-14.6-.36-29.43-1.21-4.79-8.06-2.11-10.29.07Z"/>
  <path d="M883.32,321.49c-13.52,6.01-11.02,24.76-14.16,30.8-.49.95-4.56.24-4.42-.79l2.59-18.41,1.81-12.63c.15-1.05.64-2.58,1.31-3.04s2.97.21,3.16,1.01l1,4.35c5.41-4.72,10.73-8.23,18-5.65,8.86,3.15,2.72,23.98,1.27,34.52-.18,1.32-5.01,1.38-4.92,0,.28-4.73.78-10.19,1.6-14.42s1.97-8.34,1.14-12.56c-.65-3.3-5.16-4.6-8.37-3.17Z"/>
  <path d="M709,344.99c5.36,6.67,11.23,1.25,19.05,3.75-2.84,6.45-21.07,5.92-24.66-1.75-3.81-8.14-.83-26.29,10.7-30.44,5.72-2.06,11.77-2.07,16,1.68,3.8,3.37,3.87,8.28.18,11.66-8.46,7.76-16.28,3.42-22.22,6.61-1.63,2.32-.58,6.58.95,8.5ZM726.68,324.76c.04-4.36-4.02-5.77-7.94-5.21-4.26.61-10.03,5.84-8.99,10.45,1.24,5.48,16.88-.21,16.93-5.24Z"/>
  <path d="M610.63,332.73l-2.73,16.91c-.19,1.15-3.37,1.08-3.77.1l-1.79-4.42c-4.44,4.34-8.39,7.65-13.82,6.93-5.3-.7-9.27-5.44-8.45-10.82l2.88-18.91c.25-1.63.65-3.94,1.1-5.22.38-1.1,2.9-1.69,5.06-1.37l-3.1,25.41c-.18,1.47,1,4.25,1.8,5.18,3.52,4.14,15.1-2.32,17.46-14.63l2.7-14.09c.21-1.08,2.86-2.61,3.88-2.5s1.45,2.9,1.23,4.06l-2.45,13.36Z"/>
  <path d="M807.6,347.72c1.16.05,3.2.04,3.25.68l.31,4.18-23.41.1c.27-8.14,1.48-14.73,2.73-22.27l1.86-11.22,1.64-11.69c.17-1.23,1.19-3,1.92-3.72s4.46-.2,4.42.79c-.12,3.17-1.13,8.88-1.63,12l-1.97,12.31-2.61,18.28,13.48.56Z"/>
  <path d="M688.77,345.25c-2.96,9.37-21.43,10.11-22.02,3.78,2.13-2.43,16.47,2.62,17.05-6.83.38-6.17-13.02-6.22-12.97-16.12.02-4.43,2.42-8.01,7.37-9.9,2.03-.77,12.51-2.74,13.35,2.03.72,4.06-13.39-3.13-14.94,7.36,1.89,8.47,16.51,5.91,12.17,19.68Z"/>
  <path d="M742.86,350.16l1.68-12.24,2.8-18.71c.21-1.37,3.52-2.51,3.8-1.56l1.43,4.88c1.29-.53,11.34-11.2,13.71-5.54,2.21,5.29-7.52,1.45-13.47,12.56-5.29,9.88-1.9,17.72-6.74,22.87-.65.7-3.37-1.06-3.21-2.26Z"/>
  <path d="M658.33,193.7c10.19-6.51,23.4-5.26,33.68.94" fill="#fff"/>
  <path d="M292.71,183.85v158.54c0,8.66,3.14,16.02-.92,24.46l-37.08-.19-.11-93.11c-6.5-.62-12.7-.6-20.04-.3l.49,110.45c.04,8.03,5.22,17.3-2.86,24.35l-8.16-.16-13.08-.02-7.95.14-5.4-2.61-.09-132.09-20-.1-.09,93.76-36.83-.24-.09-183.87c-10.45-.95-19.66-14.32-14.45-25.27,2.53-5.31,5.26-8.61,11.14-10.85,3.47-1.33,6.85-2.55,10.67-.85,5.57,2.48,12.41,6.09,13.86,12.29s.62,12.81-1.79,17.96l37.83-.17c6.58-.03-3.85-6.49.84-17.79,2.56-6.16,6.17-9.26,12.24-11.76,3.82-1.58,7.37-2.05,11.53.07s10.72,4.83,11.74,10.43c.5,2.74,1.57,15.85-1.24,19.11l39.87-.02c.11-3.12-1.05-5.89-1.85-8.81-2.41-8.78,4.39-17.29,11.99-20.43,4.93-2.04,8.4-2.5,13.22.11,1.73.94,5.35,2.58,6.54,3.93l4.71,5.36.17,17.03c-8.48,7.93-3.32,5.85-14.81,10.66ZM150.25,162.36c-1.96-4.07-7.13-4.7-10.01-2.55-3.33,2.48-2.65,9.52,1.84,10.96,2.49.8,5.16-.53,6.6-2.09,1.32-1.42,2.52-4.35,1.57-6.32ZM223.22,163.11c-1.2-3.93-7.13-5.58-9.93-3.43-3.61,2.77-2.64,9.52,1.8,11.1,4,1.42,9.57-2.96,8.13-7.67ZM295.74,166.11c1.5-3.28-1.99-6.67-4.35-7.15-3.54-.73-7.04.48-7.24,4.47-.17,3.36,1.27,6.76,4.24,7.59s5.57-1.02,7.35-4.91Z"/>
</svg>