<?xml version="1.0" encoding="UTF-8"?>
<svg id="Ebene_1" data-name="Ebene 1" xmlns="http://www.w3.org/2000/svg" viewBox="0 0 643.47 501.73">
  <path d="M340.6,492.92c1.11-4.69,4.93-7.87,8.56-9.83,5.66,5.53,12.78,6.24,19.08,3.51,6.68-2.9,8.5-11.89,4.23-18.67-16.04,4.71-35.33-.84-37.36-18.87-1.42-12.55-1.72-26.78.08-39.19,2.76-19.02,24.63-24.1,40.19-17.83,4.49.01,9.99-2.16,13.7,2.26l.05,77.69c0,12.7-5.47,23.02-15.88,27.22-11.22,4.53-23.75,3.3-32.66-6.28ZM373.44,449.36c1.97-12.82,2.18-26.09.41-38.79-.82-5.83-9.91-8.81-14.56-7.89-15.74,3.13-12.36,19.61-11.87,40.81.15,6.33,5.62,11.93,10.71,12.74s14.27-.06,15.31-6.88Z"/>
  <path d="M97.37,228.21c-9.42-5.7-11.25-15.45-9.53-26.64,3.17-20.56,36.84-16.75,39.68-26.36,2.58-7.83-6.69-10.5-12.43-9.94-7.02.68-10.74,5.27-11.37,12.82-3.04,3.28-10.62,3.53-14.67.4-1.56-14.61,9.54-26.79,23.39-28.52,14.86-1.86,30.62,6.44,31.03,22.2l1.1,41.75c5.53,2.42,8.33,10.2,3.69,14.49s-11.83.47-16.51-2.04c-10.93,6.37-23.53,8.42-34.39,1.85ZM114.12,216.63c5.5-.06,11.7-2.41,13.37-8.12,1.45-4.95,1.03-10.72.02-16.21-8.09,1.84-16.05,3.54-21.79,8.17-3.83,3.09-4.43,8.16-2.62,11.49,2.21,4.04,5.3,4.73,11.01,4.67Z"/>
  <path d="M274.85,96.15c21.08,4.63,12.13-11.22,25.93-9.83,2.22.22,7.27.98,6.67,5.48-1.89,14.07-17.6,22.8-30.76,21.01-15.22-2.06-25-13.7-24.95-29.48l.08-25.75c.04-13.73,10.03-24.85,22.31-26.95,13.65-2.33,28.43,3.67,32.53,17.23,2.98,9.87,2.01,20.05.4,30.73l-38.5.82c-3.49,6.63.13,15.39,6.29,16.74ZM292.59,63.32c2.55-6.15.07-13.11-4.92-15.78-4.66-2.5-11.96-2.36-16.03.68-4.58,3.42-5.64,9.87-3.13,15.24l24.08-.15Z"/>
  <path d="M144.35,419.93c-.65,11.03.78,21.79-1.77,31.77-3.83,15.01-19.16,17.83-33.6,16.99l-19.7-1.13-.24-105.19c3.18-3.1,9.28-3.98,12.85-1.35,1.84,6.03.34,25.73,1.64,27.94,2.27,3.86,19.92-4.28,32.14,7.35,6.21,5.91,9.23,14.02,8.67,23.61ZM130.64,414.02c-.77-7.65-9.27-12.31-15.59-11.42-6.98.98-12.23,6.31-12.36,13.94-.32,18.68-3.75,39.14,13.25,40.12,19.44,1.12,16.29-26.86,14.71-42.64Z"/>
  <path d="M191.47,50.67c1.7,15.07-7.46,49.54,13.32,45.97,14.46-2.48,4.35-17.81,15.37-18.87,2.69-.26,6.16.55,8.41,2.71,3.18,15.73-7.47,30.47-23.43,32.03s-29.02-10.84-29-26.99c.02-11.97.18-23.49-.78-35.06-5.15-.14-9.74.42-10.98-2.17-1.34-2.79-1.31-7.41-.13-10.59.94-2.53,6.44-2.36,10.78-2.99,2.3-10.43.03-21.45,1.68-32.19,2.82-3.56,10.26-3.1,14.22-.27l.63,32.06,28.54,1.86c4.79.31,4.15,13.44-.51,13.59l-28.12.89Z"/>
  <path d="M191.28,205.51c-.01,6.78,6.65,11.68,12.5,11,17.71-2.05,2.77-28.29,24.68-16.4,3.14,15.32-6.4,28.95-21.37,31.51s-30.18-7.63-30.59-23.27l-1.02-38.21c-4.44-.52-9.87.21-11.05-2.07-1.25-2.43-1.47-7.6-.44-10.54.95-2.72,6.11-3.19,10.5-3.25,4.19-10.02-.62-21.09,2.55-31.75,1.35-4.55,10.53-3.88,13.88-.51l.7,32.09c9.97.63,18.26-.18,27.45,1.03,5.4.71,5.66,12.3.96,13.65-9.43,2.7-18.59-.64-28.68,1.71l-.07,35.01Z"/>
  <path d="M2.78,110.38c-3.74-3.14-3.55-10.81-.37-14.06l25.66-.73.14-79.3-19.05-1.55c-4.28-3.12-3.64-10.57-.42-14.14C20.22.2,31.3-.07,43.7,1.23l.52,94.02c7.62,1.62,14.35-.58,21.12,1.64,4.21,1.37,3.6,10,.45,13.39l-63.01.11Z"/>
  <path d="M429.06,347.55c-9.43-4.31-13.12-14.95-11.38-25.19,3.79-22.32,36.68-15.94,40.52-27.38,2.71-8.07-7.06-12.55-13.19-11.6-7.52,1.17-12.42,6.22-12.33,14.15-2.69,1.65-7.11,2.16-9.85,1.64-3.39-.64-3.17-6.12-2.38-9.78,2.57-11.97,13.81-19.05,25.46-19.25,11.7-.21,25.49,6.63,25.92,19.63l1.44,44.11c2.5,1.93,5.51,3.52,5.9,5.42.45,2.21-.11,7-1.69,8.17-4.46,3.32-10.71.27-15.18-2.38-10.63,4.39-22.38,7.43-33.24,2.46ZM443.08,336.74c5.37-.12,11.78-1.34,13.89-6.39,2.68-6.43,3.75-13,.84-19.85-9.43,1.05-32.15,8.26-26.46,20.28,2.45,5.18,5.34,6.11,11.73,5.96Z"/>
  <path d="M379.06,215.62c2.95,3.79,2.7,9.8.38,14.24l-51.42-.18c-4.06-.01-4.01-7.82-3.24-10.52,1.08-3.8,6.31-4.31,11.84-3.98l.98-40.75c.41-16.78,16.95-26.6,32.17-24.69,17.13,2.15,26.56,16.52,24.33,33.77-.41,3.14-.01,7.39-3.05,8.23-21.85,6.05-3.05-21.54-20.75-26.07-5.75-1.47-15.86.22-16.51,7.89-1.17,13.81-.71,27.09-.11,41.33l25.39.73Z"/>
  <path d="M307.49,154.05v75.2s-16.57.65-16.57.65c-8.58,3.27-16.93,3.39-25.97-1.49-5.78-3.12-13.31-11.23-13.34-20.07l-.2-54.07c3.19-4.25,12.34-4.19,15.48.49l1.03,54.2c.13,7.02,9.19,8.14,14.82,7.49,4.75-.55,10.23-5.91,10.28-12.28l.35-50.42c3.44-3.59,10.89-3.62,14.12.29Z"/>
  <path d="M379,96.3c3.43,3.21,2.84,10.31.2,14.05l-51.6-.13c-3.95-.86-3.62-7.8-2.68-11,1.08-3.65,6.46-3.37,11.96-3.51l.71-40.27c.3-16.95,16.76-27.13,32.17-25.14,16.61,2.15,26.49,16.23,24.35,33.22-.37,2.92.11,7.34-2.6,8.55-20.9,9.29-4.47-22.39-21.62-25.83-5.28-1.06-15.35-.09-16.04,7.25-1.31,13.99-.68,27.36-.35,42.13l25.5.68Z"/>
  <path d="M212.07,446.79c2.3-2.24,8.37-.78,11.83.67-.15,14.26-12.9,22.72-26.79,22.27-9.83-.32-22.21-4.6-24.51-16.95-2.57-13.78-2.11-30.73-.22-45.28,1.57-12.04,14.55-17.4,24.43-18.03,10.63-.68,22.43,5.13,26.23,16.2,3.09,9.02,1.91,20.67.79,29.57-13.26,3.35-24.93-2.07-37.46,1.97-5.95,4.55-1.34,15.96,4.62,18.12,8.7,3.14,17.39.75,21.09-8.53ZM210.09,422.65c3.47-6.7,1.13-14.03-4.43-17.63s-11.21-3.32-17.3,1.05c-4.4,3.16-6.4,10.4-2.76,16.49,7.68,1.01,17.04,1,24.49.09Z"/>
  <path d="M306.24,330.89c-1.69,12.79-13.31,18.85-23.63,19.41-11.01.59-24.15-3.34-27.22-16.07-3.59-14.89-3.73-33.65.12-48.69,2.89-11.25,16.61-15.91,26.17-15.43,10.43.52,22.5,6.35,24.46,18.63,2.11,13.2,1.93,28.34.1,42.15ZM293.74,327.49c1.13-11.27.95-22.83.19-33.98-.43-6.25-8.03-10.41-13.04-10.19s-13.52,3-13.84,9.33c-.62,12.26-.86,24.79.46,36.79.72,6.59,9.29,7.26,14.22,7.27,4.43.01,11.31-2.3,12-9.22Z"/>
  <path d="M579.86,348.54c-2.66-2.15-2.82-7.13-2.37-9.8,1.04-6.16,21.66,1.47,28.92-5.54l-.05-78.29c-6.5-4.37-13.03-1.26-20.48-2.58-3.46-1.24-2.9-9.64.25-11.94l33.14.12.49,94.32c8.27,1.95,14.26,1.4,21.83,1.57,2.76,2.59,2.28,8.78-.21,12.2l-61.53-.06Z"/>
  <path d="M85.88,110.43c-2.45-4.6-2.04-9.31-.55-14.15l26.71-.69c.73-16.41.68-32,.16-48.28l-19.29-.71c-3.46-2.72-3.3-11.28.1-14.15,11.75-.49,22.29-.57,34.69.39l.6,62.42c6.9,1.06,12.76-.07,19.03,1.63,4.52,1.22,4.04,11.38.02,13.39l-61.47.14Z"/>
  <path d="M295.82,455.57c2.36,3.69,2.01,8.87.5,12.9h-51.06c-1.2-3.13-2.48-10.8.49-12.14,2.79-1.26,6.79-1.64,8.72-3.17s1.86-29.51,1.54-32.74c-1.52-15.5,8.48-28.88,23.84-30.67,9.4-1.1,16.59,1.32,22.99,6.94,11.95,10.49,7.26,32.05,5.96,32.38-22.99,5.69.15-17.68-21.62-26.12-5.56-2.15-16.09,1.58-16.8,9.34-1.28,13.94-.96,27.37-.05,42,8.89,1.45,16.38.88,25.48,1.3Z"/>
  <path d="M355.92,335.49c7.63,1.68,15.86.19,23.87,1.16.77,4.34.39,8.26-1.23,12.01l-50.76-.11c-2.53-2.28-3.56-8.68-1.66-10.68,1.83-1.93,6.91-2.39,10.99-3.22,2.69-13.68-.28-28.23,1.63-41.73,2.23-15.82,16.77-24.59,31.08-22.7,15.49,2.04,25.2,15.3,23.42,31.29-.35,3.11,1.1,7.17-2.34,8.02-19.97,4.94-2.94-16.11-16.73-23.98-5.75-3.28-9.86-3.1-16.21.08-5.43,2.72-6.25,9.44-5.93,16.01.68,13.57-2.54,32.43,3.88,33.84Z"/>
  <path d="M516.67,332.88c8.42,7.91,28.79-1.3,28.77,6.98,0,3.44.81,8.74-3.89,8.74l-49.84-.09c-1.46-3.18-2.08-8.39-.52-10.81,1.44-2.23,7.04-2.09,11.3-2.64l1.43-43.37c.51-15.64,17.55-23.57,31.74-21.31,15.45,2.46,23.25,14.95,22.62,31.27-.11,2.9.35,6.68-2.5,7.8-2.83,1.11-6.64,1.32-9.35.25s-2.67-6.07-2.08-9.28c1.74-9.42-4.11-17.16-13.59-17.32-8.93-.15-14.71,7.31-14.58,16.22l.5,33.55Z"/>
  <path d="M216.41,277.65c1.18-3.53,3.62-5.92,6.59-6.18,2.33-.2,8.75.96,7.86,4.96l-24.89,71.59c-5.71.99-11.26.98-16.54-.52l-25.23-72.32c2.84-4.63,12.35-5.38,15.22-1.26l14.81,47.7c.9,2.89,1.86,5.61,5.71,5.2l16.48-49.18Z"/>
  <path d="M44.13,298.73c-7.92.96-14.38.91-21.94-.05-1.9-7.91-2.29-15.71-.1-23.62,6.71-2.02,14.92-2.03,21.82-.04,2.27,7.4,1.66,15.14.22,23.7Z"/>
  <path d="M44.99,349.08l-23.49.19c-.69-8.15-.68-14.69-.13-23.14,8.23-1.22,15-1.21,23.43-.1.48,8.04.49,13.97.19,23.05Z"/>
  <path d="M127.8,20.54c-6.02,1.93-13.62,1.83-19.07-.27-1.1-6.47-1.29-12.96.15-19.22,6.6-.94,12.43-.83,19.05-.34,1.35,6.59,1.97,13.12-.13,19.84Z"/>
</svg>