<?xml version="1.0" encoding="UTF-8"?>
<svg id="Ebene_1" data-name="Ebene 1" xmlns="http://www.w3.org/2000/svg" xmlns:xlink="http://www.w3.org/1999/xlink" viewBox="0 0 227.87 90.27">
  <defs>
    <clipPath id="clippath">
      <polygon points="-42.96 -39.15 244.68 -39.15 244.68 104.61 -42.96 104.61 -42.96 -39.15 -42.96 -39.15" clip-rule="evenodd" fill="none"/>
    </clipPath>
  </defs>
  <g clip-path="url(#clippath)">
    <path d="M114.09,38.24l.06-4.51,4.83-.02c.04,1.77.09,3.47-.05,5.28-.29,3.71-2.69,6.66-6.29,7.63-3.39.91-6.93.92-10.32-.08-3.57-1.06-6.2-4.14-6.2-7.99V8.73c0-3.99,2.74-7.12,6.45-8.1,3.34-.88,6.72-.82,10.03.06,3.8,1.1,6.37,4.25,6.37,8.27l.04,16.08h-18.07s0,13.07,0,13.07c.13,2.31,1.46,4.07,3.69,4.62,1.96.49,4.01.5,5.97-.05s3.45-2.24,3.48-4.44ZM114.14,20.85l-.02-11.88c-.2-2.17-1.47-3.82-3.56-4.38-1.97-.53-4.06-.53-6.04,0-2.16.58-3.43,2.31-3.57,4.56v11.72s13.19-.02,13.19-.02Z"/>
    <path d="M130.5,29.98c0-3.53,1.54-6.94,5.01-8.31,1.41-.46,2.86-.79,4.37-.8l8.69-.03-.03-11.87c0-2.17-1.52-3.83-3.5-4.41-1.87-.47-3.74-.49-5.6,0s-3.29,2.16-3.32,4.22l-.08,4.78h-4.83c-.01-1.89-.08-3.63.09-5.47.33-3.66,2.69-6.56,6.24-7.49,3.11-.82,6.29-.83,9.45,0,3.66.97,6.4,4.07,6.4,8.03l.07,37.52-2.11.04-1.8-4.37c-3.18,5.09-8.27,6.49-13.68,4.72-3.8-1.25-5.38-4.83-5.38-8.6v-7.98ZM138.18,42.77c2.94.86,5.73-.02,7.87-2.05,1.01-1.1,2.42-2.33,2.43-3.98l.07-11.69h-8.58c-1.17,0-2.26.39-3.17,1.05-.86,1.03-1.4,2.3-1.4,3.7l-.02,8.16c0,1.84.72,4.19,2.81,4.81Z"/>
    <path d="M189.02,37.55c0,3.85-2.49,6.81-5.86,7.96-1.56.43-2.98.72-4.61.72h-11.9s0-45.15,0-45.15h11.86c1.63,0,3.08.3,4.65.74,3.38,1.19,5.87,4.21,5.87,8v27.74ZM184.18,36.99V10.21c-.01-2.26-1.55-3.93-3.49-4.6-.84-.18-1.64-.35-2.48-.35h-6.68s0,36.78,0,36.78h7.02c1.39,0,2.67-.39,3.82-1.1,1.1-.97,1.81-2.25,1.81-3.94Z"/>
    <path d="M77.93,46.52c-3.69,1.06-7.43,1.02-11.01-.02s-6.27-4.2-6.27-8.1V8.87c0-3.9,2.61-7.05,6.27-8.09s7.41-1.03,11.01.01,6.29,4.25,6.29,8.22v29.43c-.02,3.89-2.59,7.03-6.29,8.09ZM76.01,42.56c1.97-.62,3.34-2.34,3.34-4.45V9.34c.01-2.32-1.44-4.1-3.59-4.69s-4.57-.62-6.8.04c-2.08.62-3.47,2.39-3.47,4.65v28.6c0,2.31,1.44,4.12,3.59,4.7s4.61.65,6.92-.08Z"/>
    <polygon points="47.23 20.61 22.01 20.62 20.72 17.21 0 17.2 0 8.18 18.98 8.18 20.25 11.57 47.21 11.58 47.23 20.61"/>
    <polygon points="47.23 37.29 28.3 37.3 26.96 33.89 0 33.88 0 24.86 25.18 24.86 26.52 28.25 47.21 28.26 47.23 37.29"/>
    <path d="M149.3,65.88c.13,1.78-1.11,3.12-2.88,3.22-1.55.09-3.07.07-4.73.06v-10.66c2.35.16,6.56-.75,7.26,2.02.32,1.28-.1,2.44-1.33,3.08,1.05.43,1.61,1.17,1.69,2.28ZM145.72,62.96c.75,0,1.35-.55,1.45-1.21.09-.59-.1-1.47-.88-1.62-.89-.17-1.82-.15-2.75-.1v2.95s2.18-.03,2.18-.03ZM146.4,67.55c.78-.15,1.06-.99,1.05-1.55s-.28-1.4-.98-1.52c-.94-.16-1.84-.13-2.92-.12v3.31c1.02.01,1.91.05,2.85-.12Z"/>
    <path d="M221.29,89.03l.82-1.1c.89.88,1.94,1.19,3.03.72.76-.33,1.05-1.25.84-2.02-.84.59-1.7.83-2.74.58-.76-.18-1.6-.87-1.96-1.79-.86-2.16-.44-5.57,1.84-6.19,1.13-.31,2.17-.1,2.95.68l.3-.68,1.5.06-.02,7.91c0,1.57-1.22,2.79-2.71,3.01s-2.71-.04-3.84-1.17ZM226.02,84.77c.07-1.14.07-2.22-.02-3.25-.07-.78-1.15-1.02-1.76-.95-1.68.19-1.79,2.63-1.42,3.97.22.78.87,1.28,1.55,1.3.6.02,1.6-.24,1.65-1.08Z"/>
    <path d="M184.15,71.08c.19-.36.51-.8.81-1.14.93.92,2.17,1.27,3.27.56.58-.38.76-1.26.59-1.87-.85.62-1.83.86-2.92.53-.68-.2-1.47-.88-1.82-1.8-.83-2.2-.41-5.61,2.02-6.18,1.06-.25,2.04.02,2.81.7l.28-.66,1.5.05-.02,7.92c0,1.46-1.05,2.64-2.41,2.95-1.48.34-2.89.09-4.11-1.06ZM188.85,66.84c.08-1.14.09-2.26,0-3.31-.06-.74-1.1-1-1.67-.96-.65.04-1.27.5-1.49,1.24-.42,1.42-.31,3.93,1.5,4.03.55.03,1.61-.23,1.67-1.01Z"/>
    <path d="M71.73,71.07c.14-.34.47-.78.81-1.11.94.89,2.05,1.21,3.14.62.68-.37.88-1.27.71-1.95-.84.58-1.72.85-2.83.56-2.32-.6-2.78-4.1-1.9-6.23.38-.92,1.19-1.59,1.99-1.78,1.06-.25,2.05.01,2.81.7l.29-.66,1.5.04-.02,7.92c0,1.53-1.14,2.72-2.57,2.99s-2.81.02-3.94-1.11ZM76.4,66.84c.09-1.14.09-2.26,0-3.31-.07-.75-1.11-1-1.68-.96-1.78.13-1.9,2.68-1.49,4.03.22.73.84,1.2,1.49,1.24.56.04,1.63-.2,1.69-1Z"/>
    <path d="M163.52,68.36c-.62.82-1.6,1.09-2.73.88-.78-.15-1.65-.83-2.04-1.79-.84-2.09-.5-5.47,1.71-6.19,1.1-.36,2-.14,3.01.57l.03-3.89,1.79.02v11.13s-1.57.1-1.57.1l-.19-.83ZM163.44,66.72c.06-1.12.08-2.22-.04-3.2-.1-.79-1.14-1-1.78-.93-.59.07-1.19.61-1.36,1.35-.32,1.41-.24,3.87,1.52,3.91.63.02,1.6-.26,1.65-1.13Z"/>
    <path d="M67.72,66.69h-4.12s-.88,2.47-.88,2.47l-1.91-.04,3.99-10.58h1.72s3.99,10.57,3.99,10.57l-1.92.07-.87-2.49ZM67.17,65.14l-1.52-4.34-1.53,4.36,3.04-.02Z"/>
    <path d="M83.07,86.53c-.73.61-1.6.9-2.6.73-2.49-.44-3.05-4.05-2.12-6.32.36-.88,1.15-1.55,1.89-1.73,1.04-.26,1.85-.06,2.84.63l.04-3.89,1.76.02v11.15c-.88.07-1.53.32-1.81-.58ZM83.05,84.75c.07-1.12.07-2.18-.02-3.19-.07-.77-1.11-1.05-1.7-1-1.75.15-1.81,2.7-1.45,4.02.23.81.86,1.26,1.61,1.27.52.01,1.51-.31,1.55-1.1Z"/>
    <path d="M196.68,84.97c.31.2.71.55.99.86-.73,1.1-1.85,1.47-3.13,1.48-1.74.01-3.26-1.1-3.59-2.85-.41-2.14.3-4.65,2.51-5.22,1.3-.33,2.67-.09,3.51.93s.93,2.3.82,3.6l-5.09.03c-.03.96.62,1.76,1.35,1.98.97.29,1.82.06,2.65-.8ZM196,82.46c.12-1.18-.63-2-1.7-1.93-.87.06-1.57.85-1.57,1.91l3.27.02Z"/>
    <path d="M113.62,84.92c.33.28.65.59.97.94-1.45,1.87-4.35,1.94-5.92.22-1.47-1.6-1.27-5.57,1.16-6.66,1.36-.61,2.98-.45,3.97.64.91,1,1.01,2.35.91,3.69l-5.1.03c-.03.96.62,1.77,1.35,1.97,1,.27,1.82.1,2.66-.84ZM112.91,82.46c.12-1.19-.63-1.99-1.7-1.93-.88.05-1.57.85-1.57,1.91l3.27.02Z"/>
    <path d="M165.62,87.29c-1.35-.15-2.21-1.09-2.28-2.2-.08-1.19.62-2.22,1.87-2.54.84-.21,1.77-.22,2.75-.26.13-.27.08-.99-.1-1.28-.24-.38-.81-.57-1.29-.55-.71.03-1.05.37-1.35,1.04h-1.74c.28-2.29,2.96-2.72,4.61-2.21,1.18.36,1.74,1.38,1.75,2.6l.04,4.43c0,.16.3.64.16.72-.24.13-1.76.46-2.01-.46-.65.48-1.47.82-2.43.71ZM167.99,84.87c.12-.4.07-.94.06-1.4-.94-.09-2.81-.09-2.92,1.12-.03.37.17.95.55,1.12.78.36,2.04.12,2.32-.84Z"/>
    <path d="M134.2,86.57c-.75.57-1.61.85-2.56.71-1.22-.18-2.08-1.08-2.15-2.18-.07-1.18.59-2.19,1.83-2.53.84-.23,1.79-.23,2.78-.27.15-.26.1-1-.1-1.3-.25-.38-.82-.57-1.32-.54-.68.04-1.01.4-1.3,1.04l-1.68.02c.06-2.13,2.81-2.82,4.65-2.18.93.32,1.63,1.18,1.64,2.2l.03,3.84c0,.59.12,1.08.23,1.76h-1.61c-.1.02-.33-.43-.43-.57ZM134.15,83.5c-.59-.09-1.43-.06-2.02.11-.68.19-.96.89-.81,1.45.14.52.71.88,1.37.8.5-.06,1.14-.35,1.35-.68.23-.36.23-1.11.12-1.69Z"/>
    <path d="M85.64,66.91c.3.27.62.59.96.96-1.45,1.88-4.38,1.94-5.95.19-1.46-1.63-1.24-5.69,1.35-6.7,1.33-.52,2.92-.32,3.85.77.85,1,.96,2.31.86,3.62l-5.1.03c-.03.96.62,1.78,1.32,1.97,1.04.28,1.85.13,2.7-.84ZM84.93,64.47c.12-1.11-.55-1.93-1.55-1.94-.93,0-1.69.75-1.72,1.91l3.27.03Z"/>
    <path d="M152.71,86.21c-1.31,1.4-3.58,1.46-5,.31-1.1-.89-1.37-2.25-1.35-3.58.04-2.2,1.51-3.82,3.6-3.86s3.68,1.48,3.76,3.68c.04,1.2-.08,2.46-1.01,3.45ZM151.68,81.67c-.3-.76-1-1.17-1.72-1.15-1.87.06-2.08,2.66-1.61,4.1.28.85,1,1.29,1.78,1.26,1.94-.09,2.08-2.85,1.54-4.21Z"/>
    <path d="M177.28,63.6l-.07,5.57-1.77-.04v-7.86s1.58-.04,1.58-.04l.27.76c1.05-.98,2.75-1.28,4.02-.38.56.4.86,1.36.86,2.04v5.5s-1.76,0-1.76,0l-.04-5.43c0-.75-.58-1.13-1.34-1.16-.53-.02-1.75.22-1.77,1.03Z"/>
    <path d="M173.67,61.25v7.89s-1.54.04-1.54.04l-.29-.63c-.98.82-2.51,1.08-3.72.31-.62-.39-1.01-1.34-1.01-2.08l-.02-5.53h1.78s.04,5.46.04,5.46c0,.73.65,1.17,1.33,1.14.5-.02,1.61-.32,1.62-.93l.06-5.67h1.77Z"/>
    <path d="M108,61.26v7.89s-1.55.03-1.55.03l-.29-.62c-1.02.83-2.55,1.08-3.76.27-.55-.36-.96-1.27-.97-1.93l-.02-5.64,1.78-.02.04,5.4c0,.74.55,1.22,1.29,1.22.49,0,1.64-.3,1.64-.94l.06-5.67h1.77Z"/>
    <path d="M89.94,63.57l-.07,5.58h-1.77s0-7.89,0-7.89l1.6-.02.2.74c1.02-.87,2.48-1.26,3.74-.49.65.4,1.02,1.35,1.02,2.14v5.52s-1.77,0-1.77,0l-.02-5.33c0-.74-.46-1.23-1.24-1.26-.48-.02-1.67.24-1.68,1.01Z"/>
    <path d="M211.01,79.26v7.84c-.42.05-1.15.1-1.48.03-.15-.03-.37-.51-.38-.56-.98.8-2.44,1.05-3.65.32-.61-.37-1.05-1.3-1.05-2.04l-.02-5.59h1.78s.03,5.4.03,5.4c0,.76.61,1.24,1.37,1.19.46-.03,1.57-.33,1.58-.93l.07-5.66h1.77Z"/>
    <path d="M130.67,61.23v7.88c-.38.04-1.13.08-1.46.03-.15-.02-.3-.49-.33-.59-1.11.84-2.55,1.05-3.73.31-.62-.38-1.02-1.32-1.02-2.07v-5.55s1.77.02,1.77.02v5.35c.01.8.66,1.29,1.39,1.25.47-.03,1.55-.33,1.56-.9l.06-5.7,1.77-.02Z"/>
    <path d="M214.73,81.42c-.39,1.9-.03,3.71-.19,5.71h-1.75s0-7.86,0-7.86l1.56-.04.26.76c1.02-.94,2.59-1.29,3.82-.42.55.38.9,1.31.9,1.98l.02,5.57h-1.79s0-5.2,0-5.2c0-.31-.18-.86-.44-1.09-.55-.49-2.2-.37-2.39.58Z"/>
    <path d="M123.31,81.42c-.39,1.91-.02,3.71-.19,5.71h-1.76s0-7.84,0-7.84l1.56-.06.26.77c.99-.92,2.48-1.27,3.73-.49.62.39,1,1.34,1,2.09l.02,5.54h-1.79s-.01-5.16-.01-5.16c0-.27-.16-.8-.37-1.05-.51-.6-2.26-.49-2.46.5Z"/>
    <path d="M68.1,79.25v7.86c-.48.04-1.13.1-1.44.02-.13-.03-.34-.5-.37-.54-.65.42-1.31.69-2.09.73-1.48.08-2.65-.97-2.65-2.48l-.03-5.57h1.79s.03,5.39.03,5.39c0,.78.61,1.26,1.41,1.2.5-.04,1.53-.36,1.54-1l.04-5.59,1.77-.02Z"/>
    <path d="M71.75,81.5c-.14,1.96-.08,3.65-.09,5.64h-1.78s0-7.86,0-7.86l1.42-.02c.18,0,.36.54.42.71,1.01-.89,2.48-1.23,3.72-.45.59.37.98,1.29.98,2v5.63s-1.77-.01-1.77-.01l-.02-5.44c0-.6-.49-1.06-1.11-1.13-.49-.06-1.72.18-1.77.93Z"/>
    <path d="M157.09,81.49c-.14,1.96-.07,3.65-.09,5.65h-1.79s0-7.86,0-7.86c.46-.02,1.11-.04,1.42-.02.18.01.35.53.42.7,1.04-.92,2.59-1.25,3.82-.37.51.37.88,1.28.88,1.92l.02,5.63h-1.78s-.02-5.45-.02-5.45c0-.6-.51-1.06-1.11-1.12-.5-.06-1.73.17-1.78.93Z"/>
    <path d="M96.6,81.49c-.27,1.95-.06,3.67-.14,5.64h-1.78s0-7.85,0-7.85l1.51-.05.31.77c1.04-.97,2.56-1.26,3.77-.46.56.37.95,1.29.95,1.98l.02,5.62h-1.79s0-5.29,0-5.29c0-.25-.19-.76-.4-.97-.57-.58-2.32-.4-2.46.61Z"/>
    <path d="M184.81,86.68c-1.49.95-3.56.84-4.83-.27-.57-.5-.93-.99-.97-1.73l1.86-.03c.23,1.11,1.16,1.48,2.25,1.26.38-.08.82-.45.86-.82s-.31-.87-.68-.97l-1.99-.55c-.8-.22-2.01-1.06-1.96-2.04.09-1.74,1.95-2.59,3.51-2.43,1.46.15,2.7.8,2.83,2.48l-1.77.02c-.24-1.06-1.01-1.28-1.95-1.1-.33.06-.75.49-.79.79-.06.46.34.83.79.96l2.3.67c.71.21,1.3.95,1.4,1.5.15.87-.08,1.74-.89,2.26Z"/>
    <path d="M121.25,62.6v6.55s-1.79-.02-1.79-.02v-6.51s-1.19-.07-1.19-.07v-1.28s1.16-.07,1.16-.07c.03-.95.04-1.93.68-2.62.77-.83,1.95-.94,3.05-.68.09.35.07,1.03-.04,1.33-.59.04-1.27-.01-1.59.4s-.31,1.17-.25,1.6l1.54.03v1.29s-1.57.06-1.57.06Z"/>
    <path d="M100.12,67.84v1.32c-.73.17-1.45.22-2.15-.03-.53-.19-1.01-.99-1.02-1.56l-.04-4.95-1.26-.09v-1.26s1.26-.07,1.26-.07l.03-1.88h1.77s.03,1.89.03,1.89l1.35.03.03,1.28-1.39.09v4.32c0,.23.09.75.27.77l1.13.13Z"/>
    <path d="M141.44,85.79c.1.26.16,1.05.01,1.36-.48.14-1.13.18-1.62.11-.83-.1-1.48-.87-1.49-1.73l-.05-4.92-1.23-.09-.06-1.22,1.29-.12.06-1.86h1.74s.04,1.88.04,1.88l1.35.08.02,1.23-1.4.08.04,4.78c0,.41.79.5,1.3.41Z"/>
    <path d="M106.73,85.85l-.03,1.32c-.76.15-1.5.21-2.2-.08-.55-.22-.96-1.02-.97-1.62l-.04-4.9-1.24-.08-.03-1.2,1.27-.1.04-1.86h1.73s.07,1.86.07,1.86l1.34.11v1.21s-1.36.11-1.36.11l-.02,4.24c0,.23.09.7.25.82s.48.13,1.19.19Z"/>
    <polygon points="156.72 69.13 154.93 69.15 154.93 57.93 156.72 57.93 156.72 69.13"/>
    <path d="M173.61,87.08c-.66.09-1.21.09-1.79.02v-11.14s1.79,0,1.79,0v11.12Z"/>
    <path d="M92.61,87.08c-.66.1-1.22.1-1.85.02v-10.58s1.84,0,1.84,0v10.57Z"/>
    <path d="M134.27,69.14l-1.77.02v-7.87s1.62-.08,1.62-.08l.19.9c.44-.84,1.38-1.22,2.35-.9l-.07,1.63c-.76-.07-2.06-.04-2.18.77-.28,1.78-.07,3.51-.14,5.52Z"/>
    <path d="M200.98,87.12c-.58.04-1.14.04-1.78,0v-7.85s1.61-.04,1.61-.04l.23.69c.6-.68,1.45-1.07,2.34-.67l-.08,1.62c-.73-.1-2.07-.07-2.2.76-.26,1.77-.08,3.41-.13,5.49Z"/>
    <path d="M117.9,87.12h-1.79s0-7.84,0-7.84l1.58-.03.27.67c.57-.67,1.48-1.09,2.32-.66l-.07,1.58c-.74-.06-2.08-.06-2.19.77-.25,1.78-.08,3.41-.12,5.5Z"/>
    <path d="M111.6,69.13l-1.78.03v-7.87s1.6-.08,1.6-.08l.21.72c.63-.69,1.44-1.06,2.28-.73.1.53.08,1.22-.09,1.64-.76-.11-2.04.02-2.12.82-.18,1.81-.08,3.46-.1,5.46Z"/>
    <polygon points="177.45 87.11 175.66 87.16 175.65 79.27 177.44 79.26 177.45 87.11"/>
    <polygon points="152.88 69.14 151.1 69.16 151.09 61.25 152.88 61.25 152.88 69.14"/>
    <path d="M144.76,87.1c-.67.04-1.21.04-1.8.01v-7.85s1.78,0,1.78,0v7.84Z"/>
    <polygon points="189.21 87.1 187.42 87.13 187.42 79.26 189.2 79.27 189.21 87.1"/>
    <path d="M152,60.12c-.56.02-1.02-.45-1.01-.9,0-.54.38-.99.97-1,.55,0,.99.37,1.04.82.06.55-.28,1.05-1,1.07Z"/>
    <path d="M144.42,78c-.54.18-1.12.1-1.34-.17-.2-.24-.24-.87-.09-1.16s.73-.49,1.17-.4c.29.06.65.45.7.69.06.29-.14.95-.44,1.05Z"/>
    <path d="M177.08,78.01c-.51.17-1.11.07-1.32-.19-.2-.24-.24-.86-.09-1.16s.72-.48,1.16-.4c.29.05.66.45.71.69.06.3-.13.95-.47,1.06Z"/>
    <path d="M188.69,78.06c-.45.12-1.03-.03-1.21-.31-.15-.24-.19-.75-.08-1.01.13-.3.69-.57,1.08-.51.41.06.77.42.84.73.08.38-.13.96-.62,1.09Z"/>
    <path d="M125.57,60.01c-.48-.05-.79-.53-.75-.95.04-.37.44-.76.89-.77.51,0,.92.39.94.75.03.58-.27,1.05-1.08.96Z"/>
    <path d="M129,60.03c-.42-.02-.82-.43-.84-.81-.02-.46.35-.9.89-.92.48-.03.94.39.97.79.03.55-.37.99-1.02.95Z"/>
  </g>
</svg>