<?xml version="1.0" encoding="UTF-8"?>
<svg id="Ebene_1" data-name="Ebene 1" xmlns="http://www.w3.org/2000/svg" viewBox="0 0 728 213">
  <polygon points="558 0 557.43 97.06 548.22 106.19 557.53 115.65 557.44 213 553.18 213 552.95 117.49 541.7 106.33 553 94.78 553 0 558 0"/>
  <path d="M728,143.06v1.94c-.64,1.67-1.21,3.84-1.92,6.57l-9.1-.81c-4.22-.38-8.16,2.31-8.74,6.61-.67,4.94-1.52,14.41,2.95,17.33,1.25.82,5.81,1.2,5.94-.27l.43-4.97c.1-1.15-2.84-1.58-3.96-2.61-1.51-1.4-.86-5.87-.34-8.39l14.74.03v24.87c-10.72,2.5-28.21,4.48-31.8-10.36-1.48-6.15-1.46-12.82,0-18.96,3.47-14.58,21.04-14.53,31.8-10.97Z"/>
  <path d="M0,147v-2l4.57.43c3.03,12.17,5.68,23.21,9.75,36.22,3.7-12.34,6.19-23.09,9.24-35.64.26-1.09,3.15-1.04,4.27-.17l-10.21,38.51-6.84-.07c-3.66-12.91-6.64-25.25-10.78-37.29Z"/>
  <path d="M452.58,157.24l-.08,24.74c0,.93-.55,2.22-1.06,2.6-.63.47-2.92-.69-2.92-1.59l-.17-25c-3.81-2.24-8.13-2.12-12.99-.84l-.11,26.38c0,1.16-3.89,1.3-3.9.06l-.14-29.2c6.98-1.95,12.96-1.06,19.85-.66,3.47.2,8.23-1.01,11.76-.48,4.79.72,7.25,4.11,7.22,8.84l-.16,21.61c0,.89-3.66.88-3.72-.05-.42-7,.47-16.89-.85-23.88-1.11-4.78-8.81-3.85-12.73-2.52Z"/>
  <path d="M241.66,190.87c3.17.53,9.49,1.01,13.13.43s4.96-7.58,2.48-8.06c-5.25-1.03-11.36.86-15.05-3.57-4.27-5.13-5.66-24.6,5.97-26.26,4.78-.68,9.53-.23,14.38.81l-.13,32.64c-.05,11.34-19.7,8.31-21.84,6.26-.45-.43.45-2.36,1.07-2.25ZM258.51,178.04l-.19-20.88c-3.93-1.29-10.39-1.91-12.68,1.59-3.17,4.85-3.27,13.65-.08,18.48,2.37,3.59,10.17,3.49,12.95.8Z"/>
  <path d="M175.32,156.28c4.53,5.29,6.5,27.52-7.34,28.56-4.23.32-8.4-.16-12.71-1.08l-.07-39.94c0-.84,1.49-2.47,2.24-2.32s1.84,1.63,1.86,2.46l.24,9.27c5.88.19,11.82-1.57,15.78,3.06ZM172.26,178.55c3.04-5.55,3-14.46-.06-19.47-2.59-4.24-9.36-3.15-12.9-1.59v23.02c3.43,1.6,10.42,2.68,12.96-1.97Z"/>
  <path d="M324.97,181.83c-3.24,4.69-14.7,4.57-17.92.31-5.31-7.03-5.41-18.55-.41-25.8,3.25-4.72,14.69-4.97,18.25-.32,5.15,6.73,5.2,18.42.09,25.81ZM322.39,179.12c3.1-6.75,3.3-15.35-.52-20.94-2.1-3.06-10.59-2.85-12.33.38-3.34,6.17-3.33,14.77.07,20.88,1.93,3.47,11.02,3.52,12.79-.32Z"/>
  <path d="M192.96,178.5c4.57,7.01,18.43-.43,17.85,3.63-5.36,4.07-15.44,4.5-20.18-.95-5.27-6.05-4.95-17.53-.47-24.08,3.78-5.52,13.44-5.42,17.7-1.1,3.6,3.65,3.11,9.43,2.43,13.9l-19.39.18c.18,2.93.69,6.34,2.06,8.43ZM206.63,166.59c1.1-3.91-.23-8.73-3.56-9.73s-7.55-.81-9.88,1.73c-1.47,1.59-2.17,5.3-2.05,8.14l15.49-.13Z"/>
  <path d="M356.27,155.29c0-.66.84-1.85,1.29-1.97.6-.16,2.73.71,2.73,1.76v28.39c-5.85,1.96-22.45,4.06-22.5-6.09l-.11-22.87c0-1.1,3.92-1.24,3.93-.22l.19,21.65c.01,1.63,1.64,5.05,3.16,5.29,3.59.57,7.45.43,11.22-.07l.09-25.87Z"/>
  <path d="M88.81,183.18c-4.38-2.25-4.15-10.99-.49-13.66,3.89-2.84,9.11-1.8,13.9-3.32,2.21-.7,1.67-7.62-.76-8.76-3.04-1.43-7-1-10.44-1.02h-2.55s-3.43-4.61,12.5-3.19c3.26.29,6.45,3.71,6.46,6.83l.1,23.82c-5.96,1.12-12.61,2.43-18.72-.7ZM103.5,181.46l-.16-11.48c-4.28-.01-8.13-.33-11.39.95-2.97,1.16-3.16,8.05-.58,9.65,3.44,2.13,8.05,1.57,12.13.88Z"/>
  <path d="M53.82,181.72c-3.14,4.71-14.55,4.76-17.92.49-5.45-6.91-5.55-18.77-.43-25.95,3.38-4.73,14.82-4.86,18.26-.18,5,6.79,5.05,18.19.09,25.63ZM50.86,179.48c3.57-6.56,3.51-15.33-.12-21.21-1.92-3.1-10.54-2.98-12.31.09-3.58,6.24-3.5,14.99.01,21.23,1.75,3.1,10.53,3.35,12.42-.12Z"/>
  <path d="M499.04,154.41c0-.99,3.89-1.12,3.89-.17l.05,29.58c-7.38,1.37-22.37,3.79-22.44-6.8l-.14-21.25c0-.89,1.29-2.53,2.1-2.53s2.08,1.63,2.08,2.54l-.08,20.39c-.03,6.91,9.52,5.87,14.47,4.95l.07-26.71Z"/>
  <path d="M294.69,183.59c0,.82-3.24.98-3.93.5l-.1-35.12-6.85-.54c-.79-.06-2.05-.59-2.39-1.16-.43-.73,1.53-2.36,2.38-2.36l18.09.12c.74,0,2.3.86,2.28,1.42s-.85,1.86-1.4,1.9l-7.94.6-.13,34.64Z"/>
  <path d="M419.69,183.3c-3.45,2.59-10.15,1.77-13.71.99l-.37-2.46c-.19-1.28,7.41.98,11-.93s1.48-6.88-.75-8.63l-7.46-5.81c-3.62-2.82-3.77-9.93.57-12.09,4.05-2.01,9.44-2.1,13.49.14-.31,4.44-7.78-.53-12.05,3.31-1.15,1.04-.61,5.11.73,6.12l7.46,5.65c3.94,2.98,6.18,9.87,1.1,13.7Z"/>
  <path d="M526.29,183.04c-3.01,2.68-13.58,2.76-14.73.24-1.52-3.33,7.01-.54,11.16-2.27,3.59-1.49,1.91-6.78-.19-8.38l-7.03-5.37c-1.58-1.21-3.33-4.05-3.51-5.77-.23-2.29.8-6.08,3.11-7.19,3.59-1.72,9.56-1.49,12.6-.67.38.1.41,2.72.02,2.72h-1.84c-2.47-.03-6.51-.17-8.39.94-2.91,1.71-1.15,6.07.68,7.41l6.58,4.81c3.82,2.79,6.24,9.36,1.54,13.54Z"/>
  <path d="M142.59,179.66c0,1.3,4.45,2.36,5.6,2.93-.1,2.29-3.82,2.8-5.84,2.3-2.82-.7-3.92-3.81-3.91-6.81l.08-36.3,3.96.15.12,37.73Z"/>
  <path d="M122.57,156.62l-.02,25.51c0,1.04-1.23,2.63-2.04,2.64s-2.1-1.63-2.09-2.58l.12-28c2.46-.73,13.77-2.52,13.99.33.05.61-.95,1.83-1.62,1.85l-8.34.25Z"/>
  <path d="M375.57,156.63l-.02,25.5c0,1.04-1.22,2.63-2.04,2.64s-2.1-1.63-2.09-2.58l.12-28c2.45-.73,13.82-2.51,13.99.33.22,3.57-3.69.87-9.95,2.11Z"/>
  <path d="M224.38,156.62l-.15,27.65-3.97-.3v-29.8c2.34-.83,14.9-2.29,13.97.35-.19.53-.86,1.79-1.41,1.81l-8.45.29Z"/>
  <path d="M71.02,156.69l-.02,26.63c0,.92-2.58,1.3-3.93.86l-.02-30.1c4.12-.71,9.49-1.13,12.77-.94.98.06.91,3.1.06,3.14l-8.85.41Z"/>
  <path d="M396.12,182.66c.02,1.92-3.96,2.54-3.96,1.14l-.1-29.46c0-.89,3.82-.9,3.83.03l.24,28.3Z"/>
  <path d="M392.18,142.42c.21-.87,4.14-.46,4.08.46l-.21,3.54c-.05.92-3.85.96-4.09.07s-.13-2.62.22-4.07Z"/>
  <path d="M608.12,162.03c2.63,3.97,6.55,8.37,4.43,14.27-1.52,4.24-5.39,8.09-11.38,8.1l-19.68.06-.03-42.71,19.62.1c4.64.02,8.91,3.15,10.19,6.1,2.34,5.41-.29,9.66-3.15,14.08ZM593.12,158.22c.34,1.82,5.67.95,6.73-.86,1-1.71.77-4.76-.57-6.2-1.19-1.28-6.01-2.03-6.24-.43-.32,2.26-.33,5.27.08,7.48ZM592.75,176.22c4.1-.28,6.53-.81,7.64-2.28,1.03-1.36.55-5.04-.61-6.18s-4.89-1.77-6.71-1.23l-.33,9.68Z"/>
  <path d="M650.8,61.97c-2.86,10.31-15.12,10.74-23.74,8.88-13.11-2.83-11.83-24.57-9.01-34.08,1.09-3.69,4.15-6.26,7.42-8.2,9.11-1.75,22.1-2.39,25.25,8.52,2.36,8.18,2.35,16.65.07,24.88ZM638.66,60.48c2.24-7.42,2.1-14.54.14-21.28-.88-3.03-7.78-3.26-8.78-.11-2.18,6.89-2.23,14.79.2,21.59.78,2.18,7.74,2.11,8.43-.19Z"/>
  <path d="M683.98,71.06l-7.37-14.06c-.2-.38-1.82-1.23-2.24-1.33-.63-.15-1.38,1.48-1.39,2.25l-.05,13.04-11.5-.16.04-42.47c10.3.49,29.66-3.92,30.83,10.55.45,5.58-1.68,10.15-5.67,13.79l10.13,17.91-12.78.48ZM678.2,36.91l-5.17-.07.02,11.18c1.92.11,4.6-.06,5.69-.74,2.82-1.75,1.69-10.34-.55-10.37Z"/>
  <path d="M656.91,127.28c-4.44.55-9.1.62-13.03.2-2.87-5.76-4.68-10.26-9.26-16.01-2.15,6-1.21,9.62-1.39,16.15l-11.46.05-.03-42.67,18.47.05c2.67,0,7.35,1.52,9.14,3.52,5.6,6.25,3.71,15.39-2.61,20.61l10.17,18.11ZM637.9,93.46c-1.1-.36-3.71-.04-4.58.57v10.68c1.83.29,4.85.14,5.81-.91,2.57-2.78,1.91-9.33-1.23-10.35Z"/>
  <path d="M679.35,184.57l-7.37-14.01c-.31-.58-1.99-1.52-2.49-1.38s-1.18,1.33-1.19,1.97l-.11,13.27-11.41.11-.05-42.76,20.23.22c5.96.06,10.1,4.8,10.65,10.16.58,5.72-1.97,10.36-5.64,14.08l10.19,18.01-12.8.33ZM673.74,150.48c-1.09-.61-4.08-.56-5.38-.16l-.04,10.72c1.06.68,4.06.71,5.19.04,3.28-1.97,2.74-9.21.23-10.59Z"/>
  <path d="M601.53,118.13l-10.47-.14-2.12,9.66-11.92-.09,10.91-42.51h17.85s10.63,42.5,10.63,42.5l-12.86.21-2.02-9.64ZM600.3,108.95c-1.26-6.85-1.65-10.17-3.93-15.67l-3.89,15.77,7.82-.11Z"/>
  <path d="M600.86,28.61c3.69-.39,7.48-.41,12.1-.15l-10,42.41-17.63.2-9.86-42.5,12.12-.27c2.16,11.83,3.47,21.92,6.91,33.37l6.35-33.05Z"/>
  <polygon points="646.04 166.91 633.46 167.05 633.37 174.62 647.44 174.85 647.43 184.44 621.75 184.54 621.75 141.78 646.95 141.74 646.9 150.91 633.5 151.07 633.48 157.91 645.84 158.11 646.04 166.91"/>
  <polygon points="686.94 118.2 686.82 127.81 661.47 127.69 661.45 85.18 673.21 85 673.32 118.14 686.94 118.2"/>
  <path d="M592.75,176.22l.33-9.68" fill="#fff"/>
  <path d="M599.85,157.36c-1.06,1.81-6.39,2.67-6.73.86-.41-2.22-.4-5.22-.08-7.48" fill="#fff"/>
</svg>