<?xml version="1.0" encoding="UTF-8"?>
<svg id="Ebene_1" data-name="Ebene 1" xmlns="http://www.w3.org/2000/svg" viewBox="0 0 1107.27 215.1">
  <path d="M352.41,183.39l-175.43,31.71L.3,183.4l-.24-24.55,107.62-19.51L.18,119.83l-.18-24.45,107.69-19.6L.22,56.3.1,31.73,176.44,0l175.83,31.65.25,24.65-107.35,19.48,107.35,19.54.1,24.49-107.48,19.57,107.19,19.29.1,24.73ZM283.84,43.94l-107.39-19.52-108.06,19.55,108.1,19.56,107.35-19.59ZM282.84,107.54l-98.22-18.1c-5.5-1.61-10.75-1.67-16.23-.04l-99.09,18.14,107.09,19.51,106.45-19.51ZM283.82,170.99l-107.36-19.49-108.06,19.53,108.07,19.55,107.35-19.6Z"/>
  <path d="M1083.52,183.03l-6.96.24-.02-30.12c0-1.81-1.09-5.2-2.66-6.35-3.44-2.52-12.87-.53-13.29,4.35-.94,10.9-.41,20.88-.56,31.87-2.06.52-5.72.57-6.84-.51l-.17-35.78c-2.67-.42-5.1-.73-5.35-1.86-.36-1.61.77-4.54,2.47-4.53,4.45.03,6.65,1.23,9.17,4.17,6.69-6.16,16.9-6.63,22.55.77,5.37-5.01,12.84-7.35,19.77-3.72,3.14,1.64,5.02,6.83,5.09,10.5l.55,29.44c.03,1.63-2.35,2.16-4.27,2.14-1.57-.02-2.9-2.59-2.91-4.71l-.13-25.89c0-1.59-1-4.75-2.29-6-2.87-2.8-12.78-1.19-13.44,3.54-1.48,10.57-.39,20.59-.72,32.45Z"/>
  <path d="M841.91,182.7c-1.86.52-4.69.55-6.86.24l-.08-29.87c0-2.52-1.29-5.75-3.79-6.83-3.41-1.47-12.21.41-12.27,4.86l-.43,31.99c-2.18.53-5.75.49-6.88-.56l-.16-35.51-4.81-1.59c-1.16-.38-.24-4.59,1.12-4.83,2.57-.45,8.34.32,9.72,3.96,7.04-6.14,17.1-6.77,22.73.7,5.57-4.9,12.62-7.2,19.54-3.89,3.03,1.45,5.32,6.45,5.39,9.97l.63,31.85-6.97-.33-.41-27.75c-.04-2.81-.23-6.41-2.63-8.3-3.36-2.64-12.85-.66-13.29,4.36-.91,10.47-.4,20.33-.54,31.53Z"/>
  <path d="M757.28,197.82c3,.35,6.27-3.28,6.23-5.55l-.18-11.72c-6.38,3.63-12.78,5.51-19.4,1.95-8.81-4.73-7.52-21.71-6.48-30.49,1.95-16.49,22.06-11.84,33.11-10.69l-.08,50.93c0,5.78-4.26,10.44-10.03,10.89-7.05.55-13.5-.48-20.47-2.25l1.27-4.92,16.02,1.84ZM749.51,177.92c4.58,1.33,12.14-.68,13.73-4.81l.29-26.74c-6.82-1-18.71-2.57-19.39,6.76-.51,6.93-2.3,22.56,5.37,24.79Z"/>
  <path d="M643.92,141.23c9.46,4.46,8.15,21.57,7.14,30.84-.79,7.21-7.18,12.62-14.51,12.17l-18.39-1.13-.02-63.17,6.75-.16.33,23.85c6.35-3.67,12.3-5.42,18.7-2.4ZM636.15,178.48c4.61.02,8.34-4.09,8.36-8.22l.06-16.02c0-2.18-1.82-5.9-3.86-7.3-3.78-2.6-14.08-.99-14.94,4.23-1.46,8.87-.5,16.99-.63,26.42,3.62.55,6.86.88,11.01.9Z"/>
  <path d="M541.34,179.55c-5.61,4.17-13.01,6.58-19.85,3.31-9.55-4.57-8.23-22.04-7.07-31.06,2.06-16.12,22.79-11.98,32.95-10.17l.19,35.93,4.57.54c.9.11.78,3.08.65,3.98-.16,1.08-2.44,1.78-4.17,1.77-2.96-.03-5.17-1.5-7.27-4.29ZM526.89,178.07c4.42.95,11.38-.97,13.37-4.9l.21-26.72c-5.15-.73-9.01-1.05-14.1-.36-7.38,1.01-5.61,18.58-5.4,24.44.11,3.07,2.79,6.86,5.92,7.53Z"/>
  <path d="M691.48,177.85l.39,4.72c-10.52,2.21-29.56,4.98-31.21-10.49-1.24-11.59-2.79-29.06,10.84-31.77,4.86-.97,10.34-.74,14.84,1.17,4.82,2.04,6.95,6.67,6.85,11.24-.3,13.69-13.52,12.27-25.21,13.53-2.04,3.75.16,11.22,5.72,11.88s11.04.13,17.79-.28ZM679.15,160.19c3.03-.28,6.24-2.59,6.69-4.62.5-2.26.15-6.74-1.53-7.9-4.36-3.02-11.09-3.3-14.68.62-2.96,3.23-2.65,8.52-2.33,12.99l11.85-1.09Z"/>
  <path d="M991.06,177.75l.88,4.84c-10.55,2.07-29.65,5.26-31.5-10.18-1.09-9.14-2.63-26.67,7.2-30.86,5.95-2.54,12.78-2.39,18.55.07,4.77,2.03,6.68,6.53,6.72,11.27.12,13.95-15.31,11.96-25.52,13.58-1.44,3.24.22,10.26,4.73,11.28,6.05,1.37,11.93.58,18.92,0ZM966.93,161.31c7.28-.95,18.82.27,19.03-7.67.04-1.69-.84-5.58-2.29-6.39-4.33-2.43-10.7-2.77-14.12.85-3.04,3.22-2.8,8.31-2.62,13.21Z"/>
  <path d="M469.89,171.31c-.82,9.39-8.23,13.1-16.33,13.15-8.31.05-15.48-3.93-16.27-12.95-.52-5.93-.51-12.83-.01-18.78.75-9.07,7.96-13.13,16.27-13.09s15.5,4.02,16.34,13.07c.53,5.68.54,12.47,0,18.6ZM454.05,178.49c11.53-.5,9.49-12.84,9.11-24.45-.19-5.7-4.46-8.55-9.62-8.59-5.16-.04-9.48,2.86-9.62,8.6-.27,11.56-2.68,25,10.13,24.45Z"/>
  <path d="M1035.47,140.88l.21,36.56c2.49.57,4.07.9,4.88,1.5.98.73-.06,4.4-1.4,4.71-2.84.65-7.89-.74-9.77-3.79-6.71,4.16-15.55,6.91-22.49,1.8-4.21-3.1-4.87-9.27-4.93-14.32l-.31-26.56,6.91.37.43,26.13c.05,3.34.13,7.32,3.12,9.76,3.56,2.9,14.81,1.33,15.67-4,1.72-10.76.25-20.72.83-32.09l6.84-.06Z"/>
  <path d="M910.21,140.85l.22,36.81,4.5.47c.88.09.75,3.09.71,3.98-.05,1.06-2.26,1.75-4.01,1.73-3.15-.03-5.57-1.66-7.43-4.25-5.99,4.57-14.9,6.8-21.8,2.65-4.65-2.8-5.45-8.85-5.53-13.91l-.42-27.47,6.96.29.35,26.17c.05,3.52.12,7.31,3.38,9.78,3.62,2.74,14.57,1.32,15.45-4.17,1.7-10.62.24-20.76.84-32.02l6.79-.04Z"/>
  <path d="M947.76,181.59c-7.76,5.08-17.31,2.63-24.65-.79l.92-5.03c6.51,2.25,12.23,4.77,19.12,1.85,2.15-.91,2.86-5.13,2.15-7.46-2.05-6.77-12.2-5.22-18.79-11.07-4.59-4.07-4.11-13.37.86-16.71,6.95-4.67,20.2-2.05,22.13.5.65.86-.71,4.2-1.77,3.92-4.62-1.21-10.68-2.73-15.34-.92-1.45.56-2.65,4.26-2.25,5.7,1.65,5.92,10.37,4.54,17.9,10.37,5.54,4.28,6.14,15.44-.28,19.64Z"/>
  <path d="M424.39,141.19c2.01-.39,4.67-.38,6.99-.09l-13.78,41.66c-1.68.49-4.57.52-6.91.21l-14.06-42,7.26-.14,10.3,32.01,10.21-31.65Z"/>
  <path d="M605.1,180.97c.01,2.59-2.35,2.8-5.03,2.29-1.4-.26-2.06-2.95-2.06-5.09l.02-58.01,6.84-.2.24,61.01Z"/>
  <path d="M489.9,182.85c-1.94.23-4.78.3-6.93.2l-.17-36.43-4.48-.84c-.97-.18-.69-2.86-.55-4.12.1-.98,2.14-1.14,3.73-1.26,4.08-.32,6.69,1.79,7.33,6.07,3.53-3.88,7.34-6.66,12.69-6.72,3.75-.04,9.04,4.39,7.35,7.39-1.98,3.51-5.71.43-7.75-.69-4.58-2.53-11.06,3.74-11.08,8.56l-.12,27.84Z"/>
  <path d="M712.13,182.96l-6.91.19-.24-36.32-4.55-1.15c-.92-.23-.55-2.69-.48-3.96.05-.92,1.91-1.16,3.52-1.33,4.03-.42,6.95,1.72,7.61,5.69,2.99-2.63,6.01-4.9,10.07-6.15,4.59-1.42,11.57,3.14,9.85,7.08s-5.93.16-7.72-.74c-4.49-2.27-11.01,3.98-11.03,8.72l-.13,27.97Z"/>
  <path d="M570.58,182.98l-6.69.26-.26-36.36-4.51-1.03c-1.01-.23-.81-2.97-.57-4.11.21-1.01,2.32-1.28,4.02-1.39,3.76-.25,6.2,2.06,7.23,5.62,2.85-2.63,6.41-5.44,10.16-6.08,5.41-.94,9.65,2.15,10.18,7.49l-4.3,1.4c-1.15.37-2.88-2.31-4.45-2.84-3.81-1.29-10.49,3.92-10.53,8.27l-.28,28.78Z"/>
</svg>