<?xml version="1.0" encoding="UTF-8"?>
<svg id="Ebene_1" data-name="Ebene 1" xmlns="http://www.w3.org/2000/svg" viewBox="0 0 367.95 107.14">
  <g>
    <path d="M132.43.14c17.36-1.62,31.42,10.91,32.86,27.15,1.48,16.62-10.44,31.15-27.06,32.64-16.3,1.46-30.83-9.81-32.76-25.96C103.48,17.28,114.63,1.81,132.43.14Z"/>
    <polygon points="256.35 1.1 268.46 .93 253.58 59.12 238.69 59.36 226.35 13.75 214.17 59.2 199.2 59.15 184.33 .92 196.53 .9 207.68 46.37 219.54 .84 233.19 1 245.18 45.7 256.35 1.1"/>
  </g>
  <g>
    <path d="M152.28,80.12c1.41-.17,2.75-.17,4.2-.03l-7.05,26.68-5.38-.07-6.22-22.26-6.22,22.27-5.39.05-7.08-26.66c1.48-.13,2.83-.13,4.29-.03l5.77,22.13,6.15-22.2h4.99s6.16,22.23,6.16,22.23l5.79-22.1Z"/>
    <path d="M272.91,96.17l-.02-3.48,11.7-.03.02,14.08h-3.64s-.18-3.85-.18-3.85c-2.09,2.75-4.97,4.09-8.47,4.23-5.12.19-9.67-2.47-11.66-7.28-2.91-7.04-.97-16.78,7.08-19.46,6.92-2.31,15.71.64,16.67,8.68l-4.35.03c-.66-3.08-2.86-5.06-5.83-5.67-4.02-.82-7.85,1.15-9.46,4.96-1.42,3.36-1.36,7.22.22,10.51,1.67,3.49,5.19,5.13,8.95,4.53s6.58-3.33,6.67-7.21l-7.7-.03Z"/>
    <polygon points="367.95 106.69 363.86 106.76 363.84 94.57 349.6 94.56 349.55 106.75 345.47 106.7 345.47 80.03 349.57 80 349.57 90.87 363.84 90.89 363.86 79.98 367.94 80 367.95 106.69"/>
    <path d="M17.49,105.81c-4,1.78-8.63,1.73-12.58.14C1.8,104.69-.09,101.81,0,98.51l4.16-.02c.36,1.96,1.29,3.54,3.14,4.35,2.77,1.21,6.07,1.2,8.67-.4,1.21-.75,1.79-2.13,1.67-3.42s-1.24-2.48-2.69-2.83l-8.73-2.08c-3.03-.72-5.11-3.02-5.46-5.75-.4-3.16,1.06-6,4.01-7.41,3.83-1.84,8.47-1.79,12.29.14,2.59,1.31,4.13,3.75,4.06,6.64l-4.19.05c-.36-2.11-1.42-3.67-3.46-4.3-2.37-.72-5.03-.61-7.11.78-1.13.76-1.69,2.1-1.5,3.4.15.99,1.21,2.32,2.46,2.62l8.84,2.08c3.15.74,5.32,3.1,5.59,5.98.29,3.17-1.08,6.05-4.26,7.47Z"/>
    <path d="M305.69,106.71l-3.74.05-.08-12.29c0-1.01-.63-2.44-1.24-2.99-.85-.78-2.29-1.09-3.52-.82-1.99.44-3.5,2.47-3.52,4.59l-.1,11.49h-3.88s-.02-19.1-.02-19.1l3.66-.06.24,2.36c1.66-1.83,3.51-2.74,5.75-2.73,2.34,0,4.37.96,5.73,3.2,1.7-2.33,3.97-3.25,6.7-3.2,3.35.05,6.2,2.44,6.23,6.02l.09,13.5h-3.79s-.03-11.89-.03-11.89c0-1.16-.51-2.73-1.36-3.42-1.4-1.15-3.17-1.11-4.69-.33-1.25.65-2.4,2.32-2.41,4.06l-.05,11.55Z"/>
    <path d="M340.88,93.49c1.36,5.1-.04,11.62-5.41,13.2-3.34.98-6.56.28-8.97-2.28l-.24,2.36-3.6-.04v-26.74s3.86,0,3.86,0l.05,9.92c2.35-2.4,5.18-3.19,8.39-2.43,2.71.64,5.09,2.9,5.92,6ZM336.76,100.3c.72-2.1.66-4.39-.05-6.33-.84-2.3-2.75-3.54-5.04-3.5-2.07.03-3.95,1.21-4.77,3.39s-.81,4.5-.04,6.6c.86,2.3,2.81,3.54,5.13,3.47,2.05-.06,3.96-1.26,4.77-3.63Z"/>
    <path d="M74.37,104.52c-2,2.06-4.54,2.88-7.52,2.51-2.4-.3-4.84-1.82-6.11-4.36-2.61-5.2-1.15-13.58,5.08-15.14,3.25-.81,6.1-.06,8.56,2.38l.08-9.94,3.8.03v26.71s-3.65.04-3.65.04l-.25-2.24ZM74.14,100.21c.65-1.95.61-4.13.03-5.97-.77-2.44-2.75-3.8-5.1-3.78s-4.28,1.43-5.02,3.89c-.53,1.78-.54,3.87-.02,5.64.73,2.46,2.71,3.92,5.03,3.93s4.25-1.24,5.07-3.72Z"/>
    <path d="M171.49,100.81h3.99c-.57,3.38-3.15,5.38-6.29,6.04-3.44.72-7.08.05-9.51-2.56-2.13-2.28-2.63-5.37-2.42-8.4.38-5.32,4.58-8.97,9.9-8.67,2.99.16,5.76,1.35,7.29,4.02,1.23,2.15,1.57,4.62,1.28,7.12l-14.4.02c-.14,2.56,1.61,4.93,3.95,5.46,2.56.58,5.19-.32,6.21-3.03ZM171.82,95.51c-.11-2.29-1.09-3.7-2.42-4.48-1.47-.87-3.25-.96-4.79-.3-1.94.84-3.07,2.59-3.31,4.77h10.52Z"/>
    <path d="M192.61,106.75l-.03-11.59c0-1.28-.45-2.94-1.4-3.73-1.46-1.2-3.4-1.16-5.05-.31-1.16.6-2.53,2.32-2.54,4.07l-.13,11.57-3.85-.03v-26.72s3.86-.03,3.86-.03l.06,10.02c1.82-1.92,3.82-2.8,6.46-2.78,3.49.03,6.39,2.55,6.41,6.22l.07,13.27-3.85.05Z"/>
    <path d="M100.84,107.12c-5.81.27-10.01-3.63-10.11-9.32-.06-3.2.7-6.47,3.37-8.55,3.62-2.82,9.05-2.76,12.59.17,2.53,2.1,3.2,5.27,3.16,8.36-.08,5.24-3.64,9.08-9.01,9.33ZM105.25,100.3c1.38-4.03,0-9.48-4.44-9.8-2.03-.15-3.93.6-4.96,2.49-1.25,2.27-1.33,5.02-.45,7.45.83,2.3,2.78,3.56,5.08,3.48,2.06-.07,3.96-1.26,4.77-3.62Z"/>
    <path d="M209.98,107.12c-5.81.27-10.01-3.63-10.11-9.32-.06-3.2.7-6.47,3.37-8.55,3.62-2.82,9.05-2.76,12.59.17,2.53,2.1,3.2,5.27,3.16,8.36-.08,5.24-3.64,9.08-9.01,9.33ZM214.39,100.3c1.38-4.03,0-9.48-4.44-9.8-2.03-.15-3.93.6-4.96,2.49-1.25,2.27-1.33,5.02-.45,7.45.83,2.3,2.78,3.56,5.08,3.48,2.06-.07,3.96-1.26,4.77-3.62Z"/>
    <path d="M240.41,107.12c-5.81.27-10.01-3.63-10.11-9.32-.06-3.2.7-6.46,3.37-8.55,3.62-2.82,9.05-2.76,12.59.17,2.53,2.1,3.2,5.27,3.16,8.36-.08,5.24-3.64,9.08-9.01,9.33ZM244.82,100.3c1.38-4.03,0-9.48-4.44-9.8-2.03-.15-3.93.6-4.96,2.49-1.25,2.27-1.33,5.02-.45,7.45.83,2.3,2.78,3.56,5.08,3.48,2.06-.07,3.96-1.26,4.77-3.63Z"/>
    <path d="M55.82,87.58l.02,19.07-3.63.12-.23-2.38c-1.73,1.92-3.68,2.73-6.25,2.74-3.37,0-6.3-2.42-6.32-6.03l-.07-13.51h3.83s.04,11.88.04,11.88c0,1.37.6,2.99,1.71,3.77,1.25.89,3.32.78,4.63-.03,1.01-.63,2.32-2.25,2.34-3.86l.12-11.77,3.82-.02Z"/>
    <path d="M35.99,103.43l.05,3.29c-1.8.32-3.3.48-5.08.26-2.14-.27-3.97-2.25-3.98-4.54l-.09-11.46-3.04-.13.02-3.24,3.09-.11.05-4.84,3.7-.03.11,4.91,5.2.02.04,3.3-5.28.05v9.97c0,.82.59,2.31,1.34,2.54,1.22.38,2,.22,3.89.02Z"/>
    <polygon points="226.55 106.67 222.63 106.74 222.63 80 226.54 79.99 226.55 106.67"/>
    <polygon points="87.1 106.69 83.21 106.71 83.21 87.63 87.09 87.62 87.1 106.69"/>
    <polygon points="87.36 84.24 82.92 84.28 82.88 80.37 87.32 80.36 87.36 84.24"/>
  </g>
</svg>