<svg width="23" height="23" viewBox="0 0 23 23" fill="none" xmlns="http://www.w3.org/2000/svg">
<path d="M11.2169 20.4339C16.3073 20.4339 20.4339 16.3073 20.4339 11.2169C20.4339 6.12656 16.3073 2 11.2169 2C6.12656 2 2 6.12656 2 11.2169C2 16.3073 6.12656 20.4339 11.2169 20.4339Z" stroke="#D3A54A" stroke-width="4" stroke-linecap="round" stroke-linejoin="round"/>
<path d="M11.2148 8.64453C11.5543 8.64593 11.8901 8.71454 12.2031 8.8457C12.5161 8.97686 12.8001 9.16827 13.0391 9.40918C13.2781 9.65019 13.4681 9.93585 13.5967 10.25C13.725 10.5636 13.7902 10.8995 13.7891 11.2383C13.7848 11.7459 13.6307 12.241 13.3457 12.6611C13.0605 13.0814 12.6569 13.4081 12.1865 13.5996C11.7162 13.791 11.1997 13.8389 10.7021 13.7373C10.2046 13.6357 9.74825 13.3889 9.39062 13.0283C9.03299 12.6677 8.78994 12.2093 8.69238 11.7109C8.59484 11.2126 8.64748 10.6963 8.84277 10.2275C9.03808 9.75884 9.36757 9.35785 9.79004 9.07617C10.212 8.79494 10.7078 8.64493 11.2148 8.64453Z" fill="#D3A54A" stroke="#D3A54A"/>
</svg>
