<svg width="23" height="23" viewBox="0 0 23 23" fill="none" xmlns="http://www.w3.org/2000/svg">
<path d="M11.504 20.5413C16.5944 20.5413 20.721 16.4147 20.721 11.3244C20.721 6.23398 16.5944 2.10742 11.504 2.10742C6.41367 2.10742 2.28711 6.23398 2.28711 11.3244C2.28711 16.4147 6.41367 20.5413 11.504 20.5413Z" stroke="#769CA2" stroke-width="4" stroke-linecap="round" stroke-linejoin="round"/>
<path d="M11.502 8.75391C11.8414 8.75531 12.1772 8.82391 12.4902 8.95508C12.8032 9.08624 13.0872 9.27765 13.3262 9.51855C13.5652 9.75957 13.7552 10.0452 13.8838 10.3594C14.0122 10.673 14.0773 11.0088 14.0762 11.3477C14.0719 11.8553 13.9178 12.3504 13.6328 12.7705C13.3476 13.1907 12.944 13.5175 12.4736 13.709C12.0033 13.9004 11.4868 13.9483 10.9893 13.8467C10.4917 13.7451 10.0354 13.4982 9.67773 13.1377C9.32009 12.7771 9.07705 12.3187 8.97949 11.8203C8.88195 11.3219 8.93459 10.8057 9.12988 10.3369C9.32519 9.86822 9.65468 9.46722 10.0771 9.18555C10.4991 8.90431 10.9949 8.7543 11.502 8.75391Z" fill="#769CA2" stroke="#769CA2"/>
</svg>
