<svg width="23" height="24" viewBox="0 0 23 24" fill="none" xmlns="http://www.w3.org/2000/svg">
<path d="M11.504 21.2718C16.5944 21.2718 20.721 17.1452 20.721 12.0548C20.721 6.96445 16.5944 2.83789 11.504 2.83789C6.41367 2.83789 2.28711 6.96445 2.28711 12.0548C2.28711 17.1452 6.41367 21.2718 11.504 21.2718Z" stroke="#8E9F6A" stroke-width="4" stroke-linecap="round" stroke-linejoin="round"/>
<path d="M11.502 9.48242C11.8414 9.48382 12.1772 9.55243 12.4902 9.68359C12.8032 9.81475 13.0872 10.0062 13.3262 10.2471C13.5652 10.4881 13.7552 10.7737 13.8838 11.0879C14.0122 11.4015 14.0773 11.7373 14.0762 12.0762C14.0719 12.5838 13.9178 13.0789 13.6328 13.499C13.3476 13.9193 12.944 14.246 12.4736 14.4375C12.0033 14.6289 11.4868 14.6768 10.9893 14.5752C10.4917 14.4736 10.0354 14.2268 9.67773 13.8662C9.32009 13.5056 9.07705 13.0472 8.97949 12.5488C8.88195 12.0504 8.93459 11.5342 9.12988 11.0654C9.32519 10.5967 9.65468 10.1957 10.0771 9.91406C10.4991 9.63283 10.9949 9.48282 11.502 9.48242Z" fill="#8E9F6A" stroke="#8E9F6A"/>
</svg>
