<svg width="68" height="67" viewBox="0 0 68 67" fill="none" xmlns="http://www.w3.org/2000/svg">
<foreignObject x="-5" y="-5" width="78" height="76.0254"><div xmlns="http://www.w3.org/1999/xhtml" style="backdrop-filter:blur(2.5px);clip-path:url(#bgblur_3d_clip);height:100%;width:100%"></div></foreignObject><g filter="url(#filter_3d)" data-figma-bg-blur-radius="5">
<path d="M67 33.0123C67 50.6854 52.5 65.5117 34 65.0123C15.5 65.5117 1 50.6854 1 33.0123C1 15.3392 15.5 0.511747 34 1.01232C52.5 0.51172 67 15.3392 67 33.0123Z" fill="white" fill-opacity="0.08"/>
<path d="M34 0.512695C52.781 0.0119041 67.5 15.0686 67.5 33.0127C67.4998 50.9567 52.7808 66.0113 34 65.5117C15.2192 66.0113 0.500209 50.9567 0.5 33.0127C0.5 15.0686 15.219 0.0119313 34 0.512695Z" stroke="white" stroke-opacity="0.09"/>
</g>
<!-- 3D-Würfel (isometrisch, 3 sichtbare Flächen: Front/Top/Right) -->
<path d="M22 30 L22 48 L40 48 L40 30 Z" stroke="white" stroke-width="2" stroke-linecap="round" stroke-linejoin="round"/>
<path d="M22 30 L32 22 L50 22 L40 30 Z" stroke="white" stroke-width="2" stroke-linecap="round" stroke-linejoin="round"/>
<path d="M40 30 L50 22 L50 40 L40 48 Z" stroke="white" stroke-width="2" stroke-linecap="round" stroke-linejoin="round"/>
<defs>
<filter id="filter_3d" x="-5" y="-5" width="78" height="76.0254" filterUnits="userSpaceOnUse" color-interpolation-filters="sRGB">
<feFlood flood-opacity="0" result="BackgroundImageFix"/>
<feBlend mode="normal" in="SourceGraphic" in2="BackgroundImageFix" result="shape"/>
<feColorMatrix in="SourceAlpha" type="matrix" values="0 0 0 0 0 0 0 0 0 0 0 0 0 0 0 0 0 0 127 0" result="hardAlpha"/>
<feOffset/>
<feGaussianBlur stdDeviation="7"/>
<feComposite in2="hardAlpha" operator="arithmetic" k2="-1" k3="1"/>
<feColorMatrix type="matrix" values="0 0 0 0 0 0 0 0 0 0 0 0 0 0 0 0 0 0 0.25 0"/>
<feBlend mode="normal" in2="shape" result="effect1_innerShadow"/>
</filter>
<clipPath id="bgblur_3d_clip" transform="translate(5 5)"><path d="M67 33.0123C67 50.6854 52.5 65.5117 34 65.0123C15.5 65.5117 1 50.6854 1 33.0123C1 15.3392 15.5 0.511747 34 1.01232C52.5 0.51172 67 15.3392 67 33.0123Z"/>
</clipPath></defs>
</svg>
