<svg width="25" height="25" viewBox="0 0 25 25" fill="none" xmlns="http://www.w3.org/2000/svg">
<path d="M12.395 22.7901C18.1361 22.7901 22.7901 18.1361 22.7901 12.395C22.7901 6.65402 18.1361 2 12.395 2C6.65402 2 2 6.65402 2 12.395C2 18.1361 6.65402 22.7901 12.395 22.7901Z" stroke="white" stroke-width="4" stroke-linecap="round" stroke-linejoin="round"/>
<path d="M12.3926 9.42969C12.7837 9.43128 13.1705 9.51005 13.5312 9.66113C13.8921 9.81233 14.2206 10.0328 14.4961 10.3105C14.7716 10.5883 14.9895 10.9182 15.1377 11.2803C15.2856 11.6416 15.3607 12.0285 15.3594 12.4189C15.3546 13.0042 15.1772 13.5752 14.8486 14.0596C14.52 14.5439 14.0548 14.9199 13.5127 15.1406C12.9706 15.3613 12.3752 15.4168 11.8018 15.2998C11.2283 15.1827 10.7023 14.898 10.29 14.4824C9.8778 14.0668 9.5978 13.5383 9.48535 12.9639C9.37302 12.3897 9.43232 11.795 9.65723 11.2549C9.88234 10.7145 10.2629 10.2525 10.75 9.92773C11.2365 9.60341 11.8079 9.43011 12.3926 9.42969Z" fill="white" stroke="white"/>
</svg>
