<svg width="31" height="31" viewBox="0 0 31 31" fill="none" xmlns="http://www.w3.org/2000/svg">
<path d="M15.3 28.6C22.6454 28.6 28.6 22.6454 28.6 15.3C28.6 7.95461 22.6454 2 15.3 2C7.95461 2 2 7.95461 2 15.3C2 22.6454 7.95461 28.6 15.3 28.6Z" stroke="#769CA2" stroke-width="4" stroke-linecap="round" stroke-linejoin="round"/>
<path d="M15.2988 11.3672C15.8176 11.3694 16.3311 11.4734 16.8096 11.6738C17.2881 11.8744 17.7225 12.1677 18.0879 12.5361C18.4533 12.9045 18.7429 13.3411 18.9395 13.8213C19.1358 14.301 19.2353 14.8147 19.2334 15.333C19.227 16.1093 18.9915 16.8664 18.5557 17.5088C18.1196 18.1514 17.5025 18.6506 16.7832 18.9434C16.064 19.2361 15.2744 19.3096 14.5137 19.1543C13.7528 18.9989 13.0547 18.6217 12.5078 18.0703C11.961 17.519 11.5896 16.8177 11.4404 16.0557C11.2914 15.2937 11.3714 14.5048 11.6699 13.7881C11.9685 13.0714 12.4723 12.4591 13.1182 12.0283C13.7638 11.5978 14.5228 11.3675 15.2988 11.3672Z" fill="#769CA2" stroke="#769CA2"/>
</svg>
