<svg width="23" height="24" viewBox="0 0 23 24" fill="none" xmlns="http://www.w3.org/2000/svg">
<path d="M11.504 21.3479C16.5944 21.3479 20.721 17.2214 20.721 12.131C20.721 7.04062 16.5944 2.91406 11.504 2.91406C6.41367 2.91406 2.28711 7.04062 2.28711 12.131C2.28711 17.2214 6.41367 21.3479 11.504 21.3479Z" stroke="#D48072" stroke-width="4" stroke-linecap="round" stroke-linejoin="round"/>
<path d="M11.502 9.55859C11.8414 9.55999 12.1772 9.6286 12.4902 9.75977C12.8032 9.89092 13.0872 10.0823 13.3262 10.3232C13.5652 10.5643 13.7552 10.8499 13.8838 11.1641C14.0122 11.4776 14.0773 11.8135 14.0762 12.1523C14.0719 12.66 13.9178 13.1551 13.6328 13.5752C13.3476 13.9954 12.944 14.3222 12.4736 14.5137C12.0033 14.7051 11.4868 14.753 10.9893 14.6514C10.4917 14.5498 10.0354 14.3029 9.67773 13.9424C9.32009 13.5818 9.07705 13.1234 8.97949 12.625C8.88195 12.1266 8.93459 11.6104 9.12988 11.1416C9.32519 10.6729 9.65468 10.2719 10.0771 9.99023C10.4991 9.709 10.9949 9.55899 11.502 9.55859Z" fill="#D48072" stroke="#D48072"/>
</svg>
